<?xml version="1.0" standalone="no"?>
<!DOCTYPE svg PUBLIC "-//W3C//DTD SVG 20010904//EN"
 "http://www.w3.org/TR/2001/REC-SVG-20010904/DTD/svg10.dtd">
<svg version="1.0" xmlns="http://www.w3.org/2000/svg"
 width="256.000000pt" height="256.000000pt" viewBox="0 0 256.000000 256.000000"
 preserveAspectRatio="xMidYMid meet">
<metadata>
Created by potrace 1.11, written by Peter Selinger 2001-2013
</metadata>
<g transform="translate(0.000000,256.000000) scale(0.100000,-0.100000)"
fill="#000000" stroke="none">
<path d="M1470 2190 c-41 -28 -106 -74 -145 -101 -272 -195 -586 -389 -755
-467 -141 -65 -157 -72 -240 -97 -95 -28 -134 -36 -222 -40 -120 -6 -108 51
-108 -533 0 -411 3 -512 13 -527 14 -18 67 -21 162 -10 191 22 456 128 725
289 51 31 93 56 94 56 1 0 1 -103 1 -230 0 -162 3 -230 11 -230 10 0 50 27
239 161 552 392 914 568 1194 584 68 3 87 8 95 22 17 29 24 81 12 94 -6 7 -7
9 -1 6 12 -6 11 135 -1 154 -4 7 -3 10 2 6 11 -6 9 137 -2 154 -4 7 -3 10 2 6
11 -6 9 137 -2 154 -4 7 -3 10 2 6 11 -6 9 137 -2 154 -4 7 -3 10 2 6 11 -6 9
137 -2 154 -4 7 -3 9 3 6 17 -11 3 115 -15 136 -14 16 -28 17 -110 13 -52 -3
-97 -8 -100 -10 -4 -2 -23 -7 -42 -10 -152 -25 -421 -142 -665 -290 l-60 -36
-5 236 -5 235 -75 -51z"/>
</g>
</svg>
