<svg xmlns="http://www.w3.org/2000/svg" width="436" height="283" viewBox="0 0 436 283">
    <defs>
        <linearGradient id="a" x1="88.983%" x2="22.902%" y1="9.05%" y2="87.332%">
            <stop offset="0%" stop-color="#57D8F1"/>
            <stop offset="100%" stop-color="#194AAD"/>
        </linearGradient>
    </defs>
    <g fill="none" fill-rule="evenodd" transform="translate(-2 -3)">
        <path fill="#3D3A44" d="M409.736 16v-1.6h1.936V7.984l.032-1.28-.032-.032-1.104.688-1.248.752-.224-1.824 3.488-2.304h1.296V14.4h1.888V16h-6.032zm16.744-5.968c0 4.352-1.328 6.144-4.384 6.144-3.104 0-4.368-1.792-4.368-6.144 0-4.528 1.28-6.176 4.384-6.176 3.056 0 4.368 1.648 4.368 6.176zM424.368 10c0-3.504-.704-4.208-2.256-4.208-1.568 0-2.288.736-2.288 4.224 0 3.568.72 4.256 2.288 4.256 1.552 0 2.256-.72 2.256-4.272zm7.928-3.376c0 1.904-.816 2.8-2.4 2.8-1.648 0-2.384-.912-2.384-2.8 0-1.952.704-2.784 2.4-2.784 1.568 0 2.384.752 2.384 2.784zm-1.376-.016c0-1.168-.32-1.488-1.008-1.488-.704 0-1.024.304-1.024 1.488s.32 1.488 1.024 1.488c.688 0 1.008-.304 1.008-1.488zm4.272-2.176l1.184.944-6.384 10.272-1.184-.928 6.384-10.288zm2.688 8.928c0 1.904-.816 2.8-2.4 2.8-1.648 0-2.4-.912-2.4-2.8 0-1.952.704-2.832 2.4-2.832 1.584 0 2.4.8 2.4 2.832zm-1.376 0c0-1.168-.32-1.472-1.024-1.472-.688 0-1.008.288-1.008 1.472 0 1.152.32 1.456 1.008 1.456.704 0 1.024-.288 1.024-1.456zM416.328 143.4c0 2.272-1.408 3.744-4.544 3.744-1.536 0-2.736-.4-3.616-.928l.432-1.744a6.11 6.11 0 0 0 3.136.832c1.696 0 2.512-.8 2.512-1.984s-.816-1.808-3.488-1.808v-1.568c2.512 0 3.28-.64 3.28-1.728 0-.944-.784-1.456-2.224-1.456-1.248 0-2.24.416-3.104 1.088l-.528-1.712c.896-.72 2.256-1.264 3.76-1.264 2.576 0 4.08 1.168 4.08 3.184 0 1.28-.672 2.128-1.776 2.608v.032c1.328.416 2.08 1.264 2.08 2.704zm10.152-2.368c0 4.352-1.328 6.144-4.384 6.144-3.104 0-4.368-1.792-4.368-6.144 0-4.528 1.28-6.176 4.384-6.176 3.056 0 4.368 1.648 4.368 6.176zm-2.112-.032c0-3.504-.704-4.208-2.256-4.208-1.568 0-2.288.736-2.288 4.224 0 3.568.72 4.256 2.288 4.256 1.552 0 2.256-.72 2.256-4.272zm7.928-3.376c0 1.904-.816 2.8-2.4 2.8-1.648 0-2.384-.912-2.384-2.8 0-1.952.704-2.784 2.4-2.784 1.568 0 2.384.752 2.384 2.784zm-1.376-.016c0-1.168-.32-1.488-1.008-1.488-.704 0-1.024.304-1.024 1.488s.32 1.488 1.024 1.488c.688 0 1.008-.304 1.008-1.488zm4.272-2.176l1.184.944-6.384 10.272-1.184-.928 6.384-10.288zm2.688 8.928c0 1.904-.816 2.8-2.4 2.8-1.648 0-2.4-.912-2.4-2.8 0-1.952.704-2.832 2.4-2.832 1.584 0 2.4.8 2.4 2.832zm-1.376 0c0-1.168-.32-1.472-1.024-1.472-.688 0-1.008.288-1.008 1.472 0 1.152.32 1.456 1.008 1.456.704 0 1.024-.288 1.024-1.456zM416.168 276.28c0 2.304-2.08 4.256-5.04 6.72v.048h5.056l-.048 1.952h-7.856v-1.456c2.976-2.88 5.664-5.088 5.664-7.04 0-.96-.64-1.664-2.192-1.664-1.104 0-2.128.448-2.992 1.104l-.528-1.792c.96-.752 2.304-1.28 3.904-1.28 2.656 0 4.032 1.344 4.032 3.408zm9.944 0c0 2.304-2.08 4.256-5.04 6.72v.048h5.056L426.08 285h-7.856v-1.456c2.976-2.88 5.664-5.088 5.664-7.04 0-.96-.64-1.664-2.192-1.664-1.104 0-2.128.448-2.992 1.104l-.528-1.792c.96-.752 2.304-1.28 3.904-1.28 2.656 0 4.032 1.344 4.032 3.408zm6.184-.656c0 1.904-.816 2.8-2.4 2.8-1.648 0-2.384-.912-2.384-2.8 0-1.952.704-2.784 2.4-2.784 1.568 0 2.384.752 2.384 2.784zm-1.376-.016c0-1.168-.32-1.488-1.008-1.488-.704 0-1.024.304-1.024 1.488s.32 1.488 1.024 1.488c.688 0 1.008-.304 1.008-1.488zm4.272-2.176l1.184.944-6.384 10.272-1.184-.928 6.384-10.288zm2.688 8.928c0 1.904-.816 2.8-2.4 2.8-1.648 0-2.4-.912-2.4-2.8 0-1.952.704-2.832 2.4-2.832 1.584 0 2.4.8 2.4 2.832zm-1.376 0c0-1.168-.32-1.472-1.024-1.472-.688 0-1.008.288-1.008 1.472 0 1.152.32 1.456 1.008 1.456.704 0 1.024-.288 1.024-1.456zM2.736 16v-1.6h1.936V7.984l.032-1.28-.032-.032-1.104.688-1.248.752-.224-1.824 3.488-2.304H6.88V14.4h1.888V16H2.736zm16.536-3.6c0 2.272-1.408 3.744-4.544 3.744-1.536 0-2.736-.4-3.616-.928l.432-1.744a6.11 6.11 0 0 0 3.136.832c1.696 0 2.512-.8 2.512-1.984s-.816-1.808-3.488-1.808V8.944c2.512 0 3.28-.64 3.28-1.728 0-.944-.784-1.456-2.224-1.456-1.248 0-2.24.416-3.104 1.088l-.528-1.712c.896-.72 2.256-1.264 3.76-1.264 2.576 0 4.08 1.168 4.08 3.184 0 1.28-.672 2.128-1.776 2.608v.032c1.328.416 2.08 1.264 2.08 2.704zm6.024-5.776c0 1.904-.816 2.8-2.4 2.8-1.648 0-2.384-.912-2.384-2.8 0-1.952.704-2.784 2.4-2.784 1.568 0 2.384.752 2.384 2.784zm-1.376-.016c0-1.168-.32-1.488-1.008-1.488-.704 0-1.024.304-1.024 1.488s.32 1.488 1.024 1.488c.688 0 1.008-.304 1.008-1.488zm4.272-2.176l1.184.944-6.384 10.272-1.184-.928 6.384-10.288zm2.688 8.928c0 1.904-.816 2.8-2.4 2.8-1.648 0-2.4-.912-2.4-2.8 0-1.952.704-2.832 2.4-2.832 1.584 0 2.4.8 2.4 2.832zm-1.376 0c0-1.168-.32-1.472-1.024-1.472-.688 0-1.008.288-1.008 1.472 0 1.152.32 1.456 1.008 1.456.704 0 1.024-.288 1.024-1.456zM2.736 147v-1.6h1.936v-6.416l.032-1.28-.032-.032-1.104.688-1.248.752-.224-1.824 3.488-2.304H6.88V145.4h1.888v1.6H2.736zm16.744-5.968c0 4.352-1.328 6.144-4.384 6.144-3.104 0-4.368-1.792-4.368-6.144 0-4.528 1.28-6.176 4.384-6.176 3.056 0 4.368 1.648 4.368 6.176zM17.368 141c0-3.504-.704-4.208-2.256-4.208-1.568 0-2.288.736-2.288 4.224 0 3.568.72 4.256 2.288 4.256 1.552 0 2.256-.72 2.256-4.272zm7.928-3.376c0 1.904-.816 2.8-2.4 2.8-1.648 0-2.384-.912-2.384-2.8 0-1.952.704-2.784 2.4-2.784 1.568 0 2.384.752 2.384 2.784zm-1.376-.016c0-1.168-.32-1.488-1.008-1.488-.704 0-1.024.304-1.024 1.488s.32 1.488 1.024 1.488c.688 0 1.008-.304 1.008-1.488zm4.272-2.176l1.184.944-6.384 10.272-1.184-.928 6.384-10.288zm2.688 8.928c0 1.904-.816 2.8-2.4 2.8-1.648 0-2.4-.912-2.4-2.8 0-1.952.704-2.832 2.4-2.832 1.584 0 2.4.8 2.4 2.832zm-1.376 0c0-1.168-.32-1.472-1.024-1.472-.688 0-1.008.288-1.008 1.472 0 1.152.32 1.456 1.008 1.456.704 0 1.024-.288 1.024-1.456zM2.736 285v-1.6h1.936v-6.416l.032-1.28-.032-.032-1.104.688-1.248.752-.224-1.824 3.488-2.304H6.88V283.4h1.888v1.6H2.736zm16.456-4.112c0 2.688-1.344 4.256-4.336 4.256-1.408 0-2.608-.32-3.616-.928l.4-1.76c.96.544 1.808.848 3.008.848 1.728 0 2.416-.752 2.416-2.24 0-1.312-.736-1.856-2.336-1.856-.928 0-1.904.192-2.592.496l-.784-.848.496-5.856h6.704l.08 1.952h-5.104l-.208 2.704a8.183 8.183 0 0 1 2.016-.256c2.496 0 3.856 1.152 3.856 3.488zm6.104-5.264c0 1.904-.816 2.8-2.4 2.8-1.648 0-2.384-.912-2.384-2.8 0-1.952.704-2.784 2.4-2.784 1.568 0 2.384.752 2.384 2.784zm-1.376-.016c0-1.168-.32-1.488-1.008-1.488-.704 0-1.024.304-1.024 1.488s.32 1.488 1.024 1.488c.688 0 1.008-.304 1.008-1.488zm4.272-2.176l1.184.944-6.384 10.272-1.184-.928 6.384-10.288zm2.688 8.928c0 1.904-.816 2.8-2.4 2.8-1.648 0-2.4-.912-2.4-2.8 0-1.952.704-2.832 2.4-2.832 1.584 0 2.4.8 2.4 2.832zm-1.376 0c0-1.168-.32-1.472-1.024-1.472-.688 0-1.008.288-1.008 1.472 0 1.152.32 1.456 1.008 1.456.704 0 1.024-.288 1.024-1.456z"/>
        <circle cx="45" cy="279" r="6" fill="#50E3C2" transform="matrix(-1 0 0 1 90 0)"/>
        <circle cx="45" cy="9" r="6" fill="#FF8337"/>
        <circle cx="388" cy="141" r="6" fill="#184AAA"/>
        <circle cx="45" cy="141" r="6" fill="#FFC15A"/>
        <circle cx="388" cy="279" r="6" fill="#2CBEDF"/>
        <path fill="#184AAA" fill-rule="nonzero" d="M325 140h63.991v1H325z"/>
        <path fill="#FFC15A" fill-rule="nonzero" d="M84.458 142H46v-1h38.873l32.567 32.568-.707.707z"/>
        <path fill="#D7297D" fill-rule="nonzero" d="M386.29 10V9H226.416l-51.715 43.929-1.95 2.97L226.832 10z"/>
        <path fill="#FF8337" fill-rule="nonzero" d="M55.458 9H46V8h9.873l80.567 79.568-.707.707z"/>
        <circle cx="388" cy="9" r="6" fill="#D7297D" transform="matrix(-1 0 0 1 776 0)"/>
        <path fill="#2CBEDF" fill-rule="nonzero" d="M384.666 276.655a.5.5 0 1 0 .706-.707l-27-26.948H254.5a.5.5 0 1 0 0 1h103.458l26.708 26.655z"/>
        <path fill="#50E3C2" fill-rule="nonzero" d="M150.877 231.049l-.631-.811L124.374 252h-53l-27.227 27.155a.5.5 0 1 0 .706.708L71.788 253h53.057l26.032-21.951z"/>
        <g fill-rule="nonzero">
            <path fill="#FF8337" d="M146.824 67.437l7.791 9.126a98.6 98.6 0 0 0-2.281 2.01c-14.606 13.27-24.939 30.643-29.495 49.917l-11.678-2.76c5.117-21.649 16.716-41.15 33.103-56.039a110.6 110.6 0 0 1 2.56-2.254z"/>
            <path fill="#FFC15A" d="M108.755 138.3l11.919 1.4a99.086 99.086 0 0 0-.674 11.556c0 12.137 2.204 23.96 6.45 35.045l-11.206 4.292c-4.769-12.45-7.244-25.727-7.244-39.337 0-4.354.253-8.677.755-12.956z"/>
            <path fill="#50E3C2" d="M120.693 202.8l10.614-5.6c11.21 21.25 29.935 37.772 52.459 46.183l-4.198 11.242c-25.289-9.444-46.294-27.977-58.875-51.825z"/>
            <path fill="#2CBEDF" d="M192.62 258.597l2.76-11.679a98.292 98.292 0 0 0 22.615 2.621c35.604 0 67.859-19.143 85.185-49.512l10.423 5.946c-19.44 34.076-55.65 55.566-95.608 55.566-8.624 0-17.122-.993-25.374-2.942z"/>
            <path fill="#184AAA" d="M319.366 193.79l-11.054-4.672C313.364 177.165 316 164.272 316 151c0-54.124-43.876-98-98-98V41c60.751 0 110 49.249 110 110 0 14.884-2.961 29.365-8.634 42.79z"/>
            <path fill="#D7297D" d="M204.944 42.043l1.427 11.914a97.386 97.386 0 0 0-43.012 16.039l-6.718-9.943a109.384 109.384 0 0 1 48.303-18.01z"/>
        </g>
        <g fill="url(#a)" fill-rule="nonzero" transform="translate(151 85)">
            <path d="M66.5 133c36.727 0 66.5-29.773 66.5-66.5C133 29.773 103.227 0 66.5 0 29.773 0 0 29.773 0 66.5a.5.5 0 1 0 1 0C1 30.325 30.325 1 66.5 1S132 30.325 132 66.5 102.675 132 66.5 132a.5.5 0 0 0 0 1z"/>
            <path d="M67 14c-29.271 0-53 23.729-53 53s23.729 53 53 53 53-23.729 53-53a2 2 0 0 0-4 0c0 27.062-21.938 49-49 49S18 94.062 18 67s21.938-49 49-49a2 2 0 1 0 0-4z"/>
        </g>
    </g>
</svg>
