<svg xmlns="http://www.w3.org/2000/svg" width="143" height="36" viewBox="0 0 143 36">
    <path fill="#000D2B" fill-rule="evenodd" d="M10.534 0L2.236 4.905l8.298 4.906 8.456-4.906L10.534 0zM11.9 26.19V36l11.274-6.487V19.7l-11.274 6.488zm8.456-18.2v9.813l-8.456 4.905v-9.812l8.456-4.905zM0 17.804l8.455 4.905v-9.812L0 7.991v9.812zm0 13.292L8.455 36v-9.81L0 21.283v9.81zm52.374-17.65v-.478c0-1.435-.779-2.23-2.18-2.23h-7.011v4.939h7.01c1.402 0 2.18-.797 2.18-2.23v-.001zm5.14 8.125v2.07c0 3.824-1.868 5.736-5.605 5.736H40.072a.738.738 0 0 1-.566-.222.751.751 0 0 1-.212-.575V7.87a.751.751 0 0 1 .212-.576.738.738 0 0 1 .566-.221H50.66c3.737 0 5.605 1.911 5.605 5.735v.638c0 3.03-2.18 3.664-2.18 3.664v.159s3.43.637 3.43 4.302zm-3.894 1.91v-1.91c0-1.435-.779-2.23-2.18-2.23h-8.253v6.373h8.252c1.402 0 2.18-.797 2.18-2.23v-.003zm14.948 3.031c1.556 0 2.646-1.115 2.646-2.709v-1.115h-5.137c-1.09 0-1.717.638-1.717 1.752v.319c0 1.115.622 1.752 1.717 1.752h2.49v.001zm6.073-8.603v10.68a.751.751 0 0 1-.212.575.738.738 0 0 1-.566.221h-1.869a.738.738 0 0 1-.567-.221.751.751 0 0 1-.211-.575v-.797h-.156s-.778 1.912-3.115 1.912H65.61c-3.114 0-4.671-1.593-4.671-4.78v-.477c0-3.187 1.557-4.78 4.671-4.78h5.605V18.08c0-1.275-.778-2.071-2.024-2.071h-2.179c-1.09 0-1.717.638-1.717 1.752a.751.751 0 0 1-.211.575.738.738 0 0 1-.567.221H62.65a.738.738 0 0 1-.566-.221.751.751 0 0 1-.212-.575c0-3.187 1.717-4.939 4.983-4.939h2.803c3.27 0 4.983 1.752 4.983 5.099v-.012zm18.53 0c0-3.345-1.716-5.098-4.983-5.098h-2.49c-2.335 0-3.114 1.912-3.114 1.912h-.156v-.8a.751.751 0 0 0-.211-.575.738.738 0 0 0-.567-.221h-1.871a.738.738 0 0 0-.567.221.751.751 0 0 0-.212.575v14.653a.751.751 0 0 0 .212.575.738.738 0 0 0 .567.221h1.868a.738.738 0 0 0 .567-.221.751.751 0 0 0 .211-.575v-9.873c0-1.587 1.09-2.709 2.647-2.709h2.647c1.246 0 2.024.797 2.024 2.071v10.51a.751.751 0 0 0 .212.576.738.738 0 0 0 .567.221h1.868a.738.738 0 0 0 .567-.221.751.751 0 0 0 .212-.575v-10.68l.002.013zm14.948 6.532c0 1.274-.778 2.071-2.024 2.071h-3.27c-1.247 0-2.025-.797-2.025-2.07v-6.377c0-1.274.778-2.07 2.024-2.07h3.27c1.247 0 2.025.796 2.025 2.07v.478a.751.751 0 0 0 .212.575.738.738 0 0 0 .567.222h1.868a.738.738 0 0 0 .567-.222.751.751 0 0 0 .211-.575v-.638c0-3.345-1.716-5.099-4.983-5.099h-4.203c-3.27 0-4.983 1.752-4.983 5.099v6.69c0 3.346 1.717 5.1 4.983 5.1h4.205c3.27 0 4.983-1.753 4.983-5.1v-.637a.751.751 0 0 0-.212-.575.738.738 0 0 0-.566-.222h-1.87a.738.738 0 0 0-.567.222.751.751 0 0 0-.212.575v.483zm10.587-6.373v6.373c0 1.274.779 2.071 2.025 2.071h3.577c1.246 0 2.024-.797 2.024-2.07v-6.377c0-1.274-.778-2.07-2.024-2.07h-3.577c-1.246 0-2.025.796-2.025 2.07v.003zm-3.425 6.532v-6.694c0-3.345 1.717-5.098 4.984-5.098h4.515c3.268 0 4.984 1.752 4.984 5.098v6.691c0 3.345-1.716 5.099-4.983 5.099h-4.516c-3.271 0-4.984-1.752-4.984-5.099v.003zm25.381-11.79c-2.336 0-3.115 1.913-3.115 1.913h-.156v-.8a.751.751 0 0 0-.211-.575.738.738 0 0 0-.567-.221h-1.867a.738.738 0 0 0-.567.221.751.751 0 0 0-.211.575v14.653a.751.751 0 0 0 .211.575.738.738 0 0 0 .567.221h1.869a.738.738 0 0 0 .566-.221.751.751 0 0 0 .212-.575V18.86c0-1.588 1.09-2.709 2.647-2.709h2.18a.738.738 0 0 0 .567-.222.751.751 0 0 0 .211-.575v-1.752a.751.751 0 0 0-.211-.574.738.738 0 0 0-.567-.222h-1.557l-.001.003z"/>
</svg>
