<svg xmlns="http://www.w3.org/2000/svg" width="28" height="28" viewBox="0 0 28 28">
    <g fill="none" fill-rule="evenodd">
        <path fill="#25CAF0" fill-rule="nonzero" d="M14 23.75c5.385 0 9.75-4.365 9.75-9.75S19.385 4.25 14 4.25 4.25 8.615 4.25 14s4.365 9.75 9.75 9.75zm0 .5C8.34 24.25 3.75 19.66 3.75 14S8.34 3.75 14 3.75 24.25 8.34 24.25 14 19.66 24.25 14 24.25z"/>
        <path fill="#25CAF0" fill-rule="nonzero" d="M15.284 18.848h.92c1.548 0 2.803-1.298 2.796-2.894v-.162a2.939 2.939 0 0 0-.776-1.98l-.13-.141.104-.163c.294-.457.45-.989.447-1.54l-.001-.152c-.008-1.77-.88-2.574-3.131-2.763l-.23-.02V7l-1.288.026v2.027l-.952-.026V7h-1.304v2.027H9l.009 1.384h.612a1 1 0 0 1 1 .996l.006 1.49.009 1.86.007 1.965a1 1 0 0 1-1 1h-.605l.008 1.126h2.693v2.319h1.304v-2.32h.952v2.32h1.289v-2.32zm4.215-3.058l.001.161c.009 1.871-1.467 3.397-3.295 3.397h-.421v2.319h-4.545v-2.32H8.55l-.016-2.125h1.109a.5.5 0 0 0 .5-.5l-.007-1.963-.01-1.86-.005-1.49a.5.5 0 0 0-.5-.498H8.512l-.015-2.384h2.742V6.5h2.304l2.24-.01v2.086c2.333.252 3.352 1.254 3.361 3.237v.153a3.316 3.316 0 0 1-.428 1.65c.5.609.78 1.374.783 2.174z"/>
        <path fill="#25CAF0" d="M16.542 15.926c-.002-.571-.44-1.336-1.463-1.336h-2.113l.009 2.845h2.088c.97 0 1.482-.777 1.48-1.347v-.162zM15.829 11.692c-.002-.571-.418-1.035-.926-1.035h-1.939l.01 2.468h1.938c.509 0 .92-.465.918-1.036l-.001-.397z"/>
        <path fill="#009FC4" fill-rule="nonzero" d="M14 27c7.18 0 13-5.82 13-13S21.18 1 14 1 1 6.82 1 14s5.82 13 13 13zm0 1C6.268 28 0 21.732 0 14S6.268 0 14 0s14 6.268 14 14-6.268 14-14 14z"/>
    </g>
</svg>
