<?xml version="1.0" encoding="UTF-8"?>
<svg width="34px" height="28px" viewBox="0 0 34 28" version="1.1" xmlns="http://www.w3.org/2000/svg" xmlns:xlink="http://www.w3.org/1999/xlink">
    <!-- Generator: Sketch 48.1 (47250) - http://www.bohemiancoding.com/sketch -->
    <title>reddit</title>
    <desc>Created with Sketch.</desc>
    <defs></defs>
    <g id="meet-us---v2---desktop" stroke="none" stroke-width="1" fill="none" fill-rule="evenodd" transform="translate(-950.000000, -1341.000000)">
        <path d="M966.929151,1369 C958.549698,1369 951.732935,1364.53079 951.732935,1359.03727 C951.732935,1358.65776 951.765332,1358.282 951.828856,1357.9131 C950.69213,1357.22341 950.000074,1356.00438 950,1354.69165 C950.00245,1352.60347 951.724418,1350.91117 953.849556,1350.90842 C954.797969,1350.90842 955.701916,1351.24923 956.401315,1351.85844 C959.036927,1350.19622 962.582202,1349.15007 966.493376,1349.07767 L969.061017,1341.37764 L969.621299,1341.50747 L975.619237,1342.89505 C976.118313,1341.74693 977.265698,1341.00153 978.53626,1341 C980.286296,1341.00206 981.704358,1342.39574 981.706108,1344.11534 C981.704008,1345.8347 980.286048,1347.228 978.53626,1347.23006 C976.787812,1347.22834 975.370261,1345.83712 975.366411,1344.11909 L969.905886,1342.85572 L967.826745,1349.0914 C971.595625,1349.23559 974.999242,1350.28485 977.540203,1351.91087 C978.250037,1351.26501 979.182353,1350.90709 980.14977,1350.90905 C982.275156,1350.91145 983.99751,1352.60385 983.999961,1354.69227 C984.006265,1356.05872 983.257027,1357.32079 982.043421,1357.98801 C982.098687,1358.33318 982.127272,1358.68273 982.127272,1359.03727 C982.126002,1364.53079 975.308604,1369 966.929151,1369 Z M972.655038,1355 C971.359205,1355 970.27129,1356.14826 970.27129,1357.51917 C970.27129,1358.88941 971.359205,1360 972.655038,1360 C973.950871,1360 975,1358.88941 975,1357.51917 C975,1356.14826 973.950235,1355 972.655038,1355 Z M962.381205,1355 C961.086643,1355 960,1356.1496 960,1357.51917 C960,1358.88874 961.086007,1360 962.381205,1360 C963.676402,1360 964.726167,1358.88874 964.726167,1357.51917 C964.726167,1356.1496 963.675766,1355 962.381205,1355 Z M978.601689,1352.66365 C980.074811,1353.82153 981.15599,1355.20037 981.708649,1356.71341 C982.354053,1356.23526 982.731964,1355.48587 982.72821,1354.69165 C982.726809,1353.29226 981.572653,1352.15818 980.148499,1352.15681 C979.590532,1352.15604 979.04751,1352.33397 978.601689,1352.66365 Z M953.849556,1352.15681 C952.425649,1352.15853 951.27188,1353.29251 951.27048,1354.69165 C951.27048,1355.44879 951.61351,1356.15226 952.182685,1356.62664 C952.753766,1355.12546 953.845744,1353.75786 955.324583,1352.61122 C954.891647,1352.31534 954.376913,1352.15676 953.849556,1352.15681 Z M978.535624,1342.24776 C977.488749,1342.24776 976.636256,1343.08543 976.636256,1344.11472 C976.636256,1345.14401 977.488749,1345.98105 978.535624,1345.98105 C979.5825,1345.98105 980.434993,1345.14401 980.434993,1344.11472 C980.434993,1343.08543 979.583136,1342.24776 978.535624,1342.24776 Z M966.998392,1365.4471 C969.542529,1365.4471 971.334542,1364.90093 972.478609,1363.77739 C972.639063,1363.61984 972.701787,1363.39014 972.643155,1363.17482 C972.584524,1362.95951 972.413443,1362.79129 972.194358,1362.73352 C971.975273,1362.67576 971.741468,1362.73723 971.581015,1362.89478 C970.687232,1363.77177 969.188065,1364.19872 966.998392,1364.19872 C964.808084,1364.19872 963.310188,1363.77177 962.417675,1362.89478 C962.169636,1362.65088 961.767343,1362.65074 961.519128,1362.89447 C961.270913,1363.13819 961.270771,1363.53349 961.51881,1363.77739 C962.661607,1364.90093 964.454255,1365.4471 966.998392,1365.4471 Z" id="reddit" fill="#009FC4" fill-rule="nonzero"></path>
    </g>
</svg>