<svg xmlns="http://www.w3.org/2000/svg" width="28" height="30" viewBox="0 0 28 30">
    <g fill="#25CAF0" fill-rule="evenodd">
        <path d="M3.733 27.114c2.499 1.325 5.408 2.217 8.727 2.677 3.32.459 6.306.163 8.962-.888 2.238-1.254 3.893-2.877 4.967-4.869 1.61-2.987 1.622-4.702 1.61-6.84-.014-2.138-.732-4.56-2.956-6.822C22.82 8.11 20.838 7.646 19.3 7.54c-1.539-.105-3.574-.048-5.268.709s-4.402 1.816-5.948 5.154c-1.545 3.339.195 8.22-.664 10.631-.573 1.607-1.802 2.634-3.687 3.08z"/>
        <path d="M21.256 7.19c.432-.727 1-1.569 1.704-2.524.704-.954 1.45-1.678 2.24-2.17C21.4.78 17.744-.05 14.233.001c-3.51.053-6.282.884-8.317 2.493C3.653 3.943 1.968 6.077.864 8.9c-1.658 4.232-.51 6.979 0 8.319.51 1.34.919 2.129 2.544 3.767 1.083 1.092 2.166 1.902 3.25 2.43.054-.236.095-.561.126-.977.046-.623-.267-2.644-.267-3.589 0-1.57-.067-2.583.267-4.296C7.118 12.841 7.97 11.73 9 10.63c1.03-1.1 1.742-1.8 4.127-2.869 2.385-1.07 3.563-1.05 5.338-1.026 1.184.016 2.114.167 2.792.456z"/>
    </g>
</svg>
