<svg xmlns="http://www.w3.org/2000/svg" width="100" height="44" viewBox="0 0 100 44">
    <g fill="none" fill-rule="nonzero">
        <g fill="#393C4C">
            <path d="M51.024 28.238l.23 1.664.353-1.5 2.438-8.825h1.377l2.384 8.824.336 1.537.265-1.7 1.925-8.643h1.643l-3.003 12.64H57.49l-2.544-9.222-.194-.959-.194.959-2.632 9.222h-1.483l-2.985-12.64h1.625zM65.348 32.216h-1.625V19.577h1.625zM77.534 32.216h-1.642l-6.217-9.746v9.746h-1.643V19.577h1.643l6.235 9.782v-9.782h1.624zM89.262 30.571c-.424.615-1.007 1.067-1.749 1.374-.742.308-1.625.452-2.614.452-1.006 0-1.907-.235-2.684-.723-.777-.488-1.378-1.175-1.82-2.061-.423-.886-.653-1.917-.653-3.092v-1.103c0-1.9.442-3.382 1.307-4.43.866-1.05 2.084-1.574 3.656-1.574 1.29 0 2.331.344 3.108 1.013.778.669 1.272 1.627 1.449 2.875h-1.625c-.3-1.682-1.272-2.514-2.914-2.514-1.095 0-1.925.398-2.473 1.176-.565.777-.848 1.917-.848 3.417v1.031c0 1.429.318 2.55.954 3.381.636.832 1.484 1.248 2.579 1.248.618 0 1.148-.072 1.607-.199.46-.144.83-.38 1.13-.705v-2.839h-2.861v-1.356h4.486l-.035 4.629zM95.337 26.593c-1.395-.416-2.42-.922-3.055-1.519-.636-.597-.954-1.338-.954-2.224 0-.995.389-1.826 1.166-2.477.777-.651 1.784-.977 3.038-.977.847 0 1.607.163 2.26.506.671.344 1.184.796 1.537 1.393.37.597.547 1.23.547 1.935h-1.642c0-.76-.23-1.375-.707-1.809-.476-.434-1.148-.65-2.013-.65-.795 0-1.43.18-1.872.542-.442.362-.671.868-.671 1.5 0 .525.212.96.635 1.303.424.361 1.149.687 2.173.976 1.024.29 1.837.615 2.402.976.583.362 1.007.778 1.29 1.248.282.47.423 1.03.423 1.682 0 1.03-.389 1.844-1.166 2.459-.777.615-1.819.922-3.126.922-.847 0-1.642-.163-2.366-.506-.742-.326-1.307-.796-1.696-1.374-.406-.579-.6-1.23-.6-1.971h1.642c0 .76.283 1.374.83 1.808.548.434 1.29.669 2.208.669.865 0 1.519-.18 1.978-.543.46-.361.689-.85.689-1.464 0-.615-.212-1.103-.636-1.429-.424-.325-1.201-.65-2.314-.976z"/>
        </g>
        <path fill="#393C4C" d="M3.322 8.464l24.062 1.167 5.609 11.344-8.432 7.722-3.536-14.472z"/>
        <path fill="#A9D6E6" d="M5.734 43.947L45.532 6.909l3.52 9.366-4.502-1.555v9.453z"/>
        <path fill="#5AB9E1" d="M.054.106L29.58 1.891l11.432 24.085-11.932 6.079-6.485-24.651z"/>
    </g>
</svg>
