<svg xmlns="http://www.w3.org/2000/svg" width="28" height="28" viewBox="0 0 28 28">
    <g fill="none" fill-rule="evenodd">
        <path fill="#009FC4" d="M14 24C8.477 24 4 19.523 4 14S8.477 4 14 4s10 4.477 10 10-4.477 10-10 10zm5-8.208a2.939 2.939 0 0 0-.915-2.12 2.815 2.815 0 0 0 .56-1.704l-.001-.152c-.007-1.565-.64-2.61-3.36-2.78V7l-1.289.026v2.027l-.952-.026V7h-1.304v2.027H9l.009 1.384h.612a1 1 0 0 1 1 .996l.006 1.49.009 1.86.007 1.961a1 1 0 0 1-1 1.004h-.605l.008 1.126h2.693v2.319h1.304v-2.32h.952v2.32h1.289v-2.32h.92c1.55 0 2.803-1.298 2.796-2.893v-.162z"/>
        <path fill="#009FC4" d="M16.542 15.926c-.002-.571-.44-1.336-1.463-1.336h-2.113l.009 2.845h2.088c.97 0 1.482-.777 1.48-1.347v-.162zM15.829 11.692c-.002-.571-.418-1.035-.926-1.035h-1.939l.01 2.468h1.938c.509 0 .92-.465.918-1.036l-.001-.397z"/>
        <path fill="#009FC4" fill-rule="nonzero" d="M14 27c7.18 0 13-5.82 13-13S21.18 1 14 1 1 6.82 1 14s5.82 13 13 13zm0 1C6.268 28 0 21.732 0 14S6.268 0 14 0s14 6.268 14 14-6.268 14-14 14z"/>
    </g>
</svg>
