<svg xmlns="http://www.w3.org/2000/svg" width="33" height="28" viewBox="0 0 33 28">
    <path fill="#009FC4" fill-rule="nonzero" d="M22.202 16.35c-1.288 0-2.332 1.446-2.332 3.23s1.044 3.23 2.332 3.23c1.287 0 2.33-1.446 2.33-3.23.001-1.784-1.043-3.23-2.33-3.23zm8.117-8.405c.266-.656.28-4.38-1.137-7.945 0 0-3.248.356-8.164 3.732-1.03-.285-2.774-.427-4.518-.427-1.744 0-3.488.142-4.519.427C7.066.356 3.818 0 3.818 0 2.402 3.565 2.415 7.29 2.681 7.945 1.017 9.753 0 11.925 0 14.89 0 27.79 10.692 27.997 13.392 27.997L16.5 28l3.108-.003c2.7 0 13.392-.207 13.392-13.106 0-2.967-1.017-5.138-2.68-6.946zM16.551 26.41h-.101c-6.765 0-12.033-.808-12.033-7.388 0-1.575.556-3.038 1.876-4.252 2.203-2.023 5.928-.952 10.157-.952l.05-.001.05.001c4.23 0 7.956-1.071 10.158.952 1.32 1.214 1.875 2.677 1.875 4.252 0 6.58-5.268 7.388-12.032 7.388zm-5.753-10.06c-1.287 0-2.33 1.445-2.33 3.229s1.043 3.23 2.33 3.23c1.289 0 2.332-1.446 2.332-3.23s-1.044-3.23-2.332-3.23z"/>
</svg>
