<svg xmlns="http://www.w3.org/2000/svg" width="28" height="29" viewBox="0 0 28 29">
    <path fill="none" fill-rule="nonzero" stroke="#25CAF0" d="M8 27.093c0 .5-.43.907-.959.907H2.959c-.53 0-.959-.406-.959-.907V10.907c0-.5.43-.907.959-.907h4.082c.53 0 .959.406.959.907v16.186zM4.5 8a3.5 3.5 0 1 1 0-7 3.5 3.5 0 0 1 0 7zM27 27.178c0 .454-.36.822-.805.822h-3.997a.813.813 0 0 1-.804-.822V19.7c0-1.116.32-4.89-2.856-4.89-2.463 0-2.963 2.584-3.063 3.743v8.626c0 .454-.36.822-.805.822h-3.865a.813.813 0 0 1-.805-.822V11.09c0-.454.36-.821.805-.821h3.865c.445 0 .805.367.805.821v1.391c.913-1.4 2.27-2.48 5.161-2.48 6.4 0 6.364 6.106 6.364 9.461v7.717z"/>
</svg>
