<?xml version="1.0" encoding="UTF-8"?>
<svg width="34px" height="27px" viewBox="0 0 34 27" version="1.1" xmlns="http://www.w3.org/2000/svg" xmlns:xlink="http://www.w3.org/1999/xlink">
    <!-- Generator: Sketch 48.1 (47250) - http://www.bohemiancoding.com/sketch -->
    <title>medium</title>
    <desc>Created with Sketch.</desc>
    <defs></defs>
    <g id="meet-us---v2---desktop" stroke="none" stroke-width="1" fill="none" fill-rule="evenodd" transform="translate(-1139.000000, -1394.000000)">
        <path d="M1143.03175,1399.50794 C1143.07399,1399.09045 1142.91483,1398.67781 1142.60317,1398.39683 L1139.42857,1394.57143 L1139.42857,1394 L1149.28571,1394 L1156.90476,1410.71429 L1163.60317,1394 L1173,1394 L1173,1394.57143 L1170.28571,1397.1746 C1170.05171,1397.35302 1169.93564,1397.64627 1169.98413,1397.93651 L1169.98413,1417.06349 C1169.93564,1417.35373 1170.05171,1417.64698 1170.28571,1417.8254 L1172.93651,1420.42857 L1172.93651,1421 L1159.60317,1421 L1159.60317,1420.42857 L1162.34921,1417.7619 C1162.61905,1417.49206 1162.61905,1417.4127 1162.61905,1417 L1162.61905,1401.53968 L1154.98413,1420.93651 L1153.95238,1420.93651 L1145.06349,1401.53968 L1145.06349,1414.53968 C1144.98938,1415.08624 1145.17085,1415.6365 1145.55556,1416.03175 L1149.12698,1420.36508 L1149.12698,1420.93651 L1139,1420.93651 L1139,1420.36508 L1142.57143,1416.03175 C1142.95333,1415.63585 1143.12422,1415.08193 1143.03175,1414.53968 L1143.03175,1399.50794 Z" id="medium" fill="#009FC4" fill-rule="nonzero"></path>
    </g>
</svg>