<svg xmlns="http://www.w3.org/2000/svg" width="28" height="31" viewBox="0 0 28 31">
    <g fill="#009FC4" fill-rule="evenodd">
        <path d="M4 28.05c2.471 1.355 5.348 2.267 8.63 2.736 3.284.47 6.238.167 8.864-.907 2.213-1.283 3.85-2.942 4.912-4.977 1.592-3.054 1.605-4.807 1.592-6.993-.013-2.185-.723-4.66-2.922-6.973-2.2-2.313-4.16-2.787-5.68-2.895-1.522-.107-3.535-.05-5.21.724-1.676.774-4.355 1.857-5.883 5.27-1.528 3.412.193 8.402-.657 10.867C7.08 26.544 5.864 27.594 4 28.05z"/>
        <path d="M21.087 7.063c.43-.715.993-1.541 1.69-2.48.7-.937 1.44-1.648 2.223-2.132C21.23.767 17.603-.05 14.12.002 10.639.054 7.888.87 5.87 2.451 3.624 3.873 1.953 5.969.857 8.74c-1.644 4.157-.507 6.855 0 8.171.506 1.317.912 2.091 2.523 3.7C4.455 21.685 5.53 22.481 6.606 23a6.94 6.94 0 0 0 .124-.96c.046-.612-.265-2.597-.265-3.525 0-1.543-.066-2.538.265-4.22.332-1.682 1.177-2.774 2.198-3.854 1.02-1.08 1.727-1.767 4.094-2.818 2.366-1.05 3.535-1.03 5.296-1.008 1.174.016 2.097.165 2.769.448z"/>
    </g>
</svg>
