<svg xmlns="http://www.w3.org/2000/svg" width="424" height="284" viewBox="0 0 424 284">
    <defs>
        <linearGradient id="a" x1="88.983%" x2="22.902%" y1="9.05%" y2="87.332%">
            <stop offset="0%" stop-color="#57D8F1"/>
            <stop offset="100%" stop-color="#194AAD"/>
        </linearGradient>
    </defs>
    <g fill="none" fill-rule="evenodd">
        <path fill="url(#a)" fill-rule="nonzero" d="M210.5 217c36.727 0 66.5-29.773 66.5-66.5 0-36.727-29.773-66.5-66.5-66.5-36.727 0-66.5 29.773-66.5 66.5a.5.5 0 0 0 1 0c0-36.175 29.325-65.5 65.5-65.5s65.5 29.325 65.5 65.5-29.325 65.5-65.5 65.5a.5.5 0 0 0 0 1z"/>
        <path fill="url(#a)" fill-rule="nonzero" d="M210 97c-29.271 0-53 23.729-53 53s23.729 53 53 53 53-23.729 53-53a2 2 0 0 0-4 0c0 27.062-21.938 49-49 49s-49-21.938-49-49 21.938-49 49-49a2 2 0 0 0 0-4z"/>
        <circle cx="380" cy="102" r="6" fill="#D7297D"/>
        <circle cx="37" cy="75" r="6" fill="#CC9EF8" transform="matrix(-1 0 0 1 74 0)"/>
        <path fill="#3D3A44" d="M8.55 1.171V2.98l-4.747 9.865H1.374L6.44 3.197H0l.096-2.026H8.55zm5.873 2.54c0 1.855-.815 2.728-2.397 2.728-1.646 0-2.382-.888-2.382-2.727C9.644 1.81 10.348 1 12.042 1c1.566 0 2.38.732 2.38 2.712zm-1.375-.015c0-1.138-.32-1.45-1.006-1.45-.704 0-1.023.297-1.023 1.45s.32 1.45 1.023 1.45c.687 0 1.006-.297 1.006-1.45zm4.267-2.12l1.183.92-6.377 10.005-1.182-.904 6.376-10.02zM20 10.274C20 12.127 19.185 13 17.603 13c-1.646 0-2.397-.888-2.397-2.727 0-1.902.703-2.759 2.397-2.759 1.582 0 2.397.78 2.397 2.759zm-1.374 0c0-1.138-.32-1.434-1.023-1.434-.687 0-1.007.28-1.007 1.434 0 1.122.32 1.418 1.007 1.418.703 0 1.023-.28 1.023-1.418zM1.645 211.844v-1.558h1.95v-6.25l.033-1.246-.033-.032-1.112.67-1.257.733L1 202.384l3.514-2.244H5.82v10.146h1.902v1.558H1.645zm16.58-4.005c0 2.618-1.355 4.145-4.37 4.145-1.418 0-2.627-.311-3.642-.903l.403-1.715c.967.53 1.821.826 3.03.826 1.741 0 2.434-.732 2.434-2.182 0-1.278-.741-1.807-2.353-1.807-.935 0-1.918.187-2.612.483l-.79-.826.5-5.704h6.754l.081 1.901h-5.142l-.21 2.634a8.512 8.512 0 0 1 2.031-.25c2.515 0 3.885 1.123 3.885 3.398zm6.15-5.127c0 1.854-.823 2.727-2.419 2.727-1.66 0-2.402-.888-2.402-2.727 0-1.902.71-2.712 2.418-2.712 1.58 0 2.402.732 2.402 2.712zm-1.387-.016c0-1.138-.323-1.45-1.016-1.45-.71 0-1.031.297-1.031 1.45s.322 1.45 1.031 1.45c.693 0 1.016-.297 1.016-1.45zm4.304-2.12l1.193.92-6.432 10.005-1.193-.904 6.432-10.02zM30 209.274c0 1.854-.822 2.727-2.418 2.727-1.66 0-2.418-.888-2.418-2.727 0-1.902.71-2.759 2.418-2.759 1.596 0 2.418.78 2.418 2.759zm-1.386 0c0-1.138-.323-1.434-1.032-1.434-.693 0-1.016.28-1.016 1.434 0 1.122.323 1.418 1.016 1.418.71 0 1.032-.28 1.032-1.418zM8.55 69.171v1.808l-4.747 9.865H1.374l5.066-9.647H0l.096-2.026H8.55zm5.873 2.54c0 1.855-.815 2.728-2.397 2.728-1.646 0-2.382-.888-2.382-2.727 0-1.902.704-2.712 2.398-2.712 1.566 0 2.38.732 2.38 2.712zm-1.375-.015c0-1.138-.32-1.45-1.006-1.45-.704 0-1.023.297-1.023 1.45s.32 1.45 1.023 1.45c.687 0 1.006-.297 1.006-1.45zm4.267-2.12l1.183.92-6.377 10.005-1.182-.904 6.376-10.02zM20 78.274C20 80.127 19.185 81 17.603 81c-1.646 0-2.397-.888-2.397-2.727 0-1.902.703-2.759 2.397-2.759 1.582 0 2.397.78 2.397 2.759zm-1.374 0c0-1.138-.32-1.434-1.023-1.434-.687 0-1.007.28-1.007 1.434 0 1.122.32 1.418 1.007 1.418.703 0 1.023-.28 1.023-1.418zM0 144.494c0-1.154.685-2.167 1.816-2.79C1.004 141.19.43 140.41.43 139.07c0-1.886 1.179-3.054 3.887-3.054 2.676 0 3.855 1.137 3.855 3.07 0 1.106-.558 1.995-1.481 2.571v.031c1.067.468 1.911 1.247 1.911 2.821 0 2.307-1.465 3.475-4.285 3.475-2.979 0-4.317-1.2-4.317-3.49zm6.531.155c0-1.324-1.45-1.667-2.93-2.15-.877.452-1.562 1.075-1.562 2.01 0 1.231.67 1.792 2.326 1.792 1.306 0 2.166-.467 2.166-1.652zm-4.126-5.485c0 1.184 1.18 1.527 2.517 1.917.908-.484 1.354-1.013 1.354-1.824 0-1.028-.605-1.543-1.975-1.543-1.29 0-1.896.499-1.896 1.45zm12.035-.452c0 1.854-.812 2.727-2.389 2.727-1.64 0-2.374-.888-2.374-2.727 0-1.902.701-2.712 2.39-2.712 1.561 0 2.373.732 2.373 2.712zm-1.37-.016c0-1.138-.318-1.45-1.003-1.45-.701 0-1.02.297-1.02 1.45s.319 1.45 1.02 1.45c.685 0 1.003-.297 1.003-1.45zm4.254-2.12l1.179.92-6.356 10.005-1.18-.904 6.357-10.02zM20 145.274c0 1.854-.812 2.727-2.39 2.727-1.64 0-2.389-.888-2.389-2.727 0-1.902.7-2.759 2.39-2.759 1.577 0 2.389.78 2.389 2.759zm-1.37 0c0-1.138-.319-1.434-1.02-1.434-.684 0-1.003.28-1.003 1.434 0 1.122.319 1.418 1.004 1.418.7 0 1.019-.28 1.019-1.418zM8.516 277.486c0 4.613-1.64 6.498-4.919 6.498-1.21 0-2.021-.155-2.913-.545l.303-1.745a6.11 6.11 0 0 0 2.403.467c2.038 0 2.93-1.044 3.072-3.522l-.031-.031c-.7.514-1.592.748-2.627.748-2.594 0-3.804-1.403-3.804-3.538 0-2.337 1.305-3.802 4.123-3.802 2.785 0 4.393 1.792 4.393 5.47zm-2.101-.702c-.032-2.197-.924-2.96-2.324-2.96-1.353 0-2.054.623-2.054 1.916 0 1.247.637 1.933 2.165 1.933.923 0 1.72-.28 2.213-.889zm8.03-2.072c0 1.854-.812 2.727-2.388 2.727-1.64 0-2.371-.888-2.371-2.727 0-1.902.7-2.712 2.387-2.712 1.56 0 2.372.732 2.372 2.712zm-1.369-.016c0-1.138-.318-1.45-1.003-1.45-.7 0-1.018.297-1.018 1.45s.318 1.45 1.018 1.45c.685 0 1.003-.297 1.003-1.45zm4.25-2.12l1.178.92-6.351 10.005-1.178-.904 6.35-10.02zM20 281.274c0 1.854-.812 2.727-2.388 2.727-1.64 0-2.387-.888-2.387-2.727 0-1.902.7-2.759 2.387-2.759 1.576 0 2.388.78 2.388 2.759zm-1.369 0c0-1.138-.318-1.434-1.019-1.434-.684 0-1.002.28-1.002 1.434 0 1.122.318 1.418 1.002 1.418.7 0 1.02-.28 1.02-1.418z"/>
        <circle cx="37" cy="142" r="6" fill="#184AAA" transform="matrix(-1 0 0 1 74 0)"/>
        <circle cx="380" cy="187" r="6" fill="#FF8337"/>
        <path fill="#3D3A44" d="M412.55.171V1.98l-4.747 9.865h-2.429l5.066-9.647H404l.096-2.026h8.454zm5.873 2.54c0 1.855-.815 2.728-2.397 2.728-1.646 0-2.382-.888-2.382-2.727 0-1.902.704-2.712 2.398-2.712 1.566 0 2.38.732 2.38 2.712zm-1.375-.015c0-1.138-.32-1.45-1.006-1.45-.704 0-1.023.297-1.023 1.45s.32 1.45 1.023 1.45c.687 0 1.006-.297 1.006-1.45zm4.267-2.12l1.183.92-6.377 10.005-1.182-.904 6.376-10.02zM424 9.274c0 1.854-.815 2.727-2.397 2.727-1.646 0-2.397-.888-2.397-2.727 0-1.902.703-2.759 2.397-2.759 1.582 0 2.397.78 2.397 2.759zm-1.374 0c0-1.138-.32-1.434-1.023-1.434-.687 0-1.007.28-1.007 1.434 0 1.122.32 1.418 1.007 1.418.703 0 1.023-.28 1.023-1.418zM412.098 188.839c0 2.618-1.369 4.145-4.416 4.145-1.434 0-2.656-.311-3.682-.903l.407-1.715c.978.53 1.841.826 3.063.826 1.76 0 2.46-.732 2.46-2.182 0-1.278-.749-1.807-2.378-1.807-.945 0-1.939.187-2.64.483l-.798-.826.505-5.704h6.827l.081 1.901h-5.197l-.212 2.634a8.691 8.691 0 0 1 2.053-.25c2.542 0 3.927 1.123 3.927 3.398zm6.216-5.127c0 1.854-.831 2.727-2.444 2.727-1.679 0-2.428-.888-2.428-2.727 0-1.902.717-2.712 2.444-2.712 1.597 0 2.428.732 2.428 2.712zm-1.402-.016c0-1.138-.325-1.45-1.026-1.45-.717 0-1.043.297-1.043 1.45s.326 1.45 1.043 1.45c.7 0 1.026-.297 1.026-1.45zm4.35-2.12l1.206.92-6.5 10.005-1.206-.904 6.5-10.02zm2.738 8.697c0 1.854-.831 2.727-2.444 2.727-1.678 0-2.444-.888-2.444-2.727 0-1.902.717-2.759 2.444-2.759 1.613 0 2.444.78 2.444 2.759zm-1.401 0c0-1.138-.326-1.434-1.043-1.434-.7 0-1.026.28-1.026 1.434 0 1.122.325 1.418 1.026 1.418.717 0 1.043-.28 1.043-1.418zM402.24 103.327c0 2.21-1.423 3.642-4.589 3.642-1.55 0-2.762-.39-3.651-.903l.436-1.696a6.35 6.35 0 0 0 3.167.809c1.712 0 2.536-.778 2.536-1.93s-.824-1.759-3.522-1.759v-1.525c2.536 0 3.312-.623 3.312-1.681 0-.918-.792-1.416-2.246-1.416-1.26 0-2.261.404-3.134 1.058l-.533-1.665c.905-.7 2.278-1.23 3.797-1.23 2.6 0 4.12 1.136 4.12 3.097 0 1.246-.68 2.07-1.794 2.537v.031c1.34.405 2.1 1.23 2.1 2.63zm10.25-2.304c0 4.234-1.341 5.977-4.427 5.977-3.134 0-4.41-1.743-4.41-5.977 0-4.404 1.292-6.007 4.426-6.007 3.086 0 4.41 1.603 4.41 6.007zm-2.133-.03c0-3.41-.71-4.094-2.278-4.094-1.583 0-2.31.716-2.31 4.109 0 3.47.727 4.14 2.31 4.14 1.567 0 2.278-.7 2.278-4.156zm8.005-3.285c0 1.852-.824 2.724-2.423 2.724-1.664 0-2.407-.887-2.407-2.724 0-1.899.71-2.708 2.423-2.708 1.583 0 2.407.732 2.407 2.708zm-1.39-.015c0-1.137-.323-1.448-1.017-1.448-.711 0-1.034.296-1.034 1.448 0 1.151.323 1.447 1.034 1.447.694 0 1.018-.296 1.018-1.447zm4.314-2.117l1.195.918-6.445 9.992-1.196-.902 6.446-10.008zM424 104.26c0 1.852-.824 2.723-2.423 2.723-1.664 0-2.424-.887-2.424-2.723 0-1.9.711-2.755 2.424-2.755 1.6 0 2.423.778 2.423 2.755zm-1.39 0c0-1.136-.322-1.432-1.033-1.432-.695 0-1.018.28-1.018 1.432 0 1.12.323 1.416 1.018 1.416.71 0 1.034-.28 1.034-1.416zM395.645 282.844v-1.558h1.95v-6.25l.033-1.246-.033-.032-1.112.67-1.257.733-.226-1.777 3.514-2.244h1.306v10.146h1.902v1.558h-6.077zm16.499-8.493c0 2.244-2.096 4.145-5.078 6.545v.047h5.094l-.049 1.901h-7.915v-1.418c2.999-2.805 5.707-4.956 5.707-6.857 0-.935-.645-1.62-2.208-1.62-1.113 0-2.144.435-3.015 1.074l-.532-1.745c.967-.733 2.321-1.247 3.933-1.247 2.676 0 4.063 1.31 4.063 3.32zm6.23-.64c0 1.855-.822 2.728-2.418 2.728-1.66 0-2.402-.888-2.402-2.727 0-1.902.71-2.712 2.418-2.712 1.58 0 2.402.732 2.402 2.712zm-1.386-.015c0-1.138-.323-1.45-1.016-1.45-.71 0-1.031.297-1.031 1.45s.322 1.45 1.031 1.45c.693 0 1.016-.297 1.016-1.45zm4.304-2.12l1.193.92-6.432 10.005-1.193-.904 6.432-10.02zm2.708 8.697c0 1.854-.822 2.727-2.418 2.727-1.66 0-2.418-.888-2.418-2.727 0-1.902.71-2.759 2.418-2.759 1.596 0 2.418.78 2.418 2.759zm-1.386 0c0-1.138-.323-1.434-1.032-1.434-.693 0-1.016.28-1.016 1.434 0 1.122.323 1.418 1.016 1.418.71 0 1.032-.28 1.032-1.418z"/>
        <path fill="#FF8337" d="M316.14 220.853L346.572 187H381v.996h-33.754L316.706 222H283v-1.147z"/>
        <circle cx="37" cy="206" r="6" fill="#37BEDD" transform="matrix(-1 0 0 1 74 0)"/>
        <circle cx="380" cy="276" r="6" fill="#FFC15A"/>
        <circle cx="37" cy="276" r="6" fill="#48F0D5" transform="matrix(-1 0 0 1 74 0)"/>
        <path fill="#D7297D" fill-rule="nonzero" d="M307 103v-1h74v1h-74zm0-1h74v1h-74v-1z"/>
        <g fill-rule="nonzero">
            <path fill="#D7297D" d="M306.645 202.574l-10.536-5.743C303.874 182.585 308 166.598 308 150c0-54.124-43.876-98-98-98V40c60.751 0 110 49.249 110 110 0 18.617-4.635 36.577-13.355 52.574z"/>
            <path fill="#A1259E" d="M198.487 41.034l1.275 11.932a97.307 97.307 0 0 0-31.203 8.75l-5.118-10.854a109.307 109.307 0 0 1 35.046-9.828z"/>
            <path fill="#DB50EF" d="M153.282 55.85l6.158 10.3a98.492 98.492 0 0 0-22.961 18.987l-8.958-7.986a110.492 110.492 0 0 1 25.76-21.3z"/>
            <path fill="#CC9EF8" d="M120.986 85.469l9.702 7.062a97.66 97.66 0 0 0-13.979 27.43l-11.418-3.691a109.66 109.66 0 0 1 15.695-30.801z"/>
            <path fill="#184AAA" d="M102.106 128.832l11.77 2.336a98.504 98.504 0 0 0-1.876 19.19c0 3.984.237 7.938.708 11.847l-11.914 1.435a111.06 111.06 0 0 1-.794-13.283c0-7.287.71-14.486 2.106-21.525z"/>
            <path fill="#37BEDD" d="M103.184 177.473l11.632-2.946c5.871 23.185 20.115 43.4 39.806 56.85l-6.768 9.91c-22.094-15.091-38.077-37.776-44.67-63.814z"/>
            <path fill="#48F0D5" d="M157.114 246.26l5.772-10.52a97.315 97.315 0 0 0 36.705 11.475l-1.252 11.934a109.315 109.315 0 0 1-41.225-12.888z"/>
            <path fill="#FFC15A" d="M210 260.438v-12c19.622 0 38.37-5.772 54.335-16.428l6.662 9.98c-17.922 11.963-38.984 18.448-60.997 18.448z"/>
            <path fill="#FF8337" d="M281.922 233.255l-7.844-9.082a98.59 98.59 0 0 0 16.02-17.64l9.795 6.934a110.591 110.591 0 0 1-17.971 19.788z"/>
        </g>
        <path fill="#184AAA" fill-rule="nonzero" d="M103 141v1H36v-1z"/>
        <path fill="#37BEDD" fill-rule="nonzero" d="M109.999 206v1H36v-1h73.999zM120 207H36v-1h84v1z"/>
        <path fill="#A1259E" fill-rule="nonzero" d="M380 7.997V7H223.362L187 43.295l.706.705 36.07-36.003z"/>
        <path fill="#DB50EF" fill-rule="nonzero" d="M78.271 7.996H32V7h46.684L141 69.296l-.704.704z"/>
        <path fill="#CC9EF8" fill-rule="nonzero" d="M86.2 75.992H40V75h46.613L119 107.299l-.703.701z"/>
        <circle cx="380" cy="7" r="6" fill="#A1259E" transform="matrix(-1 0 0 1 760 0)"/>
        <circle cx="37" cy="7" r="6" fill="#DB50EF"/>
        <path fill="#FFC15A" fill-rule="nonzero" d="M378.144 274.853a.5.5 0 0 0 .71 0 .505.505 0 0 0-.001-.713l-27.1-27.14H247.503a.503.503 0 0 0 0 1.007h103.836l26.806 26.846z"/>
        <path fill="#48F0D5" fill-rule="nonzero" d="M71.491 240.5l-.354.145h.207l.147-.145zm117.508 14.084a.5.5 0 0 0 .501-.498.5.5 0 0 0-.5-.498H64.92L37.647 274.65a.496.496 0 0 0 0 .704.503.503 0 0 0 .708 0l26.98-20.77h123.664z"/>
    </g>
</svg>
