<?xml version="1.0" encoding="UTF-8"?>
<svg width="50px" height="58px" viewBox="0 0 50 58" version="1.1" xmlns="http://www.w3.org/2000/svg" xmlns:xlink="http://www.w3.org/1999/xlink">
    <!-- Generator: Sketch 48.1 (47250) - http://www.bohemiancoding.com/sketch -->
    <title>Billing errors-small</title>
    <desc>Created with Sketch.</desc>
    <defs>
        <linearGradient x1="86.9927813%" y1="0%" x2="0%" y2="100%" id="linearGradient-1">
            <stop stop-color="#2CBFDF" offset="0%"></stop>
            <stop stop-color="#2C9CDF" offset="100%"></stop>
        </linearGradient>
    </defs>
    <g id="Page-1" stroke="none" stroke-width="1" fill="none" fill-rule="evenodd">
        <g id="Billing-errors-small">
            <path d="M8.5,14 L30.5,14 C31.3284271,14 32,14.6715729 32,15.5 L32,15.5 C32,16.3284271 31.3284271,17 30.5,17 L8.5,17 C7.67157288,17 7,16.3284271 7,15.5 L7,15.5 C7,14.6715729 7.67157288,14 8.5,14 Z" id="Rectangle-4" fill="#2CA9DF"></path>
            <path d="M8.5,25 L23.5,25 C24.3284271,25 25,25.6715729 25,26.5 L25,26.5 C25,27.3284271 24.3284271,28 23.5,28 L8.5,28 C7.67157288,28 7,27.3284271 7,26.5 L7,26.5 C7,25.6715729 7.67157288,25 8.5,25 Z" id="Rectangle-4-Copy" fill="#2CA6DF"></path>
            <path d="M8.5,35 L16.5,35 C17.3284271,35 18,35.6715729 18,36.5 L18,36.5 C18,37.3284271 17.3284271,38 16.5,38 L8.5,38 C7.67157288,38 7,37.3284271 7,36.5 L7,36.5 C7,35.6715729 7.67157288,35 8.5,35 Z" id="Rectangle-4-Copy-2" fill="#2CA5DF"></path>
            <path d="M48.5,53.2972973 L48.5,22.8656973 C48.5,21.9512208 48.113518,21.0809679 47.4389205,20.4735801 L27.2661229,2.31058551 C26.6859675,1.78823066 25.936555,1.5 25.1605357,1.5 L4.66666667,1.5 C2.92035888,1.5 1.5,2.9313269 1.5,4.7027027 L1.5,53.2972973 C1.5,55.0686731 2.92035888,56.5 4.66666667,56.5 L45.3333333,56.5 C47.0796411,56.5 48.5,55.0686731 48.5,53.2972973 Z" id="Rectangle-3" stroke="url(#linearGradient-1)" stroke-width="3"></path>
            <g id="Group-25" transform="translate(23.000000, 30.000000)" fill="#F5A623">
                <path d="M11,22 C4.92486775,22 0,17.0751322 0,11 C0,4.92486775 4.92486775,0 11,0 C17.0751322,0 22,4.92486775 22,11 C22,17.0751322 17.0751322,22 11,22 Z M11,19.4857143 C15.6865306,19.4857143 19.4857143,15.6865306 19.4857143,11 C19.4857143,6.31346941 15.6865306,2.51428571 11,2.51428571 C6.31346941,2.51428571 2.51428571,6.31346941 2.51428571,11 C2.51428571,15.6865306 6.31346941,19.4857143 11,19.4857143 Z" id="Oval-10" fill-rule="nonzero"></path>
                <path d="M12.5507246,11.9377172 L10.3478261,11.9377172 L10.0191169,6.51172129 C9.97150966,5.72586868 10.5699758,5.05021593 11.3558284,5.00260864 C11.384529,5.00086995 11.4132757,5 11.442029,5 L11.442029,5 C12.2309658,5 12.8705254,5.63955962 12.8705254,6.4284964 C12.8705254,6.45631829 12.8697126,6.48413424 12.868088,6.51190865 L12.5507246,11.9377172 Z M13,14.6696361 C13,15.4917711 12.5507246,16 11.4927536,16 C10.4637681,16 10,15.6263023 10,14.6696361 C10,13.8176053 10.4637681,13.3243243 11.4927536,13.3243243 C12.5507246,13.3243243 13,13.8176053 13,14.6696361 Z" id="!"></path>
            </g>
        </g>
    </g>
</svg>