<?xml version="1.0" encoding="UTF-8"?>
<svg width="55px" height="60px" viewBox="0 0 55 60" version="1.1" xmlns="http://www.w3.org/2000/svg" xmlns:xlink="http://www.w3.org/1999/xlink">
    <!-- Generator: Sketch 48.1 (47250) - http://www.bohemiancoding.com/sketch -->
    <title>Non-conforming goods or services-small</title>
    <desc>Created with Sketch.</desc>
    <defs>
        <linearGradient x1="86.9927813%" y1="0%" x2="0%" y2="91.919436%" id="linearGradient-1">
            <stop stop-color="#2CBFDF" offset="0%"></stop>
            <stop stop-color="#2C9CDF" offset="100%"></stop>
        </linearGradient>
    </defs>
    <g id="Page-1" stroke="none" stroke-width="1" fill="none" fill-rule="evenodd">
        <g id="Non-conforming-goods-or-services-small" transform="translate(2.000000, 1.000000)">
            <path d="M28.4595387,1.75927737 L47.9595387,12.8165003 C49.8387113,13.8820609 51,15.8755472 51,18.035804 L51,32.4324391 C49.4669467,34.9454733 48.7004201,36.5335902 48.7004201,37.1967897 C48.7004201,37.4832712 48.8434517,38.0355328 49.129515,38.8535744 L49.1295186,38.8535731 C50.0870106,41.5916674 48.9486192,44.6226544 46.4253632,46.053434 L38.483945,50.5565126 C36.4911974,50.2168165 35.1952875,50.2168165 34.5962154,50.5565126 C33.9971432,50.8962087 33.7121157,51.7926589 33.7411328,53.245863 L28.4595387,56.2407226 C26.6238061,57.2816511 24.3761939,57.2816511 22.5404613,56.2407226 L3.04046132,45.1834997 C1.16128866,44.1179391 -6.97962128e-14,42.1244528 -5.95079541e-14,39.964196 L-1.81545903e-14,30.3315299 C1.05484364,27.6016413 1.58226546,25.9949514 1.58226546,25.5114603 C1.58226546,25.0279693 1.05484364,24.1564386 -8.88364621e-14,22.8968684 L-9.05941988e-14,18.035804 C-9.0858754e-14,15.8755472 1.16128866,13.8820609 3.04046132,12.8165003 L22.5404613,1.75927737 C24.3761939,0.718348928 26.6238061,0.718348928 28.4595387,1.75927737 Z" id="Polygon" stroke="url(#linearGradient-1)" stroke-width="3" stroke-linecap="round" stroke-linejoin="round"></path>
            <path d="M49,15 L40,20" id="Line-3" stroke="#2CBBDF" stroke-width="3" stroke-linecap="round" stroke-linejoin="round"></path>
            <path d="M24,48 L24,57" id="Line-3-Copy-2" stroke="#2CA3DF" stroke-width="3" stroke-linecap="round" stroke-linejoin="round"></path>
            <path d="M9,20 L1,16" id="Line-3-Copy" stroke="#2CAADF" stroke-width="3" stroke-linecap="round" stroke-linejoin="round"></path>
            <g id="Group-25" transform="translate(12.000000, 17.000000)" fill="#F5A623">
                <path d="M12,24 C5.372583,24 0,18.627417 0,12 C0,5.372583 5.372583,0 12,0 C18.627417,0 24,5.372583 24,12 C24,18.627417 18.627417,24 12,24 Z M12,21.2571429 C17.1125788,21.2571429 21.2571429,17.1125788 21.2571429,12 C21.2571429,6.88742117 17.1125788,2.74285714 12,2.74285714 C6.88742117,2.74285714 2.74285714,6.88742117 2.74285714,12 C2.74285714,17.1125788 6.88742117,21.2571429 12,21.2571429 Z" id="Oval-10" fill-rule="nonzero"></path>
                <path d="M13.0507246,12.8184188 L10.8478261,12.8184188 L10.5115097,6.76216294 C10.4676364,5.97210898 11.0725354,5.29607735 11.8625893,5.25220403 C11.8890437,5.25073496 11.9155338,5.25 11.942029,5.25 L11.942029,5.25 C12.7348146,5.25 13.3774943,5.89267972 13.3774943,6.68546533 C13.3774943,6.71109751 13.3768078,6.73672509 13.3754354,6.7623205 L13.0507246,12.8184188 Z M13.5,15.7986939 C13.5,16.6955685 13.0507246,17.25 11.9927536,17.25 C10.9637681,17.25 10.5,16.8423298 10.5,15.7986939 C10.5,14.8692058 10.9637681,14.3310811 11.9927536,14.3310811 C13.0507246,14.3310811 13.5,14.8692058 13.5,15.7986939 Z" id="!"></path>
            </g>
        </g>
    </g>
</svg>