<?xml version="1.0" encoding="UTF-8"?>
<svg width="68px" height="59px" viewBox="0 0 68 59" version="1.1" xmlns="http://www.w3.org/2000/svg" xmlns:xlink="http://www.w3.org/1999/xlink">
    <!-- Generator: Sketch 48.1 (47250) - http://www.bohemiancoding.com/sketch -->
    <title>Inadvertent transfers-small</title>
    <desc>Created with Sketch.</desc>
    <defs>
        <linearGradient x1="86.9927813%" y1="0%" x2="9.88412921%" y2="94.0396013%" id="linearGradient-1">
            <stop stop-color="#2CBFDF" offset="0%"></stop>
            <stop stop-color="#2C9CDF" offset="100%"></stop>
        </linearGradient>
    </defs>
    <g id="Page-1" stroke="none" stroke-width="1" fill="none" fill-rule="evenodd">
        <g id="Inadvertent-transfers-small">
            <path d="M23.39,30 L61.6815657,30" id="Line-5" stroke="#50E3C2" stroke-width="3" stroke-linecap="round"></path>
            <path id="Line-5-decoration-1" d="M61.6815657,30 L50.8815657,27 L50.8815657,33 L61.6815657,30 Z" stroke="#50E3C2" stroke-width="3" stroke-linecap="round"></path>
            <path d="M9.39,45 L47.6815657,45" id="Line-5-Copy-2" stroke="#F5A623" stroke-width="3" stroke-linecap="round"></path>
            <path id="Line-5-Copy-2-decoration-1" d="M47.6815657,45 L36.8815657,42 L36.8815657,48 L47.6815657,45 Z" stroke="#F5A623" stroke-width="3" stroke-linecap="round"></path>
            <path d="M15.39,15 L53.6815657,15" id="Line-5-Copy" stroke="#50E3C2" stroke-width="3" stroke-linecap="round"></path>
            <path id="Line-5-Copy-decoration-1" d="M53.6815657,15 L42.8815657,12 L42.8815657,18 L53.6815657,15 Z" stroke="#50E3C2" stroke-width="3" stroke-linecap="round"></path>
            <path d="M45,0.5 L45,3.5 L6,3.5 C4.61928813,3.5 3.5,4.61928813 3.5,6 L3.5,53 C3.5,54.3807119 4.61928813,55.5 6,55.5 L45,55.5 L45,58.5 L6,58.5 C2.96243388,58.5 0.5,56.0375661 0.5,53 L0.5,6 C0.5,2.96243388 2.96243388,0.5 6,0.5 L45,0.5 Z" id="Path-4" fill="url(#linearGradient-1)" fill-rule="nonzero"></path>
        </g>
    </g>
</svg>