<?xml version="1.0" encoding="UTF-8"?>
<svg width="54px" height="60px" viewBox="0 0 54 60" version="1.1" xmlns="http://www.w3.org/2000/svg" xmlns:xlink="http://www.w3.org/1999/xlink">
    <!-- Generator: Sketch 48.1 (47250) - http://www.bohemiancoding.com/sketch -->
    <title>Undelivered goods or services-small</title>
    <desc>Created with Sketch.</desc>
    <defs>
        <linearGradient x1="86.9927813%" y1="0%" x2="7.44826858%" y2="100%" id="linearGradient-1">
            <stop stop-color="#2CBFDF" offset="0%"></stop>
            <stop stop-color="#2C9CDF" offset="100%"></stop>
        </linearGradient>
    </defs>
    <g id="Page-1" stroke="none" stroke-width="1" fill="none" fill-rule="evenodd">
        <g id="Undelivered-goods-or-services-small" transform="translate(-2.000000, 1.000000)">
            <path d="M32,1.73205081 L51.1147367,12.7679492 C52.9711432,13.839746 54.1147367,15.8205081 54.1147367,17.9641016 L54.1147367,40.0358984 C54.1147367,42.1794919 52.9711432,44.160254 51.1147367,45.2320508 L32,56.2679492 C30.1435935,57.339746 27.8564065,57.339746 26,56.2679492 L6.88526329,45.2320508 C5.02885683,44.160254 3.88526329,42.1794919 3.88526329,40.0358984 L3.88526329,17.9641016 C3.88526329,15.8205081 5.02885683,13.839746 6.88526329,12.7679492 L26,1.73205081 C27.8564065,0.660254038 30.1435935,0.660254038 32,1.73205081 Z" id="Polygon" stroke="url(#linearGradient-1)" stroke-width="3" stroke-linecap="round" stroke-linejoin="round"></path>
            <path d="M52.7172356,15.1304348 L45.0565117,20.2655052" id="Line-3" stroke="#2CBADF" stroke-width="3" stroke-linecap="round" stroke-linejoin="round"></path>
            <path d="M28.5797101,48.2318841 L28.5797101,56.819293" id="Line-3-Copy-2" stroke="#2CA5DF" stroke-width="3" stroke-linecap="round" stroke-linejoin="round"></path>
            <path d="M12.950253,19.5159729 L5.59599911,15.6293674" id="Line-3-Copy" stroke="#2CABDF" stroke-width="3" stroke-linecap="round" stroke-linejoin="round"></path>
            <g id="Group-25" transform="translate(15.971014, 16.811594)" fill="#F5A623" fill-rule="nonzero">
                <path d="M12.6086957,25.2173913 C5.64510533,25.2173913 0,19.572286 0,12.6086957 C0,5.64510533 5.64510533,0 12.6086957,0 C19.572286,0 25.2173913,5.64510533 25.2173913,12.6086957 C25.2173913,19.572286 19.572286,25.2173913 12.6086957,25.2173913 Z M12.6086957,22.3354037 C17.9806082,22.3354037 22.3354037,17.9806082 22.3354037,12.6086957 C22.3354037,7.23678312 17.9806082,2.88198758 12.6086957,2.88198758 C7.23678312,2.88198758 2.88198758,7.23678312 2.88198758,12.6086957 C2.88198758,17.9806082 7.23678312,22.3354037 12.6086957,22.3354037 Z" id="Oval-10"></path>
                <path d="M10.8651495,13.5223336 C10.8651495,12.9785133 10.9839019,12.4948143 11.2243799,12.0783768 C11.4598296,11.6706468 11.8680835,11.2596712 12.4522411,10.830975 C12.9343699,10.4865973 13.2462243,10.2118953 13.3775051,10.0277102 C13.491676,9.86753017 13.5469599,9.69425224 13.5469599,9.49592391 C13.5469599,9.30827151 13.4914119,9.19370374 13.3696954,9.10748787 C13.2125902,8.99620505 12.9659396,8.93362206 12.6226506,8.93362206 C11.9574387,8.93362206 11.1778739,9.15700613 10.2870586,9.6116931 L9.90890243,9.80471032 L8.73614343,7.44843307 L9.08519905,7.25277409 C10.2459534,6.60212704 11.4814671,6.27561707 12.7851846,6.27561707 C13.8904801,6.27561707 14.7905694,6.54770514 15.47021,7.10148638 C16.1680882,7.67012785 16.5226449,8.44052272 16.5226449,9.37771739 C16.5226449,9.99533568 16.3791953,10.5404441 16.0893648,11.004173 C15.8085324,11.4535048 15.3039518,11.9315285 14.5791727,12.4491571 C14.1421647,12.772361 13.8689591,13.0152104 13.7776898,13.1476403 C13.7046186,13.2536653 13.6635247,13.4099832 13.6635247,13.6257643 L13.6635247,14.4893286 L10.8651495,14.4893286 L10.8651495,13.5223336 Z M10.6287364,17.4362828 C10.6287364,16.9157409 10.7786042,16.4927806 11.0911216,16.1941529 C11.3989234,15.9000312 11.8253818,15.7600487 12.349298,15.7600487 C12.8602004,15.7600487 13.28173,15.9043857 13.5908121,16.2032783 C13.9034332,16.5055932 14.0550838,16.9255487 14.0550838,17.4362828 C14.0550838,17.9320575 13.901766,18.3470155 13.5905116,18.6548867 C13.279509,18.9625088 12.857508,19.112517 12.349298,19.112517 C11.8334627,19.112517 11.4082199,18.9669531 11.0966461,18.6655394 C10.7822422,18.3613877 10.6287364,17.9425839 10.6287364,17.4362828 Z" id="?"></path>
            </g>
        </g>
    </g>
</svg>