<?xml version="1.0" encoding="UTF-8"?>
<svg width="1153px" height="500px" viewBox="0 0 1153 500" version="1.1" xmlns="http://www.w3.org/2000/svg" xmlns:xlink="http://www.w3.org/1999/xlink">
    <!-- Generator: Sketch 48.1 (47250) - http://www.bohemiancoding.com/sketch -->
    <title>2018 copy</title>
    <desc>Created with Sketch.</desc>
    <defs>
        <linearGradient x1="2.32197915%" y1="-0.00304999752%" x2="90.0961202%" y2="-0.00304999752%" id="linearGradient-1">
            <stop stop-color="#4DFFD9" offset="0%"></stop>
            <stop stop-color="#2CBEDF" offset="51.5106824%"></stop>
            <stop stop-color="#B795F2" offset="100%"></stop>
        </linearGradient>
        <linearGradient x1="3.34953618%" y1="-0.0030499975%" x2="96.9835662%" y2="-0.00304999749%" id="linearGradient-2">
            <stop stop-color="#2CBEDF" offset="0%"></stop>
            <stop stop-color="#CF9EFD" offset="100%"></stop>
        </linearGradient>
        <linearGradient x1="-6.25277607e-10%" y1="99.9960833%" x2="-6.25277607e-10%" y2="7.38665471%" id="linearGradient-3">
            <stop stop-color="#2CBEDF" offset="0%"></stop>
            <stop stop-color="#29B0D5" stop-opacity="0" offset="100%"></stop>
        </linearGradient>
        <linearGradient x1="-6.25277607e-10%" y1="99.9960833%" x2="-6.25277607e-10%" y2="7.38665471%" id="linearGradient-4">
            <stop stop-color="#41E7DB" offset="0%"></stop>
            <stop stop-color="#41E7DB" stop-opacity="0" offset="100%"></stop>
        </linearGradient>
        <linearGradient x1="-6.25277607e-10%" y1="99.8152055%" x2="-6.25277607e-10%" y2="7.38665471%" id="linearGradient-5">
            <stop stop-color="#41B8E2" offset="0%"></stop>
            <stop stop-color="#60AEE6" stop-opacity="0" offset="100%"></stop>
        </linearGradient>
        <linearGradient x1="-6.25277607e-10%" y1="99.9960833%" x2="-6.25277607e-10%" y2="7.38665471%" id="linearGradient-6">
            <stop stop-color="#60AEE6" offset="0%"></stop>
            <stop stop-color="#60AEE6" stop-opacity="0" offset="100%"></stop>
        </linearGradient>
        <linearGradient x1="-6.25182106e-10%" y1="98.7380349%" x2="-6.25182111e-10%" y2="10.4220031%" id="linearGradient-7">
            <stop stop-color="#CF9EFD" offset="0%"></stop>
            <stop stop-color="#CF9EFD" stop-opacity="0" offset="100%"></stop>
        </linearGradient>
        <linearGradient x1="-6.25182106e-10%" y1="98.7380349%" x2="-6.25182111e-10%" y2="10.4220031%" id="linearGradient-8">
            <stop stop-color="#5FEDDF" offset="0%"></stop>
            <stop stop-color="#5FEDDF" stop-opacity="0" offset="100%"></stop>
        </linearGradient>
        <linearGradient x1="70.4017152%" y1="2069.54041%" x2="43.2151472%" y2="-621.62323%" id="linearGradient-9">
            <stop stop-color="#4DFFD9" offset="0%"></stop>
            <stop stop-color="#CF9EFD" offset="100%"></stop>
        </linearGradient>
    </defs>
    <g id="Page-1" stroke="none" stroke-width="1" fill="none" fill-rule="evenodd">
        <g id="2018-copy">
            <g id="2018-updated-01" transform="translate(0.000000, 217.000000)">
                <path d="M35.994,33.5 L38.598,33.5 L41.034,39.632 L41.426,40.682 L41.468,40.682 L41.86,39.632 L44.31,33.5 L46.914,33.5 L46.914,44 L44.758,44 L44.758,38.652 L44.786,37.518 L44.744,37.504 L44.352,38.568 L42.196,44 L40.628,44 L38.486,38.582 L38.094,37.518 L38.066,37.532 L38.08,38.666 L38.08,44 L35.994,44 L35.994,33.5 Z M53.60096,44 L53.43296,43.188 L53.39096,43.174 C52.87296,43.79 52.06096,44.14 51.09496,44.14 C49.48496,44.14 48.46296,43.23 48.46296,41.326 C48.46296,39.758 49.55496,38.68 51.48696,38.68 C52.11696,38.68 52.66296,38.778 53.11096,38.918 L53.11096,38.428 C53.11096,37.574 52.66296,37.182 51.50096,37.182 C50.56296,37.182 49.94696,37.322 49.16296,37.644 L48.98096,35.908 C49.83496,35.544 50.80096,35.348 51.89296,35.348 C54.39896,35.348 55.26696,36.426 55.26696,38.75 L55.26696,44 L53.60096,44 Z M53.11096,41.424 L53.11096,40.36 C52.90096,40.276 52.48096,40.178 51.90696,40.178 C50.94096,40.178 50.49296,40.556 50.49296,41.298 C50.49296,42.124 50.98296,42.418 51.69696,42.418 C52.43896,42.418 53.11096,41.97 53.11096,41.424 Z M58.59392,44.728 C59.18192,44.728 59.61592,44.56 59.89592,43.916 L59.93792,43.804 L56.28392,35.516 L58.76192,35.516 L60.60992,40.696 L60.97392,41.76 L61.01592,41.76 L61.28192,40.668 L62.66792,35.516 L64.97792,35.516 L62.06592,43.93 C61.43592,45.652 60.44192,46.352 58.98592,46.352 C58.46792,46.352 57.96392,46.268 57.54392,46.086 L57.71192,44.546 C58.01992,44.672 58.29992,44.728 58.59392,44.728 Z M69.67184,38.428 L73.67584,38.428 L73.67584,39.996 L69.67184,39.996 L69.67184,38.428 Z M84.85176,33.5 L84.85176,40.15 C84.85176,43.09 83.26976,44.196 80.67976,44.196 C79.81176,44.196 79.12576,44.028 78.59376,43.748 L78.71976,41.76 C79.09776,41.984 79.64376,42.124 80.31576,42.124 C81.71576,42.124 82.44376,41.522 82.44376,40.108 L82.44376,33.5 L84.85176,33.5 Z M93.77872,35.516 L93.77872,41.004 C93.77872,43.062 92.61672,44.154 90.20872,44.154 C87.80072,44.154 86.63872,43.02 86.63872,41.004 L86.63872,35.516 L88.80872,35.516 L88.80872,40.962 C88.80872,41.802 89.25672,42.236 90.20872,42.236 C91.16072,42.236 91.60872,41.83 91.60872,40.962 L91.60872,35.516 L93.77872,35.516 Z M97.80568,44 L95.60768,44 L95.60768,33.094 L97.80568,32.996 L97.80568,44 Z M101.98664,42.95 C101.98664,43.706 101.62264,44.168 100.74064,44.168 C99.85864,44.168 99.48064,43.832 99.48064,42.95 C99.48064,42.18 99.85864,41.746 100.74064,41.746 C101.62264,41.746 101.98664,42.18 101.98664,42.95 Z M114.43656,36.454 C114.43656,38.358 112.77056,39.94 110.39056,41.928 L110.39056,41.97 L114.42256,41.97 L114.38056,44 L107.40856,44 L107.40856,42.488 C109.92856,39.996 112.05656,38.232 112.05656,36.678 C112.05656,35.95 111.58056,35.432 110.40456,35.432 C109.48056,35.432 108.64056,35.81 107.87056,36.356 L107.32456,34.48 C108.19256,33.822 109.39656,33.374 110.82456,33.374 C113.23256,33.374 114.43656,34.62 114.43656,36.454 Z M123.72752,38.792 C123.72752,42.558 122.53752,44.14 119.80752,44.14 C117.06352,44.14 115.92952,42.558 115.92952,38.792 C115.92952,34.844 117.06352,33.374 119.83552,33.374 C122.55152,33.374 123.72752,34.844 123.72752,38.792 Z M121.47352,38.764 C121.47352,35.894 120.95552,35.39 119.83552,35.39 C118.68752,35.39 118.16952,35.936 118.16952,38.764 C118.16952,41.704 118.68752,42.18 119.83552,42.18 C120.95552,42.18 121.47352,41.648 121.47352,38.764 Z M126.60648,44 L126.60648,42.348 L128.16048,42.348 L128.16048,36.286 L126.24248,37.392 L126.00448,35.488 L129.12648,33.5 L130.51248,33.5 L130.51248,42.348 L132.03848,42.348 L132.03848,44 L126.60648,44 Z M133.92344,40.92 C133.92344,39.968 134.44144,39.072 135.36544,38.512 C134.73544,38.022 134.30144,37.322 134.30144,36.174 C134.30144,34.452 135.37944,33.374 137.81544,33.374 C140.25144,33.374 141.30144,34.438 141.30144,36.188 C141.30144,37.126 140.86744,37.896 140.16744,38.428 C141.00744,38.876 141.66544,39.576 141.66544,40.934 C141.66544,43.048 140.36344,44.126 137.81544,44.126 C135.14144,44.126 133.92344,43.006 133.92344,40.92 Z M139.45344,41.102 C139.45344,40.094 138.36144,39.8 137.18544,39.394 C136.58344,39.758 136.12144,40.262 136.12144,40.934 C136.12144,41.928 136.63944,42.334 137.87144,42.334 C138.82344,42.334 139.45344,41.998 139.45344,41.102 Z M136.42944,36.286 C136.42944,37.182 137.31144,37.476 138.36144,37.784 C138.96344,37.406 139.27144,36.972 139.27144,36.37 C139.27144,35.586 138.82344,35.194 137.80144,35.194 C136.86344,35.194 136.42944,35.544 136.42944,36.286 Z" id="May---Jul.-2018" fill="#2A5C96"></path>
                <path d="M622.856,38.75 C622.856,42.558 621.526,44.196 618.236,44.196 C615.002,44.196 613.602,42.488 613.602,38.75 C613.602,35.012 614.96,33.332 618.236,33.332 C621.526,33.332 622.856,35.012 622.856,38.75 Z M620.392,38.75 C620.392,36.09 619.846,35.446 618.236,35.446 C616.64,35.446 616.08,36.09 616.08,38.75 C616.08,41.41 616.654,42.082 618.25,42.082 C619.832,42.082 620.392,41.396 620.392,38.75 Z M629.89296,35.74 L629.76696,37.588 C629.33296,37.434 628.81496,37.322 628.32496,37.322 C626.74296,37.322 626.22496,37.98 626.22496,39.772 C626.22496,41.592 626.96696,42.306 628.28296,42.306 C628.84296,42.306 629.37496,42.194 629.82296,41.984 L629.97696,43.678 C629.47296,43.986 628.71696,44.168 627.80696,44.168 C625.30096,44.168 623.97096,42.74 623.97096,39.772 C623.97096,36.958 625.13296,35.376 627.84896,35.376 C628.56296,35.376 629.36096,35.53 629.89296,35.74 Z M635.68392,37.14 L633.79392,37.14 L633.79392,41.48 C633.79392,42.138 634.12992,42.418 634.80192,42.418 C635.02592,42.418 635.31992,42.376 635.47392,42.32 L635.59992,43.902 C635.30592,44.028 634.74592,44.14 634.14392,44.14 C632.44992,44.14 631.62392,43.16 631.62392,41.55 L631.62392,37.14 L630.67192,37.14 L630.67192,35.516 L631.72192,35.516 L632.08592,33.598 L633.79392,33.444 L633.79392,35.516 L635.68392,35.516 L635.68392,37.14 Z M639.15088,42.95 C639.15088,43.706 638.78688,44.168 637.90488,44.168 C637.02288,44.168 636.64488,43.832 636.64488,42.95 C636.64488,42.18 637.02288,41.746 637.90488,41.746 C638.78688,41.746 639.15088,42.18 639.15088,42.95 Z M651.6008,36.454 C651.6008,38.358 649.9348,39.94 647.5548,41.928 L647.5548,41.97 L651.5868,41.97 L651.5448,44 L644.5728,44 L644.5728,42.488 C647.0928,39.996 649.2208,38.232 649.2208,36.678 C649.2208,35.95 648.7448,35.432 647.5688,35.432 C646.6448,35.432 645.8048,35.81 645.0348,36.356 L644.4888,34.48 C645.3568,33.822 646.5608,33.374 647.9888,33.374 C650.3968,33.374 651.6008,34.62 651.6008,36.454 Z M660.89176,38.792 C660.89176,42.558 659.70176,44.14 656.97176,44.14 C654.22776,44.14 653.09376,42.558 653.09376,38.792 C653.09376,34.844 654.22776,33.374 656.99976,33.374 C659.71576,33.374 660.89176,34.844 660.89176,38.792 Z M658.63776,38.764 C658.63776,35.894 658.11976,35.39 656.99976,35.39 C655.85176,35.39 655.33376,35.936 655.33376,38.764 C655.33376,41.704 655.85176,42.18 656.99976,42.18 C658.11976,42.18 658.63776,41.648 658.63776,38.764 Z M663.77072,44 L663.77072,42.348 L665.32472,42.348 L665.32472,36.286 L663.40672,37.392 L663.16872,35.488 L666.29072,33.5 L667.67672,33.5 L667.67672,42.348 L669.20272,42.348 L669.20272,44 L663.77072,44 Z M671.08768,40.92 C671.08768,39.968 671.60568,39.072 672.52968,38.512 C671.89968,38.022 671.46568,37.322 671.46568,36.174 C671.46568,34.452 672.54368,33.374 674.97968,33.374 C677.41568,33.374 678.46568,34.438 678.46568,36.188 C678.46568,37.126 678.03168,37.896 677.33168,38.428 C678.17168,38.876 678.82968,39.576 678.82968,40.934 C678.82968,43.048 677.52768,44.126 674.97968,44.126 C672.30568,44.126 671.08768,43.006 671.08768,40.92 Z M676.61768,41.102 C676.61768,40.094 675.52568,39.8 674.34968,39.394 C673.74768,39.758 673.28568,40.262 673.28568,40.934 C673.28568,41.928 673.80368,42.334 675.03568,42.334 C675.98768,42.334 676.61768,41.998 676.61768,41.102 Z M673.59368,36.286 C673.59368,37.182 674.47568,37.476 675.52568,37.784 C676.12768,37.406 676.43568,36.972 676.43568,36.37 C676.43568,35.586 675.98768,35.194 674.96568,35.194 C674.02768,35.194 673.59368,35.544 673.59368,36.286 Z" id="Oct.-2018" fill="#2A5C96"></path>
                <path d="M816.464,44 L814.812,44 L810.738,38.274 L810.108,37.336 L810.08,37.35 L810.094,38.484 L810.094,44 L807.994,44 L807.994,33.5 L810.01,33.5 L813.748,38.918 L814.378,39.856 L814.406,39.842 L814.378,38.722 L814.378,33.5 L816.464,33.5 L816.464,44 Z M825.72696,39.786 C825.72696,42.908 824.55096,44.196 821.84896,44.196 C819.16096,44.196 817.95696,42.908 817.95696,39.786 C817.95696,36.678 819.16096,35.362 821.84896,35.362 C824.55096,35.362 825.72696,36.678 825.72696,39.786 Z M820.21096,39.786 C820.21096,41.872 820.65896,42.418 821.84896,42.418 C823.03896,42.418 823.47296,41.858 823.47296,39.786 C823.47296,37.714 823.03896,37.154 821.84896,37.154 C820.64496,37.154 820.21096,37.714 820.21096,39.786 Z M832.46992,35.516 L834.84992,35.516 L831.76992,44 L829.24992,44 L826.16992,35.516 L828.54992,35.516 L830.17392,40.948 L830.48192,42.04 L830.52392,42.04 L830.81792,40.948 L832.46992,35.516 Z M837.40688,42.95 C837.40688,43.706 837.04288,44.168 836.16088,44.168 C835.27888,44.168 834.90088,43.832 834.90088,42.95 C834.90088,42.18 835.27888,41.746 836.16088,41.746 C837.04288,41.746 837.40688,42.18 837.40688,42.95 Z M849.8568,36.454 C849.8568,38.358 848.1908,39.94 845.8108,41.928 L845.8108,41.97 L849.8428,41.97 L849.8008,44 L842.8288,44 L842.8288,42.488 C845.3488,39.996 847.4768,38.232 847.4768,36.678 C847.4768,35.95 847.0008,35.432 845.8248,35.432 C844.9008,35.432 844.0608,35.81 843.2908,36.356 L842.7448,34.48 C843.6128,33.822 844.8168,33.374 846.2448,33.374 C848.6528,33.374 849.8568,34.62 849.8568,36.454 Z M859.14776,38.792 C859.14776,42.558 857.95776,44.14 855.22776,44.14 C852.48376,44.14 851.34976,42.558 851.34976,38.792 C851.34976,34.844 852.48376,33.374 855.25576,33.374 C857.97176,33.374 859.14776,34.844 859.14776,38.792 Z M856.89376,38.764 C856.89376,35.894 856.37576,35.39 855.25576,35.39 C854.10776,35.39 853.58976,35.936 853.58976,38.764 C853.58976,41.704 854.10776,42.18 855.25576,42.18 C856.37576,42.18 856.89376,41.648 856.89376,38.764 Z M862.02672,44 L862.02672,42.348 L863.58072,42.348 L863.58072,36.286 L861.66272,37.392 L861.42472,35.488 L864.54672,33.5 L865.93272,33.5 L865.93272,42.348 L867.45872,42.348 L867.45872,44 L862.02672,44 Z M869.34368,40.92 C869.34368,39.968 869.86168,39.072 870.78568,38.512 C870.15568,38.022 869.72168,37.322 869.72168,36.174 C869.72168,34.452 870.79968,33.374 873.23568,33.374 C875.67168,33.374 876.72168,34.438 876.72168,36.188 C876.72168,37.126 876.28768,37.896 875.58768,38.428 C876.42768,38.876 877.08568,39.576 877.08568,40.934 C877.08568,43.048 875.78368,44.126 873.23568,44.126 C870.56168,44.126 869.34368,43.006 869.34368,40.92 Z M874.87368,41.102 C874.87368,40.094 873.78168,39.8 872.60568,39.394 C872.00368,39.758 871.54168,40.262 871.54168,40.934 C871.54168,41.928 872.05968,42.334 873.29168,42.334 C874.24368,42.334 874.87368,41.998 874.87368,41.102 Z M871.84968,36.286 C871.84968,37.182 872.73168,37.476 873.78168,37.784 C874.38368,37.406 874.69168,36.972 874.69168,36.37 C874.69168,35.586 874.24368,35.194 873.22168,35.194 C872.28368,35.194 871.84968,35.544 871.84968,36.286 Z" id="Nov.-2018" fill="#2A5C96"></path>
                <path d="M1006.646,38.708 C1006.646,42.502 1005.064,44 1001.956,44 L997.994,44 L997.994,33.5 L1001.928,33.5 C1005.26,33.5 1006.646,35.082 1006.646,38.708 Z M1004.168,38.694 C1004.168,36.202 1003.566,35.614 1001.9,35.614 L1000.36,35.614 L1000.36,41.9 L1001.914,41.9 C1003.524,41.9 1004.168,41.382 1004.168,38.694 Z M1011.97496,44.154 C1009.04896,44.154 1007.74696,42.614 1007.74696,39.646 C1007.74696,36.944 1008.93696,35.362 1011.48496,35.362 C1013.65496,35.362 1014.98496,36.622 1014.98496,39.31 C1014.98496,39.632 1014.97096,40.038 1014.92896,40.332 L1009.98696,40.332 C1010.09896,41.746 1010.78496,42.278 1012.24096,42.278 C1013.03896,42.278 1013.78096,42.138 1014.50896,41.858 L1014.74696,43.608 C1014.03296,43.93 1013.05296,44.154 1011.97496,44.154 Z M1009.94496,38.89 L1012.99696,38.89 C1012.96896,37.644 1012.40896,37.168 1011.49896,37.168 C1010.44896,37.168 1010.04296,37.658 1009.94496,38.89 Z M1021.88192,35.74 L1021.75592,37.588 C1021.32192,37.434 1020.80392,37.322 1020.31392,37.322 C1018.73192,37.322 1018.21392,37.98 1018.21392,39.772 C1018.21392,41.592 1018.95592,42.306 1020.27192,42.306 C1020.83192,42.306 1021.36392,42.194 1021.81192,41.984 L1021.96592,43.678 C1021.46192,43.986 1020.70592,44.168 1019.79592,44.168 C1017.28992,44.168 1015.95992,42.74 1015.95992,39.772 C1015.95992,36.958 1017.12192,35.376 1019.83792,35.376 C1020.55192,35.376 1021.34992,35.53 1021.88192,35.74 Z M1025.51688,42.95 C1025.51688,43.706 1025.15288,44.168 1024.27088,44.168 C1023.38888,44.168 1023.01088,43.832 1023.01088,42.95 C1023.01088,42.18 1023.38888,41.746 1024.27088,41.746 C1025.15288,41.746 1025.51688,42.18 1025.51688,42.95 Z M1037.9668,36.454 C1037.9668,38.358 1036.3008,39.94 1033.9208,41.928 L1033.9208,41.97 L1037.9528,41.97 L1037.9108,44 L1030.9388,44 L1030.9388,42.488 C1033.4588,39.996 1035.5868,38.232 1035.5868,36.678 C1035.5868,35.95 1035.1108,35.432 1033.9348,35.432 C1033.0108,35.432 1032.1708,35.81 1031.4008,36.356 L1030.8548,34.48 C1031.7228,33.822 1032.9268,33.374 1034.3548,33.374 C1036.7628,33.374 1037.9668,34.62 1037.9668,36.454 Z M1047.25776,38.792 C1047.25776,42.558 1046.06776,44.14 1043.33776,44.14 C1040.59376,44.14 1039.45976,42.558 1039.45976,38.792 C1039.45976,34.844 1040.59376,33.374 1043.36576,33.374 C1046.08176,33.374 1047.25776,34.844 1047.25776,38.792 Z M1045.00376,38.764 C1045.00376,35.894 1044.48576,35.39 1043.36576,35.39 C1042.21776,35.39 1041.69976,35.936 1041.69976,38.764 C1041.69976,41.704 1042.21776,42.18 1043.36576,42.18 C1044.48576,42.18 1045.00376,41.648 1045.00376,38.764 Z M1050.13672,44 L1050.13672,42.348 L1051.69072,42.348 L1051.69072,36.286 L1049.77272,37.392 L1049.53472,35.488 L1052.65672,33.5 L1054.04272,33.5 L1054.04272,42.348 L1055.56872,42.348 L1055.56872,44 L1050.13672,44 Z M1057.45368,40.92 C1057.45368,39.968 1057.97168,39.072 1058.89568,38.512 C1058.26568,38.022 1057.83168,37.322 1057.83168,36.174 C1057.83168,34.452 1058.90968,33.374 1061.34568,33.374 C1063.78168,33.374 1064.83168,34.438 1064.83168,36.188 C1064.83168,37.126 1064.39768,37.896 1063.69768,38.428 C1064.53768,38.876 1065.19568,39.576 1065.19568,40.934 C1065.19568,43.048 1063.89368,44.126 1061.34568,44.126 C1058.67168,44.126 1057.45368,43.006 1057.45368,40.92 Z M1062.98368,41.102 C1062.98368,40.094 1061.89168,39.8 1060.71568,39.394 C1060.11368,39.758 1059.65168,40.262 1059.65168,40.934 C1059.65168,41.928 1060.16968,42.334 1061.40168,42.334 C1062.35368,42.334 1062.98368,41.998 1062.98368,41.102 Z M1059.95968,36.286 C1059.95968,37.182 1060.84168,37.476 1061.89168,37.784 C1062.49368,37.406 1062.80168,36.972 1062.80168,36.37 C1062.80168,35.586 1062.35368,35.194 1061.33168,35.194 C1060.39368,35.194 1059.95968,35.544 1059.95968,36.286 Z" id="Dec.-2018" fill="#2A5C96"></path>
                <path d="M425.686,40.85 C425.686,42.922 424.244,44.196 421.794,44.196 C420.576,44.196 419.456,43.902 418.546,43.412 L418.854,41.382 C419.778,41.872 420.73,42.152 421.766,42.152 C422.914,42.152 423.418,41.732 423.418,41.004 C423.418,39.352 418.588,40.052 418.588,36.538 C418.588,34.76 419.736,33.318 422.396,33.318 C423.418,33.318 424.524,33.528 425.336,33.864 L425.042,35.852 C424.174,35.572 423.306,35.404 422.508,35.404 C421.206,35.404 420.856,35.852 420.856,36.412 C420.856,38.05 425.686,37.294 425.686,40.85 Z M430.81896,44.154 C427.89296,44.154 426.59096,42.614 426.59096,39.646 C426.59096,36.944 427.78096,35.362 430.32896,35.362 C432.49896,35.362 433.82896,36.622 433.82896,39.31 C433.82896,39.632 433.81496,40.038 433.77296,40.332 L428.83096,40.332 C428.94296,41.746 429.62896,42.278 431.08496,42.278 C431.88296,42.278 432.62496,42.138 433.35296,41.858 L433.59096,43.608 C432.87696,43.93 431.89696,44.154 430.81896,44.154 Z M428.78896,38.89 L431.84096,38.89 C431.81296,37.644 431.25296,37.168 430.34296,37.168 C429.29296,37.168 428.88696,37.658 428.78896,38.89 Z M442.65792,39.744 C442.65792,42.726 441.35592,44.14 439.36792,44.14 C438.61192,44.14 437.93992,43.986 437.39392,43.454 L437.35192,43.468 L437.37992,44.602 L437.37992,46.156 L435.18192,46.156 L435.18192,35.572 L436.70792,35.474 L437.12792,36.216 C437.71592,35.67 438.54192,35.362 439.42392,35.362 C441.50992,35.362 442.65792,36.496 442.65792,39.744 Z M440.40392,39.73 C440.40392,37.784 439.92792,37.294 438.83592,37.294 C438.20592,37.294 437.68792,37.546 437.37992,37.98 L437.37992,41.62 C437.64592,42.026 438.10792,42.348 438.79392,42.348 C439.75992,42.348 440.40392,41.886 440.40392,39.73 Z M446.06888,42.95 C446.06888,43.706 445.70488,44.168 444.82288,44.168 C443.94088,44.168 443.56288,43.832 443.56288,42.95 C443.56288,42.18 443.94088,41.746 444.82288,41.746 C445.70488,41.746 446.06888,42.18 446.06888,42.95 Z M458.5188,36.454 C458.5188,38.358 456.8528,39.94 454.4728,41.928 L454.4728,41.97 L458.5048,41.97 L458.4628,44 L451.4908,44 L451.4908,42.488 C454.0108,39.996 456.1388,38.232 456.1388,36.678 C456.1388,35.95 455.6628,35.432 454.4868,35.432 C453.5628,35.432 452.7228,35.81 451.9528,36.356 L451.4068,34.48 C452.2748,33.822 453.4788,33.374 454.9068,33.374 C457.3148,33.374 458.5188,34.62 458.5188,36.454 Z M467.80976,38.792 C467.80976,42.558 466.61976,44.14 463.88976,44.14 C461.14576,44.14 460.01176,42.558 460.01176,38.792 C460.01176,34.844 461.14576,33.374 463.91776,33.374 C466.63376,33.374 467.80976,34.844 467.80976,38.792 Z M465.55576,38.764 C465.55576,35.894 465.03776,35.39 463.91776,35.39 C462.76976,35.39 462.25176,35.936 462.25176,38.764 C462.25176,41.704 462.76976,42.18 463.91776,42.18 C465.03776,42.18 465.55576,41.648 465.55576,38.764 Z M470.68872,44 L470.68872,42.348 L472.24272,42.348 L472.24272,36.286 L470.32472,37.392 L470.08672,35.488 L473.20872,33.5 L474.59472,33.5 L474.59472,42.348 L476.12072,42.348 L476.12072,44 L470.68872,44 Z M478.00568,40.92 C478.00568,39.968 478.52368,39.072 479.44768,38.512 C478.81768,38.022 478.38368,37.322 478.38368,36.174 C478.38368,34.452 479.46168,33.374 481.89768,33.374 C484.33368,33.374 485.38368,34.438 485.38368,36.188 C485.38368,37.126 484.94968,37.896 484.24968,38.428 C485.08968,38.876 485.74768,39.576 485.74768,40.934 C485.74768,43.048 484.44568,44.126 481.89768,44.126 C479.22368,44.126 478.00568,43.006 478.00568,40.92 Z M483.53568,41.102 C483.53568,40.094 482.44368,39.8 481.26768,39.394 C480.66568,39.758 480.20368,40.262 480.20368,40.934 C480.20368,41.928 480.72168,42.334 481.95368,42.334 C482.90568,42.334 483.53568,41.998 483.53568,41.102 Z M480.51168,36.286 C480.51168,37.182 481.39368,37.476 482.44368,37.784 C483.04568,37.406 483.35368,36.972 483.35368,36.37 C483.35368,35.586 482.90568,35.194 481.88368,35.194 C480.94568,35.194 480.51168,35.544 480.51168,36.286 Z" id="Sep.-2018" fill="#2A5C96"></path>
                <path d="M426.716034,122 C426.163749,122 425.716034,121.552285 425.716034,121 C425.716034,120.447715 426.163749,120 426.716034,120 L1152.29102,120 L1152.29102,122 L426.716034,122 Z" id="Stroke-49-Copy-7" fill="url(#linearGradient-1)" fill-rule="nonzero"></path>
                <path d="M15.4464912,122 C14.8942065,122 14.4464912,121.552285 14.4464912,121 C14.4464912,120.447715 14.8942065,120 15.4464912,120 L219.446491,120 C219.998776,120 220.446491,120.447715 220.446491,121 C220.446491,121.552285 219.998776,122 219.446491,122 L15.4464912,122 Z" id="Stroke-49-Copy-9" fill="url(#linearGradient-2)" fill-rule="nonzero"></path>
                <path d="M29,1 C29,0.44771525 29.4477153,0 30,0 C30.5522847,0 31,0.44771525 31,1 L31,121 C31,121.552285 30.5522847,122 30,122 C29.4477153,122 29,121.552285 29,121 L29,1 Z" id="Stroke-222-Copy-7" fill="url(#linearGradient-3)" fill-rule="nonzero"></path>
                <path d="M607,1 C607,0.44771525 607.447715,0 608,0 C608.552285,0 609,0.44771525 609,1 L609,121 C609,121.552285 608.552285,122 608,122 C607.447715,122 607,121.552285 607,121 L607,1 Z" id="Stroke-222-Copy-7-Copy-3" fill="url(#linearGradient-4)" fill-rule="nonzero"></path>
                <path d="M801,1 C801,0.44771525 801.447715,0 802,0 C802.552285,0 803,0.44771525 803,1 L803,121 C803,121.552285 802.552285,122 802,122 C801.447715,122 801,121.552285 801,121 L801,1 Z" id="Stroke-222-Copy-7-Copy-4" fill="url(#linearGradient-5)" fill-rule="nonzero"></path>
                <path d="M991,1 C991,0.44771525 991.447715,0 992,0 C992.552285,0 993,0.44771525 993,1 L993,121 C993,121.552285 992.552285,122 992,122 C991.447715,122 991,121.552285 991,121 L991,1 Z" id="Stroke-222-Copy-7-Copy-5" fill="url(#linearGradient-6)" fill-rule="nonzero"></path>
                <path d="M218,1 C218,0.44771525 218.447715,0 219,0 C219.552285,0 220,0.44771525 220,1 L220,121 C220,121.552285 219.552285,122 219,122 C218.447715,122 218,121.552285 218,121 L218,1 Z" id="Stroke-222-Copy-7-Copy" fill="url(#linearGradient-7)" fill-rule="nonzero"></path>
                <path d="M412,1 C412,0.44771525 412.447715,0 413,0 C413.552285,0 414,0.44771525 414,1 L414,121 C414,121.552285 413.552285,122 413,122 C412.447715,122 412,121.552285 412,121 L412,1 Z" id="Stroke-222-Copy-7-Copy-2" fill="url(#linearGradient-8)" fill-rule="nonzero"></path>
                <path d="M428.446503,120.000366 L220.446487,120.000366 C219.894241,120.000366 219.446487,120.447632 219.446487,121.000366 C219.446487,121.553101 219.894241,122.000366 220.446487,122.000366 L428.446503,122.000366 C428.998749,122.000366 429.446503,121.553101 429.446503,121.000366 C429.446503,120.447632 428.998749,120.000366 428.446503,120.000366 Z" id="Shape" fill="url(#linearGradient-9)" fill-rule="nonzero"></path>
                <path d="M231.56,44 L230.972,41.956 L227.164,41.956 L226.576,44 L224.084,44 L227.71,33.5 L230.524,33.5 L234.192,44 L231.56,44 Z M229.082,35.278 L228.788,36.384 L227.738,39.982 L230.412,39.982 L229.404,36.384 L229.124,35.278 L229.082,35.278 Z M241.97096,35.516 L241.97096,41.004 C241.97096,43.062 240.80896,44.154 238.40096,44.154 C235.99296,44.154 234.83096,43.02 234.83096,41.004 L234.83096,35.516 L237.00096,35.516 L237.00096,40.962 C237.00096,41.802 237.44896,42.236 238.40096,42.236 C239.35296,42.236 239.80096,41.83 239.80096,40.962 L239.80096,35.516 L241.97096,35.516 Z M246.76792,40.584 C246.40392,40.584 246.03992,40.556 245.70392,40.5 C245.52192,40.598 245.40992,40.752 245.40992,40.906 C245.40992,41.116 245.59192,41.27 245.96992,41.298 L247.98592,41.41 C249.97392,41.522 250.72992,42.264 250.72992,43.566 C250.72992,45.26 249.59592,46.31 246.83792,46.31 C244.40192,46.31 243.39392,45.358 243.39392,44.07 C243.39392,43.566 243.61792,43.076 244.05192,42.698 C243.68792,42.432 243.40792,42.026 243.40792,41.452 C243.40792,40.892 243.72992,40.332 244.42992,39.996 C243.86992,39.59 243.50592,38.96 243.50592,37.994 C243.50592,36.454 244.40192,35.362 246.75392,35.362 C247.48192,35.362 248.26592,35.474 248.86792,35.824 L250.30992,35.362 L250.75792,36.398 L249.86192,37.098 C249.94592,37.35 249.98792,37.658 249.98792,37.994 C249.98792,39.632 249.06392,40.584 246.76792,40.584 Z M247.60792,43.244 L245.59192,43.104 C245.36792,43.314 245.24192,43.566 245.24192,43.79 C245.24192,44.378 245.68992,44.672 246.79592,44.672 C248.39192,44.672 248.78392,44.364 248.78392,43.888 C248.78392,43.496 248.55992,43.314 247.60792,43.244 Z M246.78192,37 C245.94192,37 245.64792,37.308 245.64792,38.05 C245.64792,38.876 246.08192,39.086 246.72592,39.086 C247.63592,39.086 247.90192,38.806 247.90192,38.036 C247.90192,37.266 247.57992,37 246.78192,37 Z M254.30888,42.95 C254.30888,43.706 253.94488,44.168 253.06288,44.168 C252.18088,44.168 251.80288,43.832 251.80288,42.95 C251.80288,42.18 252.18088,41.746 253.06288,41.746 C253.94488,41.746 254.30888,42.18 254.30888,42.95 Z M266.7588,36.454 C266.7588,38.358 265.0928,39.94 262.7128,41.928 L262.7128,41.97 L266.7448,41.97 L266.7028,44 L259.7308,44 L259.7308,42.488 C262.2508,39.996 264.3788,38.232 264.3788,36.678 C264.3788,35.95 263.9028,35.432 262.7268,35.432 C261.8028,35.432 260.9628,35.81 260.1928,36.356 L259.6468,34.48 C260.5148,33.822 261.7188,33.374 263.1468,33.374 C265.5548,33.374 266.7588,34.62 266.7588,36.454 Z M276.04976,38.792 C276.04976,42.558 274.85976,44.14 272.12976,44.14 C269.38576,44.14 268.25176,42.558 268.25176,38.792 C268.25176,34.844 269.38576,33.374 272.15776,33.374 C274.87376,33.374 276.04976,34.844 276.04976,38.792 Z M273.79576,38.764 C273.79576,35.894 273.27776,35.39 272.15776,35.39 C271.00976,35.39 270.49176,35.936 270.49176,38.764 C270.49176,41.704 271.00976,42.18 272.15776,42.18 C273.27776,42.18 273.79576,41.648 273.79576,38.764 Z M278.92872,44 L278.92872,42.348 L280.48272,42.348 L280.48272,36.286 L278.56472,37.392 L278.32672,35.488 L281.44872,33.5 L282.83472,33.5 L282.83472,42.348 L284.36072,42.348 L284.36072,44 L278.92872,44 Z M286.24568,40.92 C286.24568,39.968 286.76368,39.072 287.68768,38.512 C287.05768,38.022 286.62368,37.322 286.62368,36.174 C286.62368,34.452 287.70168,33.374 290.13768,33.374 C292.57368,33.374 293.62368,34.438 293.62368,36.188 C293.62368,37.126 293.18968,37.896 292.48968,38.428 C293.32968,38.876 293.98768,39.576 293.98768,40.934 C293.98768,43.048 292.68568,44.126 290.13768,44.126 C287.46368,44.126 286.24568,43.006 286.24568,40.92 Z M291.77568,41.102 C291.77568,40.094 290.68368,39.8 289.50768,39.394 C288.90568,39.758 288.44368,40.262 288.44368,40.934 C288.44368,41.928 288.96168,42.334 290.19368,42.334 C291.14568,42.334 291.77568,41.998 291.77568,41.102 Z M288.75168,36.286 C288.75168,37.182 289.63368,37.476 290.68368,37.784 C291.28568,37.406 291.59368,36.972 291.59368,36.37 C291.59368,35.586 291.14568,35.194 290.12368,35.194 C289.18568,35.194 288.75168,35.544 288.75168,36.286 Z" id="Aug.-2018" fill="#2A5C96"></path>
                <path d="M232.64,162 L231.968,159.664 L227.616,159.664 L226.944,162 L224.096,162 L228.24,150 L231.456,150 L235.648,162 L232.64,162 Z M229.808,152.032 L229.472,153.296 L228.272,157.408 L231.328,157.408 L230.176,153.296 L229.856,152.032 L229.808,152.032 Z M239.45024,162 L236.93824,162 L236.93824,149.536 L239.45024,149.424 L239.45024,162 Z M250.18048,157.136 C250.18048,160.544 248.69248,162.16 246.42048,162.16 C245.55648,162.16 244.78848,161.984 244.16448,161.376 L244.11648,161.392 L244.14848,162.688 L244.14848,164.464 L241.63648,164.464 L241.63648,152.368 L243.38048,152.256 L243.86048,153.104 C244.53248,152.48 245.47648,152.128 246.48448,152.128 C248.86848,152.128 250.18048,153.424 250.18048,157.136 Z M247.60448,157.12 C247.60448,154.896 247.06048,154.336 245.81248,154.336 C245.09248,154.336 244.50048,154.624 244.14848,155.12 L244.14848,159.28 C244.45248,159.744 244.98048,160.112 245.76448,160.112 C246.86848,160.112 247.60448,159.584 247.60448,157.12 Z M259.96672,162 L257.48672,162 L257.48672,155.824 C257.48672,154.832 256.99072,154.32 255.93472,154.32 C255.21472,154.32 254.59072,154.64 254.28672,155.056 L254.28672,162 L251.80672,162 L251.80672,149.552 L254.28672,149.424 L254.28672,151.632 L254.25472,152.912 L254.30272,152.944 C255.02272,152.336 255.90272,152.112 256.71872,152.112 C258.76672,152.112 259.96672,153.488 259.96672,155.824 L259.96672,162 Z M267.36896,162 L267.17696,161.072 L267.12896,161.056 C266.53696,161.76 265.60896,162.16 264.50496,162.16 C262.66496,162.16 261.49696,161.12 261.49696,158.944 C261.49696,157.152 262.74496,155.92 264.95296,155.92 C265.67296,155.92 266.29696,156.032 266.80896,156.192 L266.80896,155.632 C266.80896,154.656 266.29696,154.208 264.96896,154.208 C263.89696,154.208 263.19296,154.368 262.29696,154.736 L262.08896,152.752 C263.06496,152.336 264.16896,152.112 265.41696,152.112 C268.28096,152.112 269.27296,153.344 269.27296,156 L269.27296,162 L267.36896,162 Z M266.80896,159.056 L266.80896,157.84 C266.56896,157.744 266.08896,157.632 265.43296,157.632 C264.32896,157.632 263.81696,158.064 263.81696,158.912 C263.81696,159.856 264.37696,160.192 265.19296,160.192 C266.04096,160.192 266.80896,159.68 266.80896,159.056 Z M283.61344,162 L281.13344,162 L281.13344,155.824 C281.13344,154.752 280.58944,154.32 279.56544,154.32 C278.94144,154.32 278.26944,154.592 277.93344,155.056 L277.93344,162 L275.43744,162 L275.43744,152.352 L277.22944,152.24 L277.59744,153.072 C278.31744,152.448 279.26144,152.112 280.26944,152.112 C282.31744,152.112 283.61344,153.408 283.61344,155.824 L283.61344,162 Z M289.91168,162.176 C286.56768,162.176 285.07968,160.416 285.07968,157.024 C285.07968,153.936 286.43968,152.128 289.35168,152.128 C291.83168,152.128 293.35168,153.568 293.35168,156.64 C293.35168,157.008 293.33568,157.472 293.28768,157.808 L287.63968,157.808 C287.76768,159.424 288.55168,160.032 290.21568,160.032 C291.12768,160.032 291.97568,159.872 292.80768,159.552 L293.07968,161.552 C292.26368,161.92 291.14368,162.176 289.91168,162.176 Z M287.59168,156.16 L291.07968,156.16 C291.04768,154.736 290.40768,154.192 289.36768,154.192 C288.16768,154.192 287.70368,154.752 287.59168,156.16 Z M299.87392,154.16 L297.71392,154.16 L297.71392,159.12 C297.71392,159.872 298.09792,160.192 298.86592,160.192 C299.12192,160.192 299.45792,160.144 299.63392,160.08 L299.77792,161.888 C299.44192,162.032 298.80192,162.16 298.11392,162.16 C296.17792,162.16 295.23392,161.04 295.23392,159.2 L295.23392,154.16 L294.14592,154.16 L294.14592,152.304 L295.34592,152.304 L295.76192,150.112 L297.71392,149.936 L297.71392,152.304 L299.87392,152.304 L299.87392,154.16 Z M308.2144,162 L305.7024,162 L305.7024,149.536 L308.2144,149.424 L308.2144,162 Z M315.90464,162 L315.71264,161.072 L315.66464,161.056 C315.07264,161.76 314.14464,162.16 313.04064,162.16 C311.20064,162.16 310.03264,161.12 310.03264,158.944 C310.03264,157.152 311.28064,155.92 313.48864,155.92 C314.20864,155.92 314.83264,156.032 315.34464,156.192 L315.34464,155.632 C315.34464,154.656 314.83264,154.208 313.50464,154.208 C312.43264,154.208 311.72864,154.368 310.83264,154.736 L310.62464,152.752 C311.60064,152.336 312.70464,152.112 313.95264,152.112 C316.81664,152.112 317.80864,153.344 317.80864,156 L317.80864,162 L315.90464,162 Z M315.34464,159.056 L315.34464,157.84 C315.10464,157.744 314.62464,157.632 313.96864,157.632 C312.86464,157.632 312.35264,158.064 312.35264,158.912 C312.35264,159.856 312.91264,160.192 313.72864,160.192 C314.57664,160.192 315.34464,159.68 315.34464,159.056 Z M327.77088,152.304 L327.77088,158.576 C327.77088,160.928 326.44288,162.176 323.69088,162.176 C320.93888,162.176 319.61088,160.88 319.61088,158.576 L319.61088,152.304 L322.09088,152.304 L322.09088,158.528 C322.09088,159.488 322.60288,159.984 323.69088,159.984 C324.77888,159.984 325.29088,159.52 325.29088,158.528 L325.29088,152.304 L327.77088,152.304 Z M337.84512,162 L335.36512,162 L335.36512,155.824 C335.36512,154.752 334.82112,154.32 333.79712,154.32 C333.17312,154.32 332.50112,154.592 332.16512,155.056 L332.16512,162 L329.66912,162 L329.66912,152.352 L331.46112,152.24 L331.82912,153.072 C332.54912,152.448 333.49312,152.112 334.50112,152.112 C336.54912,152.112 337.84512,153.408 337.84512,155.824 L337.84512,162 Z M346.07936,152.56 L345.93536,154.672 C345.43936,154.496 344.84736,154.368 344.28736,154.368 C342.47936,154.368 341.88736,155.12 341.88736,157.168 C341.88736,159.248 342.73536,160.064 344.23936,160.064 C344.87936,160.064 345.48736,159.936 345.99936,159.696 L346.17536,161.632 C345.59936,161.984 344.73536,162.192 343.69536,162.192 C340.83136,162.192 339.31136,160.56 339.31136,157.168 C339.31136,153.952 340.63936,152.144 343.74336,152.144 C344.55936,152.144 345.47136,152.32 346.07936,152.56 Z M355.8816,162 L353.4016,162 L353.4016,155.824 C353.4016,154.832 352.9056,154.32 351.8496,154.32 C351.1296,154.32 350.5056,154.64 350.2016,155.056 L350.2016,162 L347.7216,162 L347.7216,149.552 L350.2016,149.424 L350.2016,151.632 L350.1696,152.912 L350.2176,152.944 C350.9376,152.336 351.8176,152.112 352.6336,152.112 C354.6816,152.112 355.8816,153.488 355.8816,155.824 L355.8816,162 Z M227.808,170.376 L229.68,170.536 C228.288,172.6 227.632,175.16 227.632,177.784 C227.632,180.44 228.32,182.984 229.664,185.016 L227.808,185.176 C226.144,183.352 225.248,180.68 225.248,177.784 C225.248,174.824 226.112,172.28 227.808,170.376 Z M239.32224,178.12 C239.32224,181.672 237.85024,183.192 235.37024,183.192 C234.28224,183.192 233.38624,182.792 232.79424,182.2 L232.47424,183 L230.79424,183 L230.79424,170.536 L233.27424,170.424 L233.27424,172.68 L233.24224,173.96 L233.29024,173.992 C233.94624,173.4 234.79424,173.128 235.67424,173.128 C237.91424,173.128 239.32224,174.568 239.32224,178.12 Z M236.76224,178.168 C236.76224,175.752 236.13824,175.304 234.95424,175.304 C234.23424,175.304 233.62624,175.608 233.27424,176.12 L233.27424,180.36 C233.57824,180.824 234.13824,181.192 234.97024,181.192 C236.09024,181.192 236.76224,180.68 236.76224,178.168 Z M246.38848,183 L246.19648,182.072 L246.14848,182.056 C245.55648,182.76 244.62848,183.16 243.52448,183.16 C241.68448,183.16 240.51648,182.12 240.51648,179.944 C240.51648,178.152 241.76448,176.92 243.97248,176.92 C244.69248,176.92 245.31648,177.032 245.82848,177.192 L245.82848,176.632 C245.82848,175.656 245.31648,175.208 243.98848,175.208 C242.91648,175.208 242.21248,175.368 241.31648,175.736 L241.10848,173.752 C242.08448,173.336 243.18848,173.112 244.43648,173.112 C247.30048,173.112 248.29248,174.344 248.29248,177 L248.29248,183 L246.38848,183 Z M245.82848,180.056 L245.82848,178.84 C245.58848,178.744 245.10848,178.632 244.45248,178.632 C243.34848,178.632 242.83648,179.064 242.83648,179.912 C242.83648,180.856 243.39648,181.192 244.21248,181.192 C245.06048,181.192 245.82848,180.68 245.82848,180.056 Z M256.63872,179.96 C256.63872,181.896 255.56672,183.192 252.94272,183.192 C251.77472,183.192 250.71872,182.968 249.90272,182.52 L250.15872,180.472 C250.95872,180.936 252.09472,181.16 252.92672,181.16 C253.91872,181.16 254.33472,180.76 254.33472,180.184 C254.33472,178.632 249.83872,179.528 249.83872,176.136 C249.83872,174.392 251.02272,173.144 253.51872,173.144 C254.49472,173.144 255.45472,173.336 256.27072,173.672 L256.06272,175.704 C255.26272,175.368 254.19072,175.208 253.47072,175.208 C252.65472,175.208 252.20672,175.528 252.20672,176.024 C252.20672,177.496 256.63872,176.616 256.63872,179.96 Z M260.98496,183 L258.44096,183 L258.44096,173.368 L260.98496,173.256 L260.98496,183 Z M261.12896,171.208 C261.12896,171.912 260.69696,172.264 259.72096,172.264 C258.76096,172.264 258.29696,171.992 258.29696,171.208 C258.29696,170.52 258.76096,170.136 259.72096,170.136 C260.69696,170.136 261.12896,170.504 261.12896,171.208 Z M269.6032,173.56 L269.4592,175.672 C268.9632,175.496 268.3712,175.368 267.8112,175.368 C266.0032,175.368 265.4112,176.12 265.4112,178.168 C265.4112,180.248 266.2592,181.064 267.7632,181.064 C268.4032,181.064 269.0112,180.936 269.5232,180.696 L269.6992,182.632 C269.1232,182.984 268.2592,183.192 267.2192,183.192 C264.3552,183.192 262.8352,181.56 262.8352,178.168 C262.8352,174.952 264.1632,173.144 267.2672,173.144 C268.0832,173.144 268.9952,173.32 269.6032,173.56 Z M281.87968,179.96 C281.87968,181.896 280.80768,183.192 278.18368,183.192 C277.01568,183.192 275.95968,182.968 275.14368,182.52 L275.39968,180.472 C276.19968,180.936 277.33568,181.16 278.16768,181.16 C279.15968,181.16 279.57568,180.76 279.57568,180.184 C279.57568,178.632 275.07968,179.528 275.07968,176.136 C275.07968,174.392 276.26368,173.144 278.75968,173.144 C279.73568,173.144 280.69568,173.336 281.51168,173.672 L281.30368,175.704 C280.50368,175.368 279.43168,175.208 278.71168,175.208 C277.89568,175.208 277.44768,175.528 277.44768,176.024 C277.44768,177.496 281.87968,176.616 281.87968,179.96 Z M289.72992,173.56 L289.58592,175.672 C289.08992,175.496 288.49792,175.368 287.93792,175.368 C286.12992,175.368 285.53792,176.12 285.53792,178.168 C285.53792,180.248 286.38592,181.064 287.88992,181.064 C288.52992,181.064 289.13792,180.936 289.64992,180.696 L289.82592,182.632 C289.24992,182.984 288.38592,183.192 287.34592,183.192 C284.48192,183.192 282.96192,181.56 282.96192,178.168 C282.96192,174.952 284.28992,173.144 287.39392,173.144 C288.20992,173.144 289.12192,173.32 289.72992,173.56 Z M296.70016,183 L296.50816,182.072 L296.46016,182.056 C295.86816,182.76 294.94016,183.16 293.83616,183.16 C291.99616,183.16 290.82816,182.12 290.82816,179.944 C290.82816,178.152 292.07616,176.92 294.28416,176.92 C295.00416,176.92 295.62816,177.032 296.14016,177.192 L296.14016,176.632 C296.14016,175.656 295.62816,175.208 294.30016,175.208 C293.22816,175.208 292.52416,175.368 291.62816,175.736 L291.42016,173.752 C292.39616,173.336 293.50016,173.112 294.74816,173.112 C297.61216,173.112 298.60416,174.344 298.60416,177 L298.60416,183 L296.70016,183 Z M296.14016,180.056 L296.14016,178.84 C295.90016,178.744 295.42016,178.632 294.76416,178.632 C293.66016,178.632 293.14816,179.064 293.14816,179.912 C293.14816,180.856 293.70816,181.192 294.52416,181.192 C295.37216,181.192 296.14016,180.68 296.14016,180.056 Z M303.2064,183 L300.6944,183 L300.6944,170.536 L303.2064,170.424 L303.2064,183 Z M309.79264,183.176 C306.44864,183.176 304.96064,181.416 304.96064,178.024 C304.96064,174.936 306.32064,173.128 309.23264,173.128 C311.71264,173.128 313.23264,174.568 313.23264,177.64 C313.23264,178.008 313.21664,178.472 313.16864,178.808 L307.52064,178.808 C307.64864,180.424 308.43264,181.032 310.09664,181.032 C311.00864,181.032 311.85664,180.872 312.68864,180.552 L312.96064,182.552 C312.14464,182.92 311.02464,183.176 309.79264,183.176 Z M307.47264,177.16 L310.96064,177.16 C310.92864,175.736 310.28864,175.192 309.24864,175.192 C308.04864,175.192 307.58464,175.752 307.47264,177.16 Z M313.83488,170.536 L315.70688,170.376 C317.38688,172.28 318.26688,174.824 318.26688,177.784 C318.26688,180.68 317.37088,183.352 315.70688,185.176 L313.83488,185.016 C315.19488,182.984 315.86688,180.44 315.86688,177.784 C315.86688,175.16 315.21088,172.6 313.83488,170.536 Z" id="Alpha-net-launch-(ba" fill="#5B6C72"></path>
                <circle id="Oval-8-Copy-28" fill="#5FEDDF" fill-rule="nonzero" cx="413.446472" cy="121" r="5"></circle>
                <circle id="Oval-8-Copy-29" fill="#CF9EFD" fill-rule="nonzero" cx="219" cy="121" r="5"></circle>
                <circle id="Oval-8-Copy-29-Copy" fill="#2DBEDF" fill-rule="nonzero" cx="30" cy="121" r="5"></circle>
                <circle id="Oval-8-Copy-29-Copy-2" fill="#41E7DB" fill-rule="nonzero" cx="608" cy="121" r="5"></circle>
                <circle id="Oval-8-Copy-29-Copy-3" fill="#41B8E2" fill-rule="nonzero" cx="802" cy="121" r="5"></circle>
                <circle id="Oval-8-Copy-29-Copy-4" fill="#60AEE6" fill-rule="nonzero" cx="992" cy="121" r="5"></circle>
                <path d="M2.446492,114.348741 L2.446492,120.651259 L8.44649256,123.865544 L14.446492,120.651259 L14.446492,114.348741 L8.44649256,111.134456 L2.446492,114.348741 Z M8.91871404,109.11852 L15.9187134,112.86852 C16.2436687,113.042603 16.446492,113.381353 16.446492,113.75 L16.446492,121.25 C16.446492,121.618647 16.2436687,121.957397 15.9187134,122.13148 L8.91871404,125.88148 C8.62373086,126.039507 8.26925441,126.039507 7.97427122,125.88148 L0.974270619,122.13148 C0.649315305,121.957397 0.446492,121.618647 0.446492,121.25 L0.446492,113.75 C0.446492,113.381353 0.649315305,113.042603 0.974270619,112.86852 L7.97427122,109.11852 C8.26925441,108.960493 8.62373086,108.960493 8.91871404,109.11852 Z" id="Polygon-Copy-9" fill="#2CBEDF" fill-rule="nonzero"></path>
                <path d="M14.950353,113.131757 C15.4298705,112.857747 16.0407251,113.024344 16.3147351,113.503861 C16.5887451,113.983378 16.4221484,114.594233 15.942631,114.868243 L8.94263157,118.868243 C8.63519891,119.043919 8.25778637,119.043919 7.95035369,118.868243 L0.950353094,114.868243 C0.470835637,114.594233 0.304238888,113.983379 0.57824884,113.503861 C0.852258791,113.024344 1.46311345,112.857747 1.94263091,113.131757 L8.44649256,116.848249 L14.950353,113.131757 Z" id="Polygon-Copy-18" fill="#2CBEDF" fill-rule="nonzero"></path>
                <path d="M36.312,162 L36.312,150 L39.064,150 L39.064,162 L36.312,162 Z M49.4277029,150.288 L49.1557029,152.608 C48.5317029,152.368 47.6997029,152.208 46.8037029,152.208 C44.6277029,152.208 43.9077029,153.088 43.9077029,155.936 C43.9077029,158.944 44.6597029,159.84 46.8517029,159.84 C47.7317029,159.84 48.5157029,159.664 49.1877029,159.376 L49.4597029,161.568 C48.6757029,161.952 47.5237029,162.224 46.4677029,162.224 C42.8357029,162.224 41.0757029,160.208 41.0757029,155.92 C41.0757029,151.92 42.8037029,149.792 46.6437029,149.792 C47.6037029,149.792 48.7397029,150.016 49.4277029,150.288 Z M60.9274057,156 C60.9274057,160.352 59.4074057,162.224 55.6474057,162.224 C51.9514057,162.224 50.3514057,160.272 50.3514057,156 C50.3514057,151.728 51.9034057,149.808 55.6474057,149.808 C59.4074057,149.808 60.9274057,151.728 60.9274057,156 Z M58.1114057,156 C58.1114057,152.96 57.4874057,152.224 55.6474057,152.224 C53.8234057,152.224 53.1834057,152.96 53.1834057,156 C53.1834057,159.04 53.8394057,159.808 55.6634057,159.808 C57.4714057,159.808 58.1114057,159.024 58.1114057,156 Z" id="ICO" fill="#5B6C72"></path>
                <path d="M614.162,151.5 L616.318,151.5 L619.006,158.192 L619.412,159.242 L619.454,159.242 L619.846,158.192 L622.562,151.5 L624.704,151.5 L624.704,162 L622.94,162 L622.94,155.938 L622.968,154.804 L622.926,154.79 L622.52,155.854 L620.056,162 L618.74,162 L616.29,155.854 L615.884,154.79 L615.856,154.804 L615.87,155.938 L615.87,162 L614.162,162 L614.162,151.5 Z M630.52424,162.154 C627.68224,162.154 626.45024,160.656 626.45024,157.632 C626.45024,154.958 627.62624,153.432 630.06224,153.432 C632.13424,153.432 633.46424,154.65 633.46424,157.338 C633.46424,157.604 633.45024,157.94 633.42224,158.192 L628.29824,158.192 C628.38224,159.956 629.12424,160.572 630.73424,160.572 C631.56024,160.572 632.28824,160.418 633.00224,160.11 L633.21224,161.58 C632.49824,161.93 631.57424,162.154 630.52424,162.154 Z M628.25624,156.988 L631.82624,156.988 C631.79824,155.504 631.12624,154.944 630.07624,154.944 C628.85824,154.944 628.34024,155.56 628.25624,156.988 Z M641.81848,162 L640.43248,162 L640.23648,161.202 L640.19448,161.188 C639.67648,161.818 638.92048,162.168 637.84248,162.168 C635.63048,162.168 634.60848,160.768 634.60848,157.758 C634.60848,154.958 635.64448,153.418 637.82848,153.418 C638.68248,153.418 639.46648,153.712 640.04048,154.272 L640.06848,154.244 L640.04048,153.124 L640.04048,151.038 L641.81848,150.94 L641.81848,162 Z M640.04048,159.844 L640.04048,155.826 C639.73248,155.364 639.11648,155.056 638.34648,155.056 C636.96048,155.056 636.45648,155.784 636.45648,157.828 C636.45648,159.97 636.90448,160.684 638.33248,160.684 C639.29848,160.684 639.81648,160.236 640.04048,159.844 Z M645.98672,162 L644.18072,162 L644.18072,153.628 L645.98672,153.53 L645.98672,162 Z M646.15472,151.626 C646.15472,152.186 645.81872,152.452 645.09072,152.452 C644.37672,152.452 644.02672,152.242 644.02672,151.626 C644.02672,151.08 644.37672,150.772 645.09072,150.772 C645.81872,150.772 646.15472,151.08 646.15472,151.626 Z M653.13696,162 L652.98296,161.104 L652.94096,161.09 C652.42296,161.748 651.56896,162.14 650.56096,162.14 C648.99296,162.14 647.95696,161.272 647.95696,159.396 C647.95696,157.814 649.02096,156.792 650.98096,156.792 C651.63896,156.792 652.25496,156.904 652.73096,157.058 L652.73096,156.428 C652.73096,155.378 652.22696,154.958 650.96696,154.958 C650.05696,154.958 649.39896,155.098 648.62896,155.434 L648.47496,153.964 C649.30096,153.6 650.23896,153.418 651.28896,153.418 C653.64096,153.418 654.49496,154.426 654.49496,156.694 L654.49496,162 L653.13696,162 Z M652.73096,159.522 L652.73096,158.29 C652.52096,158.192 652.00296,158.052 651.30296,158.052 C650.15496,158.052 649.63696,158.514 649.63696,159.368 C649.63696,160.348 650.22496,160.698 651.05096,160.698 C651.93296,160.698 652.73096,160.138 652.73096,159.522 Z M660.5812,154.944 L658.6072,154.944 L658.6072,159.634 C658.6072,160.376 658.9992,160.684 659.7132,160.684 C659.9372,160.684 660.2452,160.642 660.3992,160.586 L660.5112,161.916 C660.2312,162.042 659.7132,162.14 659.1952,162.14 C657.6132,162.14 656.8292,161.23 656.8292,159.676 L656.8292,154.944 L655.7792,154.944 L655.7792,153.572 L656.8852,153.572 L657.2072,151.598 L658.6072,151.458 L658.6072,153.572 L660.5812,153.572 L660.5812,154.944 Z M668.93544,157.814 C668.93544,160.936 667.81544,162.196 665.19744,162.196 C662.59344,162.196 661.41744,160.936 661.41744,157.814 C661.41744,154.706 662.59344,153.418 665.19744,153.418 C667.81544,153.418 668.93544,154.706 668.93544,157.814 Z M663.26544,157.814 C663.26544,160.026 663.81144,160.698 665.19744,160.698 C666.58344,160.698 667.10144,160.026 667.10144,157.814 C667.10144,155.602 666.58344,154.93 665.19744,154.93 C663.79744,154.93 663.26544,155.602 663.26544,157.814 Z M672.31968,162 L670.54168,162 L670.54168,153.628 L671.96968,153.544 L672.12368,155.126 L672.16568,155.126 C672.68368,154.034 673.55168,153.446 674.58768,153.446 C674.93768,153.446 675.24568,153.488 675.46968,153.558 L675.35768,155.364 C675.09168,155.28 674.78368,155.224 674.47568,155.224 C673.25768,155.224 672.31968,156.176 672.31968,157.758 L672.31968,162 Z M682.24192,159.438 C682.24192,161.076 681.31792,162.168 679.13392,162.168 C678.12592,162.168 677.21592,161.958 676.51592,161.538 L676.72592,160.026 C677.38392,160.46 678.36392,160.684 679.13392,160.684 C680.15592,160.684 680.58992,160.222 680.58992,159.606 C680.58992,158.01 676.48792,158.836 676.48792,155.924 C676.48792,154.454 677.50992,153.432 679.56792,153.432 C680.40792,153.432 681.20592,153.6 681.90592,153.908 L681.75192,155.392 C681.05192,155.098 680.18392,154.958 679.53992,154.958 C678.69992,154.958 678.19592,155.294 678.19592,155.854 C678.19592,157.338 682.24192,156.512 682.24192,159.438 Z M692.5524,162 L692.3984,161.104 L692.3564,161.09 C691.8384,161.748 690.9844,162.14 689.9764,162.14 C688.4084,162.14 687.3724,161.272 687.3724,159.396 C687.3724,157.814 688.4364,156.792 690.3964,156.792 C691.0544,156.792 691.6704,156.904 692.1464,157.058 L692.1464,156.428 C692.1464,155.378 691.6424,154.958 690.3824,154.958 C689.4724,154.958 688.8144,155.098 688.0444,155.434 L687.8904,153.964 C688.7164,153.6 689.6544,153.418 690.7044,153.418 C693.0564,153.418 693.9104,154.426 693.9104,156.694 L693.9104,162 L692.5524,162 Z M692.1464,159.522 L692.1464,158.29 C691.9364,158.192 691.4184,158.052 690.7184,158.052 C689.5704,158.052 689.0524,158.514 689.0524,159.368 C689.0524,160.348 689.6404,160.698 690.4664,160.698 C691.3484,160.698 692.1464,160.138 692.1464,159.522 Z M702.67064,162 L700.89264,162 L700.89264,156.554 C700.89264,155.49 700.31864,155.042 699.28264,155.042 C698.65264,155.042 697.95264,155.322 697.60264,155.812 L697.60264,162 L695.82464,162 L695.82464,153.614 L697.09864,153.516 L697.37864,154.328 C698.00864,153.74 698.86264,153.418 699.77264,153.418 C701.55064,153.418 702.67064,154.496 702.67064,156.54 L702.67064,162 Z M711.36088,162 L709.97488,162 L709.77888,161.202 L709.73688,161.188 C709.21888,161.818 708.46288,162.168 707.38488,162.168 C705.17288,162.168 704.15088,160.768 704.15088,157.758 C704.15088,154.958 705.18688,153.418 707.37088,153.418 C708.22488,153.418 709.00888,153.712 709.58288,154.272 L709.61088,154.244 L709.58288,153.124 L709.58288,151.038 L711.36088,150.94 L711.36088,162 Z M709.58288,159.844 L709.58288,155.826 C709.27488,155.364 708.65888,155.056 707.88888,155.056 C706.50288,155.056 705.99888,155.784 705.99888,157.828 C705.99888,159.97 706.44688,160.684 707.87488,160.684 C708.84088,160.684 709.35888,160.236 709.58288,159.844 Z M625.18,180 L623.402,180 L623.402,174.526 C623.402,173.518 622.842,173.056 621.918,173.056 C621.106,173.056 620.49,173.504 620.49,174.428 L620.49,180 L618.712,180 L618.712,174.428 C618.712,173.434 618.124,173.042 617.284,173.042 C616.682,173.042 616.08,173.35 615.786,173.812 L615.786,180 L614.008,180 L614.008,171.614 L615.282,171.53 L615.59,172.37 C616.164,171.782 616.948,171.432 617.76,171.432 C618.852,171.432 619.58,171.824 620.014,172.636 C620.546,171.81 621.386,171.432 622.394,171.432 C624.032,171.432 625.18,172.44 625.18,174.498 L625.18,180 Z M630.73424,180.154 C627.89224,180.154 626.66024,178.656 626.66024,175.632 C626.66024,172.958 627.83624,171.432 630.27224,171.432 C632.34424,171.432 633.67424,172.65 633.67424,175.338 C633.67424,175.604 633.66024,175.94 633.63224,176.192 L628.50824,176.192 C628.59224,177.956 629.33424,178.572 630.94424,178.572 C631.77024,178.572 632.49824,178.418 633.21224,178.11 L633.42224,179.58 C632.70824,179.93 631.78424,180.154 630.73424,180.154 Z M628.46624,174.988 L632.03624,174.988 C632.00824,173.504 631.33624,172.944 630.28624,172.944 C629.06824,172.944 628.55024,173.56 628.46624,174.988 Z M637.03048,180 L635.25248,180 L635.25248,171.628 L636.68048,171.544 L636.83448,173.126 L636.87648,173.126 C637.39448,172.034 638.26248,171.446 639.29848,171.446 C639.64848,171.446 639.95648,171.488 640.18048,171.558 L640.06848,173.364 C639.80248,173.28 639.49448,173.224 639.18648,173.224 C637.96848,173.224 637.03048,174.176 637.03048,175.758 L637.03048,180 Z M646.72872,171.824 L646.61672,173.392 C646.15472,173.196 645.59472,173.07 645.06272,173.07 C643.36872,173.07 642.78072,173.826 642.78072,175.772 C642.78072,177.83 643.57872,178.614 645.02072,178.614 C645.62272,178.614 646.21072,178.474 646.67272,178.222 L646.79872,179.65 C646.30872,179.972 645.53872,180.182 644.64272,180.182 C642.20672,180.182 640.93272,178.782 640.93272,175.772 C640.93272,172.958 642.06672,171.446 644.68472,171.446 C645.41272,171.446 646.18272,171.6 646.72872,171.824 Z M655.23696,180 L653.44496,180 L653.44496,174.54 C653.44496,173.56 652.94096,173.042 651.84896,173.042 C651.10696,173.042 650.46296,173.378 650.16896,173.826 L650.16896,180 L648.39096,180 L648.39096,169.038 L650.16896,168.94 L650.16896,171.096 L650.14096,172.216 L650.18296,172.244 C650.81296,171.656 651.61096,171.418 652.40896,171.418 C654.20096,171.418 655.23696,172.552 655.23696,174.54 L655.23696,180 Z M661.9672,180 L661.8132,179.104 L661.7712,179.09 C661.2532,179.748 660.3992,180.14 659.3912,180.14 C657.8232,180.14 656.7872,179.272 656.7872,177.396 C656.7872,175.814 657.8512,174.792 659.8112,174.792 C660.4692,174.792 661.0852,174.904 661.5612,175.058 L661.5612,174.428 C661.5612,173.378 661.0572,172.958 659.7972,172.958 C658.8872,172.958 658.2292,173.098 657.4592,173.434 L657.3052,171.964 C658.1312,171.6 659.0692,171.418 660.1192,171.418 C662.4712,171.418 663.3252,172.426 663.3252,174.694 L663.3252,180 L661.9672,180 Z M661.5612,177.522 L661.5612,176.29 C661.3512,176.192 660.8332,176.052 660.1332,176.052 C658.9852,176.052 658.4672,176.514 658.4672,177.368 C658.4672,178.348 659.0552,178.698 659.8812,178.698 C660.7632,178.698 661.5612,178.138 661.5612,177.522 Z M672.08544,180 L670.30744,180 L670.30744,174.554 C670.30744,173.49 669.73344,173.042 668.69744,173.042 C668.06744,173.042 667.36744,173.322 667.01744,173.812 L667.01744,180 L665.23944,180 L665.23944,171.614 L666.51344,171.516 L666.79344,172.328 C667.42344,171.74 668.27744,171.418 669.18744,171.418 C670.96544,171.418 672.08544,172.496 672.08544,174.54 L672.08544,180 Z M678.17168,172.944 L676.19768,172.944 L676.19768,177.634 C676.19768,178.376 676.58968,178.684 677.30368,178.684 C677.52768,178.684 677.83568,178.642 677.98968,178.586 L678.10168,179.916 C677.82168,180.042 677.30368,180.14 676.78568,180.14 C675.20368,180.14 674.41968,179.23 674.41968,177.676 L674.41968,172.944 L673.36968,172.944 L673.36968,171.572 L674.47568,171.572 L674.79768,169.598 L676.19768,169.458 L676.19768,171.572 L678.17168,171.572 L678.17168,172.944 Z M684.95792,177.438 C684.95792,179.076 684.03392,180.168 681.84992,180.168 C680.84192,180.168 679.93192,179.958 679.23192,179.538 L679.44192,178.026 C680.09992,178.46 681.07992,178.684 681.84992,178.684 C682.87192,178.684 683.30592,178.222 683.30592,177.606 C683.30592,176.01 679.20392,176.836 679.20392,173.924 C679.20392,172.454 680.22592,171.432 682.28392,171.432 C683.12392,171.432 683.92192,171.6 684.62192,171.908 L684.46792,173.392 C683.76792,173.098 682.89992,172.958 682.25592,172.958 C681.41592,172.958 680.91192,173.294 680.91192,173.854 C680.91192,175.338 684.95792,174.512 684.95792,177.438 Z M621.092,193.814 C621.092,196.936 619.972,198.196 617.354,198.196 C614.75,198.196 613.574,196.936 613.574,193.814 C613.574,190.706 614.75,189.418 617.354,189.418 C619.972,189.418 621.092,190.706 621.092,193.814 Z M615.422,193.814 C615.422,196.026 615.968,196.698 617.354,196.698 C618.74,196.698 619.258,196.026 619.258,193.814 C619.258,191.602 618.74,190.93 617.354,190.93 C615.954,190.93 615.422,191.602 615.422,193.814 Z M629.54424,198 L627.76624,198 L627.76624,192.554 C627.76624,191.49 627.19224,191.042 626.15624,191.042 C625.52624,191.042 624.82624,191.322 624.47624,191.812 L624.47624,198 L622.69824,198 L622.69824,189.614 L623.97224,189.516 L624.25224,190.328 C624.88224,189.74 625.73624,189.418 626.64624,189.418 C628.42424,189.418 629.54424,190.496 629.54424,192.54 L629.54424,198 Z M638.72448,193.772 C638.72448,196.894 637.46448,198.168 635.33648,198.168 C634.34248,198.168 633.51648,197.79 632.98448,197.23 L632.73248,198 L631.52848,198 L631.52848,187.038 L633.30648,186.94 L633.30648,189.124 L633.27848,190.244 L633.32048,190.272 C633.90848,189.698 634.70648,189.432 635.54648,189.432 C637.49248,189.432 638.72448,190.636 638.72448,193.772 Z M636.90448,193.8 C636.90448,191.504 636.23248,191.028 635.04248,191.028 C634.28648,191.028 633.67048,191.336 633.30648,191.854 L633.30648,195.844 C633.60048,196.306 634.18848,196.698 635.05648,196.698 C636.19048,196.698 636.90448,196.166 636.90448,193.8 Z M647.41472,193.814 C647.41472,196.936 646.29472,198.196 643.67672,198.196 C641.07272,198.196 639.89672,196.936 639.89672,193.814 C639.89672,190.706 641.07272,189.418 643.67672,189.418 C646.29472,189.418 647.41472,190.706 647.41472,193.814 Z M641.74472,193.814 C641.74472,196.026 642.29072,196.698 643.67672,196.698 C645.06272,196.698 645.58072,196.026 645.58072,193.814 C645.58072,191.602 645.06272,190.93 643.67672,190.93 C642.27672,190.93 641.74472,191.602 641.74472,193.814 Z M653.83696,198 L653.68296,197.104 L653.64096,197.09 C653.12296,197.748 652.26896,198.14 651.26096,198.14 C649.69296,198.14 648.65696,197.272 648.65696,195.396 C648.65696,193.814 649.72096,192.792 651.68096,192.792 C652.33896,192.792 652.95496,192.904 653.43096,193.058 L653.43096,192.428 C653.43096,191.378 652.92696,190.958 651.66696,190.958 C650.75696,190.958 650.09896,191.098 649.32896,191.434 L649.17496,189.964 C650.00096,189.6 650.93896,189.418 651.98896,189.418 C654.34096,189.418 655.19496,190.426 655.19496,192.694 L655.19496,198 L653.83696,198 Z M653.43096,195.522 L653.43096,194.29 C653.22096,194.192 652.70296,194.052 652.00296,194.052 C650.85496,194.052 650.33696,194.514 650.33696,195.368 C650.33696,196.348 650.92496,196.698 651.75096,196.698 C652.63296,196.698 653.43096,196.138 653.43096,195.522 Z M658.8872,198 L657.1092,198 L657.1092,189.628 L658.5372,189.544 L658.6912,191.126 L658.7332,191.126 C659.2512,190.034 660.1192,189.446 661.1552,189.446 C661.5052,189.446 661.8132,189.488 662.0372,189.558 L661.9252,191.364 C661.6592,191.28 661.3512,191.224 661.0432,191.224 C659.8252,191.224 658.8872,192.176 658.8872,193.758 L658.8872,198 Z M669.99944,198 L668.61344,198 L668.41744,197.202 L668.37544,197.188 C667.85744,197.818 667.10144,198.168 666.02344,198.168 C663.81144,198.168 662.78944,196.768 662.78944,193.758 C662.78944,190.958 663.82544,189.418 666.00944,189.418 C666.86344,189.418 667.64744,189.712 668.22144,190.272 L668.24944,190.244 L668.22144,189.124 L668.22144,187.038 L669.99944,186.94 L669.99944,198 Z M668.22144,195.844 L668.22144,191.826 C667.91344,191.364 667.29744,191.056 666.52744,191.056 C665.14144,191.056 664.63744,191.784 664.63744,193.828 C664.63744,195.97 665.08544,196.684 666.51344,196.684 C667.47944,196.684 667.99744,196.236 668.22144,195.844 Z M674.16768,198 L672.36168,198 L672.36168,189.628 L674.16768,189.53 L674.16768,198 Z M674.33568,187.626 C674.33568,188.186 673.99968,188.452 673.27168,188.452 C672.55768,188.452 672.20768,188.242 672.20768,187.626 C672.20768,187.08 672.55768,186.772 673.27168,186.772 C673.99968,186.772 674.33568,187.08 674.33568,187.626 Z M683.34792,198 L681.56992,198 L681.56992,192.554 C681.56992,191.49 680.99592,191.042 679.95992,191.042 C679.32992,191.042 678.62992,191.322 678.27992,191.812 L678.27992,198 L676.50192,198 L676.50192,189.614 L677.77592,189.516 L678.05592,190.328 C678.68592,189.74 679.53992,189.418 680.44992,189.418 C682.22792,189.418 683.34792,190.496 683.34792,192.54 L683.34792,198 Z M688.23016,194.528 C687.85216,194.528 687.47416,194.5 687.12416,194.43 C686.84416,194.542 686.67616,194.724 686.67616,194.934 C686.67616,195.172 686.87216,195.368 687.30616,195.396 L689.33616,195.536 C691.33816,195.676 692.05216,196.376 692.05216,197.622 C692.05216,199.246 691.00216,200.268 688.31416,200.268 C685.96216,200.268 684.96816,199.344 684.96816,198.042 C684.96816,197.496 685.22016,196.978 685.69616,196.586 C685.31816,196.348 685.03816,195.942 685.03816,195.382 C685.03816,194.822 685.37416,194.304 686.07416,194.01 L686.08816,193.982 C685.50016,193.604 685.12216,192.988 685.12216,192.008 C685.12216,190.454 685.97616,189.432 688.23016,189.432 C688.95816,189.432 689.72816,189.544 690.31616,189.922 L691.71616,189.418 L692.09416,190.3 L691.15616,191 C691.26816,191.28 691.32416,191.616 691.32416,192.008 C691.32416,193.618 690.47016,194.528 688.23016,194.528 Z M689.02816,197.076 L686.99816,196.922 C686.67616,197.188 686.49416,197.524 686.49416,197.818 C686.49416,198.518 687.01216,198.896 688.27216,198.896 C690.00816,198.896 690.44216,198.49 690.44216,197.888 C690.44216,197.412 690.17616,197.16 689.02816,197.076 Z M688.24416,190.804 C687.23616,190.804 686.87216,191.196 686.87216,192.036 C686.87216,193.016 687.41816,193.268 688.20216,193.268 C689.29416,193.268 689.61616,192.89 689.61616,192.036 C689.61616,191.126 689.21016,190.804 688.24416,190.804 Z" id="Mediators-and-mercha" fill="#5B6C72"></path>
                <path d="M810.094,160.278 L815.134,160.278 L815.092,162 L808.162,162 L808.162,151.5 L814.882,151.5 L814.91,153.25 L810.094,153.25 L810.094,155.784 L814.182,155.784 L814.182,157.366 L810.094,157.366 L810.094,160.278 Z M821.79424,162 L820.46424,159.536 L819.96024,158.528 L819.91824,158.528 L819.41424,159.55 L818.11224,162 L816.12424,162 L818.75624,157.744 L816.18024,153.572 L818.26624,153.572 L819.51224,155.896 L820.03024,156.89 L820.07224,156.89 L820.57624,155.882 L821.80824,153.572 L823.81024,153.572 L821.31824,157.702 L823.88024,162 L821.79424,162 Z M830.40048,153.824 L830.28848,155.392 C829.82648,155.196 829.26648,155.07 828.73448,155.07 C827.04048,155.07 826.45248,155.826 826.45248,157.772 C826.45248,159.83 827.25048,160.614 828.69248,160.614 C829.29448,160.614 829.88248,160.474 830.34448,160.222 L830.47048,161.65 C829.98048,161.972 829.21048,162.182 828.31448,162.182 C825.87848,162.182 824.60448,160.782 824.60448,157.772 C824.60448,154.958 825.73848,153.446 828.35648,153.446 C829.08448,153.446 829.85448,153.6 830.40048,153.824 Z M838.90872,162 L837.11672,162 L837.11672,156.54 C837.11672,155.56 836.61272,155.042 835.52072,155.042 C834.77872,155.042 834.13472,155.378 833.84072,155.826 L833.84072,162 L832.06272,162 L832.06272,151.038 L833.84072,150.94 L833.84072,153.096 L833.81272,154.216 L833.85472,154.244 C834.48472,153.656 835.28272,153.418 836.08072,153.418 C837.87272,153.418 838.90872,154.552 838.90872,156.54 L838.90872,162 Z M845.63896,162 L845.48496,161.104 L845.44296,161.09 C844.92496,161.748 844.07096,162.14 843.06296,162.14 C841.49496,162.14 840.45896,161.272 840.45896,159.396 C840.45896,157.814 841.52296,156.792 843.48296,156.792 C844.14096,156.792 844.75696,156.904 845.23296,157.058 L845.23296,156.428 C845.23296,155.378 844.72896,154.958 843.46896,154.958 C842.55896,154.958 841.90096,155.098 841.13096,155.434 L840.97696,153.964 C841.80296,153.6 842.74096,153.418 843.79096,153.418 C846.14296,153.418 846.99696,154.426 846.99696,156.694 L846.99696,162 L845.63896,162 Z M845.23296,159.522 L845.23296,158.29 C845.02296,158.192 844.50496,158.052 843.80496,158.052 C842.65696,158.052 842.13896,158.514 842.13896,159.368 C842.13896,160.348 842.72696,160.698 843.55296,160.698 C844.43496,160.698 845.23296,160.138 845.23296,159.522 Z M855.7572,162 L853.9792,162 L853.9792,156.554 C853.9792,155.49 853.4052,155.042 852.3692,155.042 C851.7392,155.042 851.0392,155.322 850.6892,155.812 L850.6892,162 L848.9112,162 L848.9112,153.614 L850.1852,153.516 L850.4652,154.328 C851.0952,153.74 851.9492,153.418 852.8592,153.418 C854.6372,153.418 855.7572,154.496 855.7572,156.54 L855.7572,162 Z M860.63944,158.528 C860.26144,158.528 859.88344,158.5 859.53344,158.43 C859.25344,158.542 859.08544,158.724 859.08544,158.934 C859.08544,159.172 859.28144,159.368 859.71544,159.396 L861.74544,159.536 C863.74744,159.676 864.46144,160.376 864.46144,161.622 C864.46144,163.246 863.41144,164.268 860.72344,164.268 C858.37144,164.268 857.37744,163.344 857.37744,162.042 C857.37744,161.496 857.62944,160.978 858.10544,160.586 C857.72744,160.348 857.44744,159.942 857.44744,159.382 C857.44744,158.822 857.78344,158.304 858.48344,158.01 L858.49744,157.982 C857.90944,157.604 857.53144,156.988 857.53144,156.008 C857.53144,154.454 858.38544,153.432 860.63944,153.432 C861.36744,153.432 862.13744,153.544 862.72544,153.922 L864.12544,153.418 L864.50344,154.3 L863.56544,155 C863.67744,155.28 863.73344,155.616 863.73344,156.008 C863.73344,157.618 862.87944,158.528 860.63944,158.528 Z M861.43744,161.076 L859.40744,160.922 C859.08544,161.188 858.90344,161.524 858.90344,161.818 C858.90344,162.518 859.42144,162.896 860.68144,162.896 C862.41744,162.896 862.85144,162.49 862.85144,161.888 C862.85144,161.412 862.58544,161.16 861.43744,161.076 Z M860.65344,154.804 C859.64544,154.804 859.28144,155.196 859.28144,156.036 C859.28144,157.016 859.82744,157.268 860.61144,157.268 C861.70344,157.268 862.02544,156.89 862.02544,156.036 C862.02544,155.126 861.61944,154.804 860.65344,154.804 Z M869.28768,162.154 C866.44568,162.154 865.21368,160.656 865.21368,157.632 C865.21368,154.958 866.38968,153.432 868.82568,153.432 C870.89768,153.432 872.22768,154.65 872.22768,157.338 C872.22768,157.604 872.21368,157.94 872.18568,158.192 L867.06168,158.192 C867.14568,159.956 867.88768,160.572 869.49768,160.572 C870.32368,160.572 871.05168,160.418 871.76568,160.11 L871.97568,161.58 C871.26168,161.93 870.33768,162.154 869.28768,162.154 Z M867.01968,156.988 L870.58968,156.988 C870.56168,155.504 869.88968,154.944 868.83968,154.944 C867.62168,154.944 867.10368,155.56 867.01968,156.988 Z M882.58016,162 L882.42616,161.104 L882.38416,161.09 C881.86616,161.748 881.01216,162.14 880.00416,162.14 C878.43616,162.14 877.40016,161.272 877.40016,159.396 C877.40016,157.814 878.46416,156.792 880.42416,156.792 C881.08216,156.792 881.69816,156.904 882.17416,157.058 L882.17416,156.428 C882.17416,155.378 881.67016,154.958 880.41016,154.958 C879.50016,154.958 878.84216,155.098 878.07216,155.434 L877.91816,153.964 C878.74416,153.6 879.68216,153.418 880.73216,153.418 C883.08416,153.418 883.93816,154.426 883.93816,156.694 L883.93816,162 L882.58016,162 Z M882.17416,159.522 L882.17416,158.29 C881.96416,158.192 881.44616,158.052 880.74616,158.052 C879.59816,158.052 879.08016,158.514 879.08016,159.368 C879.08016,160.348 879.66816,160.698 880.49416,160.698 C881.37616,160.698 882.17416,160.138 882.17416,159.522 Z M892.6984,162 L890.9204,162 L890.9204,156.554 C890.9204,155.49 890.3464,155.042 889.3104,155.042 C888.6804,155.042 887.9804,155.322 887.6304,155.812 L887.6304,162 L885.8524,162 L885.8524,153.614 L887.1264,153.516 L887.4064,154.328 C888.0364,153.74 888.8904,153.418 889.8004,153.418 C891.5784,153.418 892.6984,154.496 892.6984,156.54 L892.6984,162 Z M901.38864,162 L900.00264,162 L899.80664,161.202 L899.76464,161.188 C899.24664,161.818 898.49064,162.168 897.41264,162.168 C895.20064,162.168 894.17864,160.768 894.17864,157.758 C894.17864,154.958 895.21464,153.418 897.39864,153.418 C898.25264,153.418 899.03664,153.712 899.61064,154.272 L899.63864,154.244 L899.61064,153.124 L899.61064,151.038 L901.38864,150.94 L901.38864,162 Z M899.61064,159.844 L899.61064,155.826 C899.30264,155.364 898.68664,155.056 897.91664,155.056 C896.53064,155.056 896.02664,155.784 896.02664,157.828 C896.02664,159.97 896.47464,160.684 897.90264,160.684 C898.86864,160.684 899.38664,160.236 899.61064,159.844 Z M813.16,169.5 L815.26,169.5 L816.94,177.004 L817.178,178.11 L817.22,178.11 L817.416,177.004 L818.914,169.5 L820.832,169.5 L818.34,180 L816.002,180 L814.406,172.51 L814.196,171.39 L814.154,171.39 L813.93,172.51 L812.334,180 L810.01,180 L807.504,169.5 L809.506,169.5 L811.004,177.046 L811.214,178.152 L811.256,178.152 L811.466,177.046 L813.16,169.5 Z M826.70824,180 L826.55424,179.104 L826.51224,179.09 C825.99424,179.748 825.14024,180.14 824.13224,180.14 C822.56424,180.14 821.52824,179.272 821.52824,177.396 C821.52824,175.814 822.59224,174.792 824.55224,174.792 C825.21024,174.792 825.82624,174.904 826.30224,175.058 L826.30224,174.428 C826.30224,173.378 825.79824,172.958 824.53824,172.958 C823.62824,172.958 822.97024,173.098 822.20024,173.434 L822.04624,171.964 C822.87224,171.6 823.81024,171.418 824.86024,171.418 C827.21224,171.418 828.06624,172.426 828.06624,174.694 L828.06624,180 L826.70824,180 Z M826.30224,177.522 L826.30224,176.29 C826.09224,176.192 825.57424,176.052 824.87424,176.052 C823.72624,176.052 823.20824,176.514 823.20824,177.368 C823.20824,178.348 823.79624,178.698 824.62224,178.698 C825.50424,178.698 826.30224,178.138 826.30224,177.522 Z M831.98248,180 L830.19048,180 L830.19048,169.038 L831.98248,168.94 L831.98248,180 Z M836.23472,180 L834.44272,180 L834.44272,169.038 L836.23472,168.94 L836.23472,180 Z M842.12496,180.154 C839.28296,180.154 838.05096,178.656 838.05096,175.632 C838.05096,172.958 839.22696,171.432 841.66296,171.432 C843.73496,171.432 845.06496,172.65 845.06496,175.338 C845.06496,175.604 845.05096,175.94 845.02296,176.192 L839.89896,176.192 C839.98296,177.956 840.72496,178.572 842.33496,178.572 C843.16096,178.572 843.88896,178.418 844.60296,178.11 L844.81296,179.58 C844.09896,179.93 843.17496,180.154 842.12496,180.154 Z M839.85696,174.988 L843.42696,174.988 C843.39896,173.504 842.72696,172.944 841.67696,172.944 C840.45896,172.944 839.94096,173.56 839.85696,174.988 Z M850.7032,172.944 L848.7292,172.944 L848.7292,177.634 C848.7292,178.376 849.1212,178.684 849.8352,178.684 C850.0592,178.684 850.3672,178.642 850.5212,178.586 L850.6332,179.916 C850.3532,180.042 849.8352,180.14 849.3172,180.14 C847.7352,180.14 846.9512,179.23 846.9512,177.676 L846.9512,172.944 L845.9012,172.944 L845.9012,171.572 L847.0072,171.572 L847.3292,169.598 L848.7292,169.458 L848.7292,171.572 L850.7032,171.572 L850.7032,172.944 Z M807.84,192.554 L813.482,192.554 L813.482,193.884 L807.84,193.884 L807.84,192.554 Z M826.21448,189.292 L821.39848,189.292 L821.39848,191.98 L825.41648,191.98 L825.40248,193.674 L821.39848,193.674 L821.39848,198 L819.46648,198 L819.46648,187.5 L826.17248,187.5 L826.21448,189.292 Z M834.23272,189.572 L834.23272,195.116 C834.23272,197.09 833.11272,198.154 830.80272,198.154 C828.49272,198.154 827.38672,197.048 827.38672,195.116 L827.38672,189.572 L829.16472,189.572 L829.16472,195.074 C829.16472,196.04 829.69672,196.544 830.81672,196.544 C831.90872,196.544 832.45472,196.054 832.45472,195.074 L832.45472,189.572 L834.23272,189.572 Z M838.14896,198 L836.35696,198 L836.35696,187.038 L838.14896,186.94 L838.14896,198 Z M842.4012,198 L840.6092,198 L840.6092,187.038 L842.4012,186.94 L842.4012,198 Z M850.61168,198 L848.81968,198 L848.81968,187.038 L850.61168,186.94 L850.61168,198 Z M857.67792,198 L857.52392,197.104 L857.48192,197.09 C856.96392,197.748 856.10992,198.14 855.10192,198.14 C853.53392,198.14 852.49792,197.272 852.49792,195.396 C852.49792,193.814 853.56192,192.792 855.52192,192.792 C856.17992,192.792 856.79592,192.904 857.27192,193.058 L857.27192,192.428 C857.27192,191.378 856.76792,190.958 855.50792,190.958 C854.59792,190.958 853.93992,191.098 853.16992,191.434 L853.01592,189.964 C853.84192,189.6 854.77992,189.418 855.82992,189.418 C858.18192,189.418 859.03592,190.426 859.03592,192.694 L859.03592,198 L857.67792,198 Z M857.27192,195.522 L857.27192,194.29 C857.06192,194.192 856.54392,194.052 855.84392,194.052 C854.69592,194.052 854.17792,194.514 854.17792,195.368 C854.17792,196.348 854.76592,196.698 855.59192,196.698 C856.47392,196.698 857.27192,196.138 857.27192,195.522 Z M867.68416,189.572 L867.68416,195.116 C867.68416,197.09 866.56416,198.154 864.25416,198.154 C861.94416,198.154 860.83816,197.048 860.83816,195.116 L860.83816,189.572 L862.61616,189.572 L862.61616,195.074 C862.61616,196.04 863.14816,196.544 864.26816,196.544 C865.36016,196.544 865.90616,196.054 865.90616,195.074 L865.90616,189.572 L867.68416,189.572 Z M876.4444,198 L874.6664,198 L874.6664,192.554 C874.6664,191.49 874.0924,191.042 873.0564,191.042 C872.4264,191.042 871.7264,191.322 871.3764,191.812 L871.3764,198 L869.5984,198 L869.5984,189.614 L870.8724,189.516 L871.1524,190.328 C871.7824,189.74 872.6364,189.418 873.5464,189.418 C875.3244,189.418 876.4444,190.496 876.4444,192.54 L876.4444,198 Z M883.72064,189.824 L883.60864,191.392 C883.14664,191.196 882.58664,191.07 882.05464,191.07 C880.36064,191.07 879.77264,191.826 879.77264,193.772 C879.77264,195.83 880.57064,196.614 882.01264,196.614 C882.61464,196.614 883.20264,196.474 883.66464,196.222 L883.79064,197.65 C883.30064,197.972 882.53064,198.182 881.63464,198.182 C879.19864,198.182 877.92464,196.782 877.92464,193.772 C877.92464,190.958 879.05864,189.446 881.67664,189.446 C882.40464,189.446 883.17464,189.6 883.72064,189.824 Z M892.22888,198 L890.43688,198 L890.43688,192.54 C890.43688,191.56 889.93288,191.042 888.84088,191.042 C888.09888,191.042 887.45488,191.378 887.16088,191.826 L887.16088,198 L885.38288,198 L885.38288,187.038 L887.16088,186.94 L887.16088,189.096 L887.13288,190.216 L887.17488,190.244 C887.80488,189.656 888.60288,189.418 889.40088,189.418 C891.19288,189.418 892.22888,190.552 892.22888,192.54 L892.22888,198 Z" id="Exchange-and-Wallet" fill="#5B6C72"></path>
                <path d="M1006.36,152.432 L1003.128,152.432 L1003.128,162 L1000.408,162 L1000.408,152.432 L997.192,152.432 L997.256,150 L1006.296,150 L1006.36,152.432 Z M1011.1557,162.176 C1007.8117,162.176 1006.3237,160.416 1006.3237,157.024 C1006.3237,153.936 1007.6837,152.128 1010.5957,152.128 C1013.0757,152.128 1014.5957,153.568 1014.5957,156.64 C1014.5957,157.008 1014.5797,157.472 1014.5317,157.808 L1008.8837,157.808 C1009.0117,159.424 1009.7957,160.032 1011.4597,160.032 C1012.3717,160.032 1013.2197,159.872 1014.0517,159.552 L1014.3237,161.552 C1013.5077,161.92 1012.3877,162.176 1011.1557,162.176 Z M1008.8357,156.16 L1012.3237,156.16 C1012.2917,154.736 1011.6517,154.192 1010.6117,154.192 C1009.4117,154.192 1008.9477,154.752 1008.8357,156.16 Z M1022.52741,158.96 C1022.52741,160.896 1021.45541,162.192 1018.83141,162.192 C1017.66341,162.192 1016.60741,161.968 1015.79141,161.52 L1016.04741,159.472 C1016.84741,159.936 1017.98341,160.16 1018.81541,160.16 C1019.80741,160.16 1020.22341,159.76 1020.22341,159.184 C1020.22341,157.632 1015.72741,158.528 1015.72741,155.136 C1015.72741,153.392 1016.91141,152.144 1019.40741,152.144 C1020.38341,152.144 1021.34341,152.336 1022.15941,152.672 L1021.95141,154.704 C1021.15141,154.368 1020.07941,154.208 1019.35941,154.208 C1018.54341,154.208 1018.09541,154.528 1018.09541,155.024 C1018.09541,156.496 1022.52741,155.616 1022.52741,158.96 Z M1028.85911,154.16 L1026.69911,154.16 L1026.69911,159.12 C1026.69911,159.872 1027.08311,160.192 1027.85111,160.192 C1028.10711,160.192 1028.44311,160.144 1028.61911,160.08 L1028.76311,161.888 C1028.42711,162.032 1027.78711,162.16 1027.09911,162.16 C1025.16311,162.16 1024.21911,161.04 1024.21911,159.2 L1024.21911,154.16 L1023.13111,154.16 L1023.13111,152.304 L1024.33111,152.304 L1024.74711,150.112 L1026.69911,149.936 L1026.69911,152.304 L1028.85911,152.304 L1028.85911,154.16 Z M1042.67451,162 L1040.19451,162 L1040.19451,155.824 C1040.19451,154.752 1039.65051,154.32 1038.62651,154.32 C1038.00251,154.32 1037.33051,154.592 1036.99451,155.056 L1036.99451,162 L1034.49851,162 L1034.49851,152.352 L1036.29051,152.24 L1036.65851,153.072 C1037.37851,152.448 1038.32251,152.112 1039.33051,152.112 C1041.37851,152.112 1042.67451,153.408 1042.67451,155.824 L1042.67451,162 Z M1048.97422,162.176 C1045.63022,162.176 1044.14222,160.416 1044.14222,157.024 C1044.14222,153.936 1045.50222,152.128 1048.41422,152.128 C1050.89422,152.128 1052.41422,153.568 1052.41422,156.64 C1052.41422,157.008 1052.39822,157.472 1052.35022,157.808 L1046.70222,157.808 C1046.83022,159.424 1047.61422,160.032 1049.27822,160.032 C1050.19022,160.032 1051.03822,159.872 1051.87022,159.552 L1052.14222,161.552 C1051.32622,161.92 1050.20622,162.176 1048.97422,162.176 Z M1046.65422,156.16 L1050.14222,156.16 C1050.11022,154.736 1049.47022,154.192 1048.43022,154.192 C1047.23022,154.192 1046.76622,154.752 1046.65422,156.16 Z M1058.93792,154.16 L1056.77792,154.16 L1056.77792,159.12 C1056.77792,159.872 1057.16192,160.192 1057.92992,160.192 C1058.18592,160.192 1058.52192,160.144 1058.69792,160.08 L1058.84192,161.888 C1058.50592,162.032 1057.86592,162.16 1057.17792,162.16 C1055.24192,162.16 1054.29792,161.04 1054.29792,159.2 L1054.29792,154.16 L1053.20992,154.16 L1053.20992,152.304 L1054.40992,152.304 L1054.82592,150.112 L1056.77792,149.936 L1056.77792,152.304 L1058.93792,152.304 L1058.93792,154.16 Z M1067.44133,159.568 L1072.38533,159.568 L1072.32133,162 L1064.72133,162 L1064.72133,150 L1067.44133,150 L1067.44133,159.568 Z M1079.13303,162 L1078.94103,161.072 L1078.89303,161.056 C1078.30103,161.76 1077.37303,162.16 1076.26903,162.16 C1074.42903,162.16 1073.26103,161.12 1073.26103,158.944 C1073.26103,157.152 1074.50903,155.92 1076.71703,155.92 C1077.43703,155.92 1078.06103,156.032 1078.57303,156.192 L1078.57303,155.632 C1078.57303,154.656 1078.06103,154.208 1076.73303,154.208 C1075.66103,154.208 1074.95703,154.368 1074.06103,154.736 L1073.85303,152.752 C1074.82903,152.336 1075.93303,152.112 1077.18103,152.112 C1080.04503,152.112 1081.03703,153.344 1081.03703,156 L1081.03703,162 L1079.13303,162 Z M1078.57303,159.056 L1078.57303,157.84 C1078.33303,157.744 1077.85303,157.632 1077.19703,157.632 C1076.09303,157.632 1075.58103,158.064 1075.58103,158.912 C1075.58103,159.856 1076.14103,160.192 1076.95703,160.192 C1077.80503,160.192 1078.57303,159.68 1078.57303,159.056 Z M1091.00073,152.304 L1091.00073,158.576 C1091.00073,160.928 1089.67273,162.176 1086.92073,162.176 C1084.16873,162.176 1082.84073,160.88 1082.84073,158.576 L1082.84073,152.304 L1085.32073,152.304 L1085.32073,158.528 C1085.32073,159.488 1085.83273,159.984 1086.92073,159.984 C1088.00873,159.984 1088.52073,159.52 1088.52073,158.528 L1088.52073,152.304 L1091.00073,152.304 Z M1101.07643,162 L1098.59643,162 L1098.59643,155.824 C1098.59643,154.752 1098.05243,154.32 1097.02843,154.32 C1096.40443,154.32 1095.73243,154.592 1095.39643,155.056 L1095.39643,162 L1092.90043,162 L1092.90043,152.352 L1094.69243,152.24 L1095.06043,153.072 C1095.78043,152.448 1096.72443,152.112 1097.73243,152.112 C1099.78043,152.112 1101.07643,153.408 1101.07643,155.824 L1101.07643,162 Z M1109.31214,152.56 L1109.16814,154.672 C1108.67214,154.496 1108.08014,154.368 1107.52014,154.368 C1105.71214,154.368 1105.12014,155.12 1105.12014,157.168 C1105.12014,159.248 1105.96814,160.064 1107.47214,160.064 C1108.11214,160.064 1108.72014,159.936 1109.23214,159.696 L1109.40814,161.632 C1108.83214,161.984 1107.96814,162.192 1106.92814,162.192 C1104.06414,162.192 1102.54414,160.56 1102.54414,157.168 C1102.54414,153.952 1103.87214,152.144 1106.97614,152.144 C1107.79214,152.144 1108.70414,152.32 1109.31214,152.56 Z M1119.11584,162 L1116.63584,162 L1116.63584,155.824 C1116.63584,154.832 1116.13984,154.32 1115.08384,154.32 C1114.36384,154.32 1113.73984,154.64 1113.43584,155.056 L1113.43584,162 L1110.95584,162 L1110.95584,149.552 L1113.43584,149.424 L1113.43584,151.632 L1113.40384,152.912 L1113.45184,152.944 C1114.17184,152.336 1115.05184,152.112 1115.86784,152.112 C1117.91584,152.112 1119.11584,153.488 1119.11584,155.824 L1119.11584,162 Z M1000.808,170.376 L1002.68,170.536 C1001.288,172.6 1000.632,175.16 1000.632,177.784 C1000.632,180.44 1001.32,182.984 1002.664,185.016 L1000.808,185.176 C999.144,183.352 998.248,180.68 998.248,177.784 C998.248,174.824 999.112,172.28 1000.808,170.376 Z M1006.4197,183 L1003.9077,183 L1003.9077,170.536 L1006.4197,170.424 L1006.4197,183 Z M1014.11141,183 L1013.91941,182.072 L1013.87141,182.056 C1013.27941,182.76 1012.35141,183.16 1011.24741,183.16 C1009.40741,183.16 1008.23941,182.12 1008.23941,179.944 C1008.23941,178.152 1009.48741,176.92 1011.69541,176.92 C1012.41541,176.92 1013.03941,177.032 1013.55141,177.192 L1013.55141,176.632 C1013.55141,175.656 1013.03941,175.208 1011.71141,175.208 C1010.63941,175.208 1009.93541,175.368 1009.03941,175.736 L1008.83141,173.752 C1009.80741,173.336 1010.91141,173.112 1012.15941,173.112 C1015.02341,173.112 1016.01541,174.344 1016.01541,177 L1016.01541,183 L1014.11141,183 Z M1013.55141,180.056 L1013.55141,178.84 C1013.31141,178.744 1012.83141,178.632 1012.17541,178.632 C1011.07141,178.632 1010.55941,179.064 1010.55941,179.912 C1010.55941,180.856 1011.11941,181.192 1011.93541,181.192 C1012.78341,181.192 1013.55141,180.68 1013.55141,180.056 Z M1020.41111,183 L1017.91511,183 L1017.91511,173.368 L1019.89911,173.272 L1020.12311,174.888 L1020.17111,174.888 C1020.77911,173.72 1021.72311,173.144 1022.82711,173.144 C1023.25911,173.144 1023.62711,173.208 1023.88311,173.288 L1023.72311,175.736 C1023.41911,175.64 1023.05111,175.576 1022.66711,175.576 C1021.37111,175.576 1020.41111,176.52 1020.41111,178.136 L1020.41111,183 Z M1028.83881,179.096 C1028.42281,179.096 1028.00681,179.064 1027.62281,179 C1027.41481,179.112 1027.28681,179.288 1027.28681,179.464 C1027.28681,179.704 1027.49481,179.88 1027.92681,179.912 L1030.23081,180.04 C1032.50281,180.168 1033.36681,181.016 1033.36681,182.504 C1033.36681,184.44 1032.07081,185.64 1028.91881,185.64 C1026.13481,185.64 1024.98281,184.552 1024.98281,183.08 C1024.98281,182.504 1025.23881,181.944 1025.73481,181.512 C1025.31881,181.208 1024.99881,180.744 1024.99881,180.088 C1024.99881,179.448 1025.36681,178.808 1026.16681,178.424 C1025.52681,177.96 1025.11081,177.24 1025.11081,176.136 C1025.11081,174.376 1026.13481,173.128 1028.82281,173.128 C1029.65481,173.128 1030.55081,173.256 1031.23881,173.656 L1032.88681,173.128 L1033.39881,174.312 L1032.37481,175.112 C1032.47081,175.4 1032.51881,175.752 1032.51881,176.136 C1032.51881,178.008 1031.46281,179.096 1028.83881,179.096 Z M1029.79881,182.136 L1027.49481,181.976 C1027.23881,182.216 1027.09481,182.504 1027.09481,182.76 C1027.09481,183.432 1027.60681,183.768 1028.87081,183.768 C1030.69481,183.768 1031.14281,183.416 1031.14281,182.872 C1031.14281,182.424 1030.88681,182.216 1029.79881,182.136 Z M1028.85481,175 C1027.89481,175 1027.55881,175.352 1027.55881,176.2 C1027.55881,177.144 1028.05481,177.384 1028.79081,177.384 C1029.83081,177.384 1030.13481,177.064 1030.13481,176.184 C1030.13481,175.304 1029.76681,175 1028.85481,175 Z M1038.85051,183.176 C1035.50651,183.176 1034.01851,181.416 1034.01851,178.024 C1034.01851,174.936 1035.37851,173.128 1038.29051,173.128 C1040.77051,173.128 1042.29051,174.568 1042.29051,177.64 C1042.29051,178.008 1042.27451,178.472 1042.22651,178.808 L1036.57851,178.808 C1036.70651,180.424 1037.49051,181.032 1039.15451,181.032 C1040.06651,181.032 1040.91451,180.872 1041.74651,180.552 L1042.01851,182.552 C1041.20251,182.92 1040.08251,183.176 1038.85051,183.176 Z M1036.53051,177.16 L1040.01851,177.16 C1039.98651,175.736 1039.34651,175.192 1038.30651,175.192 C1037.10651,175.192 1036.64251,175.752 1036.53051,177.16 Z M1054.55392,179.96 C1054.55392,181.896 1053.48192,183.192 1050.85792,183.192 C1049.68992,183.192 1048.63392,182.968 1047.81792,182.52 L1048.07392,180.472 C1048.87392,180.936 1050.00992,181.16 1050.84192,181.16 C1051.83392,181.16 1052.24992,180.76 1052.24992,180.184 C1052.24992,178.632 1047.75392,179.528 1047.75392,176.136 C1047.75392,174.392 1048.93792,173.144 1051.43392,173.144 C1052.40992,173.144 1053.36992,173.336 1054.18592,173.672 L1053.97792,175.704 C1053.17792,175.368 1052.10592,175.208 1051.38592,175.208 C1050.56992,175.208 1050.12192,175.528 1050.12192,176.024 C1050.12192,177.496 1054.55392,176.616 1054.55392,179.96 Z M1062.40562,173.56 L1062.26162,175.672 C1061.76562,175.496 1061.17362,175.368 1060.61362,175.368 C1058.80562,175.368 1058.21362,176.12 1058.21362,178.168 C1058.21362,180.248 1059.06162,181.064 1060.56562,181.064 C1061.20562,181.064 1061.81362,180.936 1062.32562,180.696 L1062.50162,182.632 C1061.92562,182.984 1061.06162,183.192 1060.02162,183.192 C1057.15762,183.192 1055.63762,181.56 1055.63762,178.168 C1055.63762,174.952 1056.96562,173.144 1060.06962,173.144 C1060.88562,173.144 1061.79762,173.32 1062.40562,173.56 Z M1069.37733,183 L1069.18533,182.072 L1069.13733,182.056 C1068.54533,182.76 1067.61733,183.16 1066.51333,183.16 C1064.67333,183.16 1063.50533,182.12 1063.50533,179.944 C1063.50533,178.152 1064.75333,176.92 1066.96133,176.92 C1067.68133,176.92 1068.30533,177.032 1068.81733,177.192 L1068.81733,176.632 C1068.81733,175.656 1068.30533,175.208 1066.97733,175.208 C1065.90533,175.208 1065.20133,175.368 1064.30533,175.736 L1064.09733,173.752 C1065.07333,173.336 1066.17733,173.112 1067.42533,173.112 C1070.28933,173.112 1071.28133,174.344 1071.28133,177 L1071.28133,183 L1069.37733,183 Z M1068.81733,180.056 L1068.81733,178.84 C1068.57733,178.744 1068.09733,178.632 1067.44133,178.632 C1066.33733,178.632 1065.82533,179.064 1065.82533,179.912 C1065.82533,180.856 1066.38533,181.192 1067.20133,181.192 C1068.04933,181.192 1068.81733,180.68 1068.81733,180.056 Z M1075.88503,183 L1073.37303,183 L1073.37303,170.536 L1075.88503,170.424 L1075.88503,183 Z M1082.47273,183.176 C1079.12873,183.176 1077.64073,181.416 1077.64073,178.024 C1077.64073,174.936 1079.00073,173.128 1081.91273,173.128 C1084.39273,173.128 1085.91273,174.568 1085.91273,177.64 C1085.91273,178.008 1085.89673,178.472 1085.84873,178.808 L1080.20073,178.808 C1080.32873,180.424 1081.11273,181.032 1082.77673,181.032 C1083.68873,181.032 1084.53673,180.872 1085.36873,180.552 L1085.64073,182.552 C1084.82473,182.92 1083.70473,183.176 1082.47273,183.176 Z M1080.15273,177.16 L1083.64073,177.16 C1083.60873,175.736 1082.96873,175.192 1081.92873,175.192 C1080.72873,175.192 1080.26473,175.752 1080.15273,177.16 Z M1086.51643,170.536 L1088.38843,170.376 C1090.06843,172.28 1090.94843,174.824 1090.94843,177.784 C1090.94843,180.68 1090.05243,183.352 1088.38843,185.176 L1086.51643,185.016 C1087.87643,182.984 1088.54843,180.44 1088.54843,177.784 C1088.54843,175.16 1087.89243,172.6 1086.51643,170.536 Z" id="Test-net-Launch-(lar" fill="#5B6C72"></path>
                <path d="M421.094,160.278 L426.134,160.278 L426.092,162 L419.162,162 L419.162,151.5 L425.882,151.5 L425.91,153.25 L421.094,153.25 L421.094,155.784 L425.182,155.784 L425.182,157.366 L421.094,157.366 L421.094,160.278 Z M432.79296,162 L431.46296,159.536 L430.95896,158.528 L430.91696,158.528 L430.41296,159.55 L429.11096,162 L427.12296,162 L429.75496,157.744 L427.17896,153.572 L429.26496,153.572 L430.51096,155.896 L431.02896,156.89 L431.07096,156.89 L431.57496,155.882 L432.80696,153.572 L434.80896,153.572 L432.31696,157.702 L434.87896,162 L432.79296,162 Z M441.39792,153.824 L441.28592,155.392 C440.82392,155.196 440.26392,155.07 439.73192,155.07 C438.03792,155.07 437.44992,155.826 437.44992,157.772 C437.44992,159.83 438.24792,160.614 439.68992,160.614 C440.29192,160.614 440.87992,160.474 441.34192,160.222 L441.46792,161.65 C440.97792,161.972 440.20792,162.182 439.31192,162.182 C436.87592,162.182 435.60192,160.782 435.60192,157.772 C435.60192,154.958 436.73592,153.446 439.35392,153.446 C440.08192,153.446 440.85192,153.6 441.39792,153.824 Z M449.90488,162 L448.11288,162 L448.11288,156.54 C448.11288,155.56 447.60888,155.042 446.51688,155.042 C445.77488,155.042 445.13088,155.378 444.83688,155.826 L444.83688,162 L443.05888,162 L443.05888,151.038 L444.83688,150.94 L444.83688,153.096 L444.80888,154.216 L444.85088,154.244 C445.48088,153.656 446.27888,153.418 447.07688,153.418 C448.86888,153.418 449.90488,154.552 449.90488,156.54 L449.90488,162 Z M456.63384,162 L456.47984,161.104 L456.43784,161.09 C455.91984,161.748 455.06584,162.14 454.05784,162.14 C452.48984,162.14 451.45384,161.272 451.45384,159.396 C451.45384,157.814 452.51784,156.792 454.47784,156.792 C455.13584,156.792 455.75184,156.904 456.22784,157.058 L456.22784,156.428 C456.22784,155.378 455.72384,154.958 454.46384,154.958 C453.55384,154.958 452.89584,155.098 452.12584,155.434 L451.97184,153.964 C452.79784,153.6 453.73584,153.418 454.78584,153.418 C457.13784,153.418 457.99184,154.426 457.99184,156.694 L457.99184,162 L456.63384,162 Z M456.22784,159.522 L456.22784,158.29 C456.01784,158.192 455.49984,158.052 454.79984,158.052 C453.65184,158.052 453.13384,158.514 453.13384,159.368 C453.13384,160.348 453.72184,160.698 454.54784,160.698 C455.42984,160.698 456.22784,160.138 456.22784,159.522 Z M466.7508,162 L464.9728,162 L464.9728,156.554 C464.9728,155.49 464.3988,155.042 463.3628,155.042 C462.7328,155.042 462.0328,155.322 461.6828,155.812 L461.6828,162 L459.9048,162 L459.9048,153.614 L461.1788,153.516 L461.4588,154.328 C462.0888,153.74 462.9428,153.418 463.8528,153.418 C465.6308,153.418 466.7508,154.496 466.7508,156.54 L466.7508,162 Z M471.63176,158.528 C471.25376,158.528 470.87576,158.5 470.52576,158.43 C470.24576,158.542 470.07776,158.724 470.07776,158.934 C470.07776,159.172 470.27376,159.368 470.70776,159.396 L472.73776,159.536 C474.73976,159.676 475.45376,160.376 475.45376,161.622 C475.45376,163.246 474.40376,164.268 471.71576,164.268 C469.36376,164.268 468.36976,163.344 468.36976,162.042 C468.36976,161.496 468.62176,160.978 469.09776,160.586 C468.71976,160.348 468.43976,159.942 468.43976,159.382 C468.43976,158.822 468.77576,158.304 469.47576,158.01 L469.48976,157.982 C468.90176,157.604 468.52376,156.988 468.52376,156.008 C468.52376,154.454 469.37776,153.432 471.63176,153.432 C472.35976,153.432 473.12976,153.544 473.71776,153.922 L475.11776,153.418 L475.49576,154.3 L474.55776,155 C474.66976,155.28 474.72576,155.616 474.72576,156.008 C474.72576,157.618 473.87176,158.528 471.63176,158.528 Z M472.42976,161.076 L470.39976,160.922 C470.07776,161.188 469.89576,161.524 469.89576,161.818 C469.89576,162.518 470.41376,162.896 471.67376,162.896 C473.40976,162.896 473.84376,162.49 473.84376,161.888 C473.84376,161.412 473.57776,161.16 472.42976,161.076 Z M471.64576,154.804 C470.63776,154.804 470.27376,155.196 470.27376,156.036 C470.27376,157.016 470.81976,157.268 471.60376,157.268 C472.69576,157.268 473.01776,156.89 473.01776,156.036 C473.01776,155.126 472.61176,154.804 471.64576,154.804 Z M480.27872,162.154 C477.43672,162.154 476.20472,160.656 476.20472,157.632 C476.20472,154.958 477.38072,153.432 479.81672,153.432 C481.88872,153.432 483.21872,154.65 483.21872,157.338 C483.21872,157.604 483.20472,157.94 483.17672,158.192 L478.05272,158.192 C478.13672,159.956 478.87872,160.572 480.48872,160.572 C481.31472,160.572 482.04272,160.418 482.75672,160.11 L482.96672,161.58 C482.25272,161.93 481.32872,162.154 480.27872,162.154 Z M478.01072,156.988 L481.58072,156.988 C481.55272,155.504 480.88072,154.944 479.83072,154.944 C478.61272,154.944 478.09472,155.56 478.01072,156.988 Z M493.56864,162 L493.41464,161.104 L493.37264,161.09 C492.85464,161.748 492.00064,162.14 490.99264,162.14 C489.42464,162.14 488.38864,161.272 488.38864,159.396 C488.38864,157.814 489.45264,156.792 491.41264,156.792 C492.07064,156.792 492.68664,156.904 493.16264,157.058 L493.16264,156.428 C493.16264,155.378 492.65864,154.958 491.39864,154.958 C490.48864,154.958 489.83064,155.098 489.06064,155.434 L488.90664,153.964 C489.73264,153.6 490.67064,153.418 491.72064,153.418 C494.07264,153.418 494.92664,154.426 494.92664,156.694 L494.92664,162 L493.56864,162 Z M493.16264,159.522 L493.16264,158.29 C492.95264,158.192 492.43464,158.052 491.73464,158.052 C490.58664,158.052 490.06864,158.514 490.06864,159.368 C490.06864,160.348 490.65664,160.698 491.48264,160.698 C492.36464,160.698 493.16264,160.138 493.16264,159.522 Z M503.6856,162 L501.9076,162 L501.9076,156.554 C501.9076,155.49 501.3336,155.042 500.2976,155.042 C499.6676,155.042 498.9676,155.322 498.6176,155.812 L498.6176,162 L496.8396,162 L496.8396,153.614 L498.1136,153.516 L498.3936,154.328 C499.0236,153.74 499.8776,153.418 500.7876,153.418 C502.5656,153.418 503.6856,154.496 503.6856,156.54 L503.6856,162 Z M512.37456,162 L510.98856,162 L510.79256,161.202 L510.75056,161.188 C510.23256,161.818 509.47656,162.168 508.39856,162.168 C506.18656,162.168 505.16456,160.768 505.16456,157.758 C505.16456,154.958 506.20056,153.418 508.38456,153.418 C509.23856,153.418 510.02256,153.712 510.59656,154.272 L510.62456,154.244 L510.59656,153.124 L510.59656,151.038 L512.37456,150.94 L512.37456,162 Z M510.59656,159.844 L510.59656,155.826 C510.28856,155.364 509.67256,155.056 508.90256,155.056 C507.51656,155.056 507.01256,155.784 507.01256,157.828 C507.01256,159.97 507.46056,160.684 508.88856,160.684 C509.85456,160.684 510.37256,160.236 510.59656,159.844 Z M522.66848,153.572 L524.54448,153.572 L525.86048,159.466 L526.08448,160.572 L526.12648,160.572 L526.30848,159.452 L527.44248,153.572 L529.17848,153.572 L527.23248,162 L525.02048,162 L523.87248,156.568 L523.66248,155.448 L523.62048,155.448 L523.39648,156.568 L522.19248,162 L520.00848,162 L517.95048,153.572 L519.74248,153.572 L520.91848,159.438 L521.12848,160.544 L521.17048,160.544 L521.38048,159.438 L522.66848,153.572 Z M535.29144,162 L535.13744,161.104 L535.09544,161.09 C534.57744,161.748 533.72344,162.14 532.71544,162.14 C531.14744,162.14 530.11144,161.272 530.11144,159.396 C530.11144,157.814 531.17544,156.792 533.13544,156.792 C533.79344,156.792 534.40944,156.904 534.88544,157.058 L534.88544,156.428 C534.88544,155.378 534.38144,154.958 533.12144,154.958 C532.21144,154.958 531.55344,155.098 530.78344,155.434 L530.62944,153.964 C531.45544,153.6 532.39344,153.418 533.44344,153.418 C535.79544,153.418 536.64944,154.426 536.64944,156.694 L536.64944,162 L535.29144,162 Z M534.88544,159.522 L534.88544,158.29 C534.67544,158.192 534.15744,158.052 533.45744,158.052 C532.30944,158.052 531.79144,158.514 531.79144,159.368 C531.79144,160.348 532.37944,160.698 533.20544,160.698 C534.08744,160.698 534.88544,160.138 534.88544,159.522 Z M540.5644,162 L538.7724,162 L538.7724,151.038 L540.5644,150.94 L540.5644,162 Z M544.81536,162 L543.02336,162 L543.02336,151.038 L544.81536,150.94 L544.81536,162 Z M550.70432,162.154 C547.86232,162.154 546.63032,160.656 546.63032,157.632 C546.63032,154.958 547.80632,153.432 550.24232,153.432 C552.31432,153.432 553.64432,154.65 553.64432,157.338 C553.64432,157.604 553.63032,157.94 553.60232,158.192 L548.47832,158.192 C548.56232,159.956 549.30432,160.572 550.91432,160.572 C551.74032,160.572 552.46832,160.418 553.18232,160.11 L553.39232,161.58 C552.67832,161.93 551.75432,162.154 550.70432,162.154 Z M548.43632,156.988 L552.00632,156.988 C551.97832,155.504 551.30632,154.944 550.25632,154.944 C549.03832,154.944 548.52032,155.56 548.43632,156.988 Z M559.28128,154.944 L557.30728,154.944 L557.30728,159.634 C557.30728,160.376 557.69928,160.684 558.41328,160.684 C558.63728,160.684 558.94528,160.642 559.09928,160.586 L559.21128,161.916 C558.93128,162.042 558.41328,162.14 557.89528,162.14 C556.31328,162.14 555.52928,161.23 555.52928,159.676 L555.52928,154.944 L554.47928,154.944 L554.47928,153.572 L555.58528,153.572 L555.90728,151.598 L557.30728,151.458 L557.30728,153.572 L559.28128,153.572 L559.28128,154.944 Z M421.108,178.222 L425.686,178.222 L425.644,180 L419.162,180 L419.162,169.5 L421.108,169.5 L421.108,178.222 Z M431.78496,180 L431.63096,179.104 L431.58896,179.09 C431.07096,179.748 430.21696,180.14 429.20896,180.14 C427.64096,180.14 426.60496,179.272 426.60496,177.396 C426.60496,175.814 427.66896,174.792 429.62896,174.792 C430.28696,174.792 430.90296,174.904 431.37896,175.058 L431.37896,174.428 C431.37896,173.378 430.87496,172.958 429.61496,172.958 C428.70496,172.958 428.04696,173.098 427.27696,173.434 L427.12296,171.964 C427.94896,171.6 428.88696,171.418 429.93696,171.418 C432.28896,171.418 433.14296,172.426 433.14296,174.694 L433.14296,180 L431.78496,180 Z M431.37896,177.522 L431.37896,176.29 C431.16896,176.192 430.65096,176.052 429.95096,176.052 C428.80296,176.052 428.28496,176.514 428.28496,177.368 C428.28496,178.348 428.87296,178.698 429.69896,178.698 C430.58096,178.698 431.37896,178.138 431.37896,177.522 Z M441.78992,171.572 L441.78992,177.116 C441.78992,179.09 440.66992,180.154 438.35992,180.154 C436.04992,180.154 434.94392,179.048 434.94392,177.116 L434.94392,171.572 L436.72192,171.572 L436.72192,177.074 C436.72192,178.04 437.25392,178.544 438.37392,178.544 C439.46592,178.544 440.01192,178.054 440.01192,177.074 L440.01192,171.572 L441.78992,171.572 Z M450.54888,180 L448.77088,180 L448.77088,174.554 C448.77088,173.49 448.19688,173.042 447.16088,173.042 C446.53088,173.042 445.83088,173.322 445.48088,173.812 L445.48088,180 L443.70288,180 L443.70288,171.614 L444.97688,171.516 L445.25688,172.328 C445.88688,171.74 446.74088,171.418 447.65088,171.418 C449.42888,171.418 450.54888,172.496 450.54888,174.54 L450.54888,180 Z M457.82384,171.824 L457.71184,173.392 C457.24984,173.196 456.68984,173.07 456.15784,173.07 C454.46384,173.07 453.87584,173.826 453.87584,175.772 C453.87584,177.83 454.67384,178.614 456.11584,178.614 C456.71784,178.614 457.30584,178.474 457.76784,178.222 L457.89384,179.65 C457.40384,179.972 456.63384,180.182 455.73784,180.182 C453.30184,180.182 452.02784,178.782 452.02784,175.772 C452.02784,172.958 453.16184,171.446 455.77984,171.446 C456.50784,171.446 457.27784,171.6 457.82384,171.824 Z M466.3308,180 L464.5388,180 L464.5388,174.54 C464.5388,173.56 464.0348,173.042 462.9428,173.042 C462.2008,173.042 461.5568,173.378 461.2628,173.826 L461.2628,180 L459.4848,180 L459.4848,169.038 L461.2628,168.94 L461.2628,171.096 L461.2348,172.216 L461.2768,172.244 C461.9068,171.656 462.7048,171.418 463.5028,171.418 C465.2948,171.418 466.3308,172.552 466.3308,174.54 L466.3308,180 Z M472.03272,174.554 L475.91072,174.554 L475.91072,175.884 L472.03272,175.884 L472.03272,174.554 Z M489.63464,176.976 C489.63464,178.852 488.59864,180 486.06464,180 L481.87864,180 L481.87864,169.5 L485.95264,169.5 C488.15064,169.5 489.24264,170.466 489.24264,172.16 C489.24264,173.378 488.68264,174.092 487.82864,174.428 L487.82864,174.456 C488.99064,174.778 489.63464,175.604 489.63464,176.976 Z M487.70264,176.822 C487.70264,175.8 487.21264,175.352 486.03664,175.352 L483.74064,175.352 L483.74064,178.376 L486.07864,178.376 C487.15664,178.376 487.70264,177.998 487.70264,176.822 Z M487.39464,172.51 C487.39464,171.53 486.93264,171.166 485.88264,171.166 L483.74064,171.166 L483.74064,173.882 L485.96664,173.882 C486.94664,173.882 487.39464,173.448 487.39464,172.51 Z M495.0196,180.154 C492.1776,180.154 490.9456,178.656 490.9456,175.632 C490.9456,172.958 492.1216,171.432 494.5576,171.432 C496.6296,171.432 497.9596,172.65 497.9596,175.338 C497.9596,175.604 497.9456,175.94 497.9176,176.192 L492.7936,176.192 C492.8776,177.956 493.6196,178.572 495.2296,178.572 C496.0556,178.572 496.7836,178.418 497.4976,178.11 L497.7076,179.58 C496.9936,179.93 496.0696,180.154 495.0196,180.154 Z M492.7516,174.988 L496.3216,174.988 C496.2936,173.504 495.6216,172.944 494.5716,172.944 C493.3536,172.944 492.8356,173.56 492.7516,174.988 Z M503.59656,172.944 L501.62256,172.944 L501.62256,177.634 C501.62256,178.376 502.01456,178.684 502.72856,178.684 C502.95256,178.684 503.26056,178.642 503.41456,178.586 L503.52656,179.916 C503.24656,180.042 502.72856,180.14 502.21056,180.14 C500.62856,180.14 499.84456,179.23 499.84456,177.676 L499.84456,172.944 L498.79456,172.944 L498.79456,171.572 L499.90056,171.572 L500.22256,169.598 L501.62256,169.458 L501.62256,171.572 L503.59656,171.572 L503.59656,172.944 Z M509.73752,180 L509.58352,179.104 L509.54152,179.09 C509.02352,179.748 508.16952,180.14 507.16152,180.14 C505.59352,180.14 504.55752,179.272 504.55752,177.396 C504.55752,175.814 505.62152,174.792 507.58152,174.792 C508.23952,174.792 508.85552,174.904 509.33152,175.058 L509.33152,174.428 C509.33152,173.378 508.82752,172.958 507.56752,172.958 C506.65752,172.958 505.99952,173.098 505.22952,173.434 L505.07552,171.964 C505.90152,171.6 506.83952,171.418 507.88952,171.418 C510.24152,171.418 511.09552,172.426 511.09552,174.694 L511.09552,180 L509.73752,180 Z M509.33152,177.522 L509.33152,176.29 C509.12152,176.192 508.60352,176.052 507.90352,176.052 C506.75552,176.052 506.23752,176.514 506.23752,177.368 C506.23752,178.348 506.82552,178.698 507.65152,178.698 C508.53352,178.698 509.33152,178.138 509.33152,177.522 Z" id="Exchange-and-wallet" fill="#5B6C72"></path>
                <polygon id="Line-15-Copy" fill="#2CBEDF" fill-rule="nonzero" points="7.4464922 117 9.4464922 117 9.4464922 125 7.4464922 125"></polygon>
            </g>
        </g>
    </g>
</svg>