<?xml version="1.0" encoding="UTF-8"?>
<svg width="1153px" height="500px" viewBox="0 0 1153 500" version="1.1" xmlns="http://www.w3.org/2000/svg" xmlns:xlink="http://www.w3.org/1999/xlink">
    <!-- Generator: Sketch 48.1 (47250) - http://www.bohemiancoding.com/sketch -->
    <title>2019 copy</title>
    <desc>Created with Sketch.</desc>
    <defs>
        <linearGradient x1="98.6325693%" y1="2.40447662e-09%" x2="5.97823529%" y2="2.40447662e-09%" id="linearGradient-1">
            <stop stop-color="#B796F2" offset="0%"></stop>
            <stop stop-color="#50E3C2" offset="54.2270532%"></stop>
            <stop stop-color="#2CBEDF" offset="100%"></stop>
        </linearGradient>
        <linearGradient x1="49.9966144%" y1="49.99945%" x2="-0.00338564357%" y2="-0.000549999979%" id="linearGradient-2">
            <stop stop-color="#2CBEDF" stop-opacity="0" offset="0%"></stop>
            <stop stop-color="#B996F4" offset="100%"></stop>
        </linearGradient>
        <linearGradient x1="100%" y1="0%" x2="3.69043566%" y2="100.685467%" id="linearGradient-3">
            <stop stop-color="#B795F2" offset="0%"></stop>
            <stop stop-color="#62AEE7" offset="47.8865236%"></stop>
            <stop stop-color="#B895F4" offset="100%"></stop>
        </linearGradient>
        <linearGradient x1="10.6218375%" y1="100%" x2="92.0323042%" y2="100%" id="linearGradient-4">
            <stop stop-color="#B695F2" offset="0%"></stop>
            <stop stop-color="#2CBEDF" offset="100%"></stop>
        </linearGradient>
        <linearGradient x1="-6.25277607e-10%" y1="99.9960833%" x2="-6.25277607e-10%" y2="12.9546619%" id="linearGradient-5">
            <stop stop-color="#4EE1C4" offset="0%"></stop>
            <stop stop-color="#29B0D5" stop-opacity="0" offset="100%"></stop>
        </linearGradient>
        <linearGradient x1="-6.25277607e-10%" y1="99.9960833%" x2="-6.25277607e-10%" y2="12.9546619%" id="linearGradient-6">
            <stop stop-color="#A4A4E9" offset="0%"></stop>
            <stop stop-color="#29B0D5" stop-opacity="0" offset="100%"></stop>
        </linearGradient>
        <linearGradient x1="-6.25277607e-10%" y1="99.9960833%" x2="-6.25277607e-10%" y2="12.9546619%" id="linearGradient-7">
            <stop stop-color="#3FB8E2" offset="0%"></stop>
            <stop stop-color="#29B0D5" stop-opacity="0" offset="100%"></stop>
        </linearGradient>
        <linearGradient x1="-0.00176470588%" y1="2.40447662e-09%" x2="94.9482353%" y2="2.40447662e-09%" id="linearGradient-8">
            <stop stop-color="#BA96F4" offset="0%"></stop>
            <stop stop-color="#2CBEDF" offset="100%"></stop>
        </linearGradient>
        <linearGradient x1="-0.00176470588%" y1="2.40447662e-09%" x2="93.8382353%" y2="2.40447662e-09%" id="linearGradient-9">
            <stop stop-color="#2CBEDF" offset="0%"></stop>
            <stop stop-color="#48F0D5" offset="100%"></stop>
        </linearGradient>
        <linearGradient x1="-6.25277607e-10%" y1="99.9960833%" x2="-6.25277607e-10%" y2="12.9546619%" id="linearGradient-10">
            <stop stop-color="#40E1D8" offset="0%"></stop>
            <stop stop-color="#29B0D5" stop-opacity="0" offset="100%"></stop>
        </linearGradient>
        <linearGradient x1="-6.25277607e-10%" y1="99.9960833%" x2="-6.25277607e-10%" y2="12.9546619%" id="linearGradient-11">
            <stop stop-color="#2CBEDF" offset="0%"></stop>
            <stop stop-color="#29B0D5" stop-opacity="0" offset="100%"></stop>
        </linearGradient>
        <linearGradient x1="-6.25277607e-10%" y1="99.9960833%" x2="-6.25277607e-10%" y2="12.9546619%" id="linearGradient-12">
            <stop stop-color="#8DA1ED" offset="0%"></stop>
            <stop stop-color="#29B0D5" stop-opacity="0" offset="100%"></stop>
        </linearGradient>
    </defs>
    <g id="Page-1" stroke="none" stroke-width="1" fill="none" fill-rule="evenodd">
        <g id="2019-copy">
            <g id="Group" transform="translate(0.000000, 150.000000)">
                <path d="M199.5,132.5 C196.186292,132.5 193.5,129.813708 193.5,126.5 C193.5,123.186292 196.186292,120.5 199.5,120.5 C202.813708,120.5 205.5,123.186292 205.5,126.5 C205.5,129.813708 202.813708,132.5 199.5,132.5 Z" id="Oval-8-Copy-32" fill="#8DA1ED" fill-rule="nonzero"></path>
                <polygon id="Stroke-49-Copy-8" fill="url(#linearGradient-1)" fill-rule="nonzero" points="204 127 204 125 617.5 125 617.5 127"></polygon>
                <path d="M167.1,124.927 L167.1,126.927 L101.5,126.927 C100.923858,126.927 100.5,126.503142 100.5,125.927 C100.5,125.350858 100.923858,124.927 101.5,124.927 L167.1,124.927 Z" id="Shape" fill="#B695F2" fill-rule="nonzero"></path>
                <polygon id="Shape" stroke="#B695F2" stroke-width="2" fill="#F4F4F4" fill-rule="nonzero" stroke-linecap="round" stroke-linejoin="round" points="136.7 112.627 160.2 126.127 136.7 139.727"></polygon>
                <g id="Group-2" transform="translate(128.000000, 78.000000)" fill="#2A5C96">
                    <path d="M7.112,3.08 C7.112,4.984 5.446,6.566 3.066,8.554 L3.066,8.596 L7.098,8.596 L7.056,10.626 L0.084,10.626 L0.084,9.114 C2.604,6.622 4.732,4.858 4.732,3.304 C4.732,2.576 4.256,2.058 3.08,2.058 C2.156,2.058 1.316,2.436 0.546,2.982 L0,1.106 C0.868,0.448 2.072,0 3.5,0 C5.908,0 7.112,1.246 7.112,3.08 Z" id="Path"></path>
                    <path d="M16.798,5.418 C16.798,9.184 15.608,10.766 12.878,10.766 C10.134,10.766 9,9.184 9,5.418 C9,1.47 10.134,0 12.906,0 C15.622,0 16.798,1.47 16.798,5.418 Z M14.544,5.39 C14.544,2.52 14.026,2.016 12.906,2.016 C11.758,2.016 11.24,2.562 11.24,5.39 C11.24,8.33 11.758,8.806 12.906,8.806 C14.026,8.806 14.544,8.274 14.544,5.39 Z" id="Combined-Shape"></path>
                    <polygon id="Path" points="19.602 10.5 19.602 8.848 21.156 8.848 21.156 2.786 19.238 3.892 19 1.988 22.122 0 23.508 0 23.508 8.848 25.034 8.848 25.034 10.5"></polygon>
                    <path d="M34.672,4.956 C34.672,9.058 33.188,10.752 30.234,10.752 C29.086,10.752 28.344,10.598 27.574,10.262 L27.896,8.386 C28.582,8.666 29.212,8.806 30.01,8.806 C31.634,8.806 32.306,8.008 32.46,6.216 L32.432,6.188 C31.858,6.566 31.158,6.734 30.332,6.734 C28.078,6.734 27,5.446 27,3.514 C27,1.358 28.176,0 30.724,0 C33.23,0 34.672,1.624 34.672,4.956 Z M32.404,4.228 C32.39,2.492 31.732,1.932 30.682,1.932 C29.702,1.932 29.184,2.394 29.184,3.43 C29.184,4.41 29.646,4.928 30.766,4.928 C31.494,4.928 32.082,4.69 32.404,4.228 Z" id="Combined-Shape"></path>
                </g>
                <path d="M11.2467773,190.958391 C10.9936151,190.848102 10.8777931,190.553467 10.9880816,190.300305 C11.0983701,190.047143 11.393005,189.931321 11.6461671,190.041609 L112.646167,234.041609 C112.899329,234.151898 113.015151,234.446533 112.904863,234.699695 C112.794574,234.952857 112.499939,235.068679 112.246777,234.958391 L11.2467773,190.958391 Z" id="Stroke-74-Copy-2" fill="url(#linearGradient-2)" fill-rule="nonzero"></path>
                <path d="M90.4507895,125.631481 C90.9304508,125.357723 91.5412179,125.524641 91.8149759,126.004302 C92.0887339,126.483963 91.9218163,127.09473 91.4421549,127.368488 L10.9421549,185.868504 C10.4624936,186.142262 9.85172653,185.975344 9.57796852,185.495683 C9.30421051,185.016021 9.47112814,184.405254 9.95078948,184.131496 L90.4507895,125.631481 Z" id="Stroke-74-Copy-11" fill="url(#linearGradient-3)" fill-rule="nonzero"></path>
                <path d="M6,193 C8.76142375,193 11,190.761424 11,188 C11,185.238576 8.76142375,183 6,183 C3.23857625,183 1,185.238576 1,188 C1,190.761424 3.23857625,193 6,193 Z M6,194 C2.6862915,194 0,191.313708 0,188 C0,184.686292 2.6862915,182 6,182 C9.3137085,182 12,184.686292 12,188 C12,191.313708 9.3137085,194 6,194 Z M6,193 C3.23857625,193 1,190.761424 1,188 C1,185.238576 3.23857625,183 6,183 C8.76142375,183 11,185.238576 11,188 C11,190.761424 8.76142375,193 6,193 Z M6,192 C8.209139,192 10,190.209139 10,188 C10,185.790861 8.209139,184 6,184 C3.790861,184 2,185.790861 2,188 C2,190.209139 3.790861,192 6,192 Z" id="Oval-8-Copy-31" fill="#B795F2" fill-rule="nonzero"></path>
                <path d="M96,131 C98.7614237,131 101,128.761424 101,126 C101,123.238576 98.7614237,121 96,121 C93.2385763,121 91,123.238576 91,126 C91,128.761424 93.2385763,131 96,131 Z M96,132 C92.6862915,132 90,129.313708 90,126 C90,122.686292 92.6862915,120 96,120 C99.3137085,120 102,122.686292 102,126 C102,129.313708 99.3137085,132 96,132 Z M96,131 C93.2385763,131 91,128.761424 91,126 C91,123.238576 93.2385763,121 96,121 C98.7614237,121 101,123.238576 101,126 C101,128.761424 98.7614237,131 96,131 Z M96,130 C98.209139,130 100,128.209139 100,126 C100,123.790861 98.209139,122 96,122 C93.790861,122 92,123.790861 92,126 C92,128.209139 93.790861,130 96,130 Z" id="Oval-8-Copy-31-Copy" fill="#B795F2" fill-rule="nonzero"></path>
                <path d="M264,124.927 C264.576142,124.927 265,125.350858 265,125.927 C265,126.503142 264.576142,126.927 264,126.927 L160.3,126.927 L160.3,124.927 L264,124.927 Z" id="Shape" fill="url(#linearGradient-4)" fill-rule="nonzero"></path>
                <path d="M208.168,164.06 L208.168,153.56 L210.128,153.56 L210.128,164.06 L208.168,164.06 Z M219.32224,164.06 L217.54424,164.06 L217.54424,158.614 C217.54424,157.55 216.97024,157.102 215.93424,157.102 C215.30424,157.102 214.60424,157.382 214.25424,157.872 L214.25424,164.06 L212.47624,164.06 L212.47624,155.674 L213.75024,155.576 L214.03024,156.388 C214.66024,155.8 215.51424,155.478 216.42424,155.478 C218.20224,155.478 219.32224,156.556 219.32224,158.6 L219.32224,164.06 Z M225.40848,157.004 L223.43448,157.004 L223.43448,161.694 C223.43448,162.436 223.82648,162.744 224.54048,162.744 C224.76448,162.744 225.07248,162.702 225.22648,162.646 L225.33848,163.976 C225.05848,164.102 224.54048,164.2 224.02248,164.2 C222.44048,164.2 221.65648,163.29 221.65648,161.736 L221.65648,157.004 L220.60648,157.004 L220.60648,155.632 L221.71248,155.632 L222.03448,153.658 L223.43448,153.518 L223.43448,155.632 L225.40848,155.632 L225.40848,157.004 Z M230.31872,164.214 C227.47672,164.214 226.24472,162.716 226.24472,159.692 C226.24472,157.018 227.42072,155.492 229.85672,155.492 C231.92872,155.492 233.25872,156.71 233.25872,159.398 C233.25872,159.664 233.24472,160 233.21672,160.252 L228.09272,160.252 C228.17672,162.016 228.91872,162.632 230.52872,162.632 C231.35472,162.632 232.08272,162.478 232.79672,162.17 L233.00672,163.64 C232.29272,163.99 231.36872,164.214 230.31872,164.214 Z M228.05072,159.048 L231.62072,159.048 C231.59272,157.564 230.92072,157.004 229.87072,157.004 C228.65272,157.004 228.13472,157.62 228.05072,159.048 Z M237.80496,160.588 C237.42696,160.588 237.04896,160.56 236.69896,160.49 C236.41896,160.602 236.25096,160.784 236.25096,160.994 C236.25096,161.232 236.44696,161.428 236.88096,161.456 L238.91096,161.596 C240.91296,161.736 241.62696,162.436 241.62696,163.682 C241.62696,165.306 240.57696,166.328 237.88896,166.328 C235.53696,166.328 234.54296,165.404 234.54296,164.102 C234.54296,163.556 234.79496,163.038 235.27096,162.646 C234.89296,162.408 234.61296,162.002 234.61296,161.442 C234.61296,160.882 234.94896,160.364 235.64896,160.07 L235.66296,160.042 C235.07496,159.664 234.69696,159.048 234.69696,158.068 C234.69696,156.514 235.55096,155.492 237.80496,155.492 C238.53296,155.492 239.30296,155.604 239.89096,155.982 L241.29096,155.478 L241.66896,156.36 L240.73096,157.06 C240.84296,157.34 240.89896,157.676 240.89896,158.068 C240.89896,159.678 240.04496,160.588 237.80496,160.588 Z M238.60296,163.136 L236.57296,162.982 C236.25096,163.248 236.06896,163.584 236.06896,163.878 C236.06896,164.578 236.58696,164.956 237.84696,164.956 C239.58296,164.956 240.01696,164.55 240.01696,163.948 C240.01696,163.472 239.75096,163.22 238.60296,163.136 Z M237.81896,156.864 C236.81096,156.864 236.44696,157.256 236.44696,158.096 C236.44696,159.076 236.99296,159.328 237.77696,159.328 C238.86896,159.328 239.19096,158.95 239.19096,158.096 C239.19096,157.186 238.78496,156.864 237.81896,156.864 Z M244.7452,164.06 L242.9672,164.06 L242.9672,155.688 L244.3952,155.604 L244.5492,157.186 L244.5912,157.186 C245.1092,156.094 245.9772,155.506 247.0132,155.506 C247.3632,155.506 247.6712,155.548 247.8952,155.618 L247.7832,157.424 C247.5172,157.34 247.2092,157.284 246.9012,157.284 C245.6832,157.284 244.7452,158.236 244.7452,159.818 L244.7452,164.06 Z M253.84144,164.06 L253.68744,163.164 L253.64544,163.15 C253.12744,163.808 252.27344,164.2 251.26544,164.2 C249.69744,164.2 248.66144,163.332 248.66144,161.456 C248.66144,159.874 249.72544,158.852 251.68544,158.852 C252.34344,158.852 252.95944,158.964 253.43544,159.118 L253.43544,158.488 C253.43544,157.438 252.93144,157.018 251.67144,157.018 C250.76144,157.018 250.10344,157.158 249.33344,157.494 L249.17944,156.024 C250.00544,155.66 250.94344,155.478 251.99344,155.478 C254.34544,155.478 255.19944,156.486 255.19944,158.754 L255.19944,164.06 L253.84144,164.06 Z M253.43544,161.582 L253.43544,160.35 C253.22544,160.252 252.70744,160.112 252.00744,160.112 C250.85944,160.112 250.34144,160.574 250.34144,161.428 C250.34144,162.408 250.92944,162.758 251.75544,162.758 C252.63744,162.758 253.43544,162.198 253.43544,161.582 Z M261.28568,157.004 L259.31168,157.004 L259.31168,161.694 C259.31168,162.436 259.70368,162.744 260.41768,162.744 C260.64168,162.744 260.94968,162.702 261.10368,162.646 L261.21568,163.976 C260.93568,164.102 260.41768,164.2 259.89968,164.2 C258.31768,164.2 257.53368,163.29 257.53368,161.736 L257.53368,157.004 L256.48368,157.004 L256.48368,155.632 L257.58968,155.632 L257.91168,153.658 L259.31168,153.518 L259.31168,155.632 L261.28568,155.632 L261.28568,157.004 Z M266.19592,164.214 C263.35392,164.214 262.12192,162.716 262.12192,159.692 C262.12192,157.018 263.29792,155.492 265.73392,155.492 C267.80592,155.492 269.13592,156.71 269.13592,159.398 C269.13592,159.664 269.12192,160 269.09392,160.252 L263.96992,160.252 C264.05392,162.016 264.79592,162.632 266.40592,162.632 C267.23192,162.632 267.95992,162.478 268.67392,162.17 L268.88392,163.64 C268.16992,163.99 267.24592,164.214 266.19592,164.214 Z M263.92792,159.048 L267.49792,159.048 C267.46992,157.564 266.79792,157.004 265.74792,157.004 C264.52992,157.004 264.01192,157.62 263.92792,159.048 Z M277.49016,164.06 L276.10416,164.06 L275.90816,163.262 L275.86616,163.248 C275.34816,163.878 274.59216,164.228 273.51416,164.228 C271.30216,164.228 270.28016,162.828 270.28016,159.818 C270.28016,157.018 271.31616,155.478 273.50016,155.478 C274.35416,155.478 275.13816,155.772 275.71216,156.332 L275.74016,156.304 L275.71216,155.184 L275.71216,153.098 L277.49016,153 L277.49016,164.06 Z M275.71216,161.904 L275.71216,157.886 C275.40416,157.424 274.78816,157.116 274.01816,157.116 C272.63216,157.116 272.12816,157.844 272.12816,159.888 C272.12816,162.03 272.57616,162.744 274.00416,162.744 C274.97016,162.744 275.48816,162.296 275.71216,161.904 Z M216.4,176.768 C216.4,180.576 214.874,182.06 211.808,182.06 L208,182.06 L208,171.56 L211.78,171.56 C215.042,171.56 216.4,173.114 216.4,176.768 Z M214.384,176.754 C214.384,174.038 213.656,173.338 211.766,173.338 L209.932,173.338 L209.932,180.296 L211.766,180.296 C213.586,180.296 214.384,179.666 214.384,176.754 Z M221.78624,182.214 C218.94424,182.214 217.71224,180.716 217.71224,177.692 C217.71224,175.018 218.88824,173.492 221.32424,173.492 C223.39624,173.492 224.72624,174.71 224.72624,177.398 C224.72624,177.664 224.71224,178 224.68424,178.252 L219.56024,178.252 C219.64424,180.016 220.38624,180.632 221.99624,180.632 C222.82224,180.632 223.55024,180.478 224.26424,180.17 L224.47424,181.64 C223.76024,181.99 222.83624,182.214 221.78624,182.214 Z M219.51824,177.048 L223.08824,177.048 C223.06024,175.564 222.38824,175.004 221.33824,175.004 C220.12024,175.004 219.60224,175.62 219.51824,177.048 Z M231.66648,173.884 L231.55448,175.452 C231.09248,175.256 230.53248,175.13 230.00048,175.13 C228.30648,175.13 227.71848,175.886 227.71848,177.832 C227.71848,179.89 228.51648,180.674 229.95848,180.674 C230.56048,180.674 231.14848,180.534 231.61048,180.282 L231.73648,181.71 C231.24648,182.032 230.47648,182.242 229.58048,182.242 C227.14448,182.242 225.87048,180.842 225.87048,177.832 C225.87048,175.018 227.00448,173.506 229.62248,173.506 C230.35048,173.506 231.12048,173.66 231.66648,173.884 Z M236.68872,182.214 C233.84672,182.214 232.61472,180.716 232.61472,177.692 C232.61472,175.018 233.79072,173.492 236.22672,173.492 C238.29872,173.492 239.62872,174.71 239.62872,177.398 C239.62872,177.664 239.61472,178 239.58672,178.252 L234.46272,178.252 C234.54672,180.016 235.28872,180.632 236.89872,180.632 C237.72472,180.632 238.45272,180.478 239.16672,180.17 L239.37672,181.64 C238.66272,181.99 237.73872,182.214 236.68872,182.214 Z M234.42072,177.048 L237.99072,177.048 C237.96272,175.564 237.29072,175.004 236.24072,175.004 C235.02272,175.004 234.50472,175.62 234.42072,177.048 Z M248.05296,182.06 L246.27496,182.06 L246.27496,176.614 C246.27496,175.55 245.70096,175.102 244.66496,175.102 C244.03496,175.102 243.33496,175.382 242.98496,175.872 L242.98496,182.06 L241.20696,182.06 L241.20696,173.674 L242.48096,173.576 L242.76096,174.388 C243.39096,173.8 244.24496,173.478 245.15496,173.478 C246.93296,173.478 248.05296,174.556 248.05296,176.6 L248.05296,182.06 Z M254.1392,175.004 L252.1652,175.004 L252.1652,179.694 C252.1652,180.436 252.5572,180.744 253.2712,180.744 C253.4952,180.744 253.8032,180.702 253.9572,180.646 L254.0692,181.976 C253.7892,182.102 253.2712,182.2 252.7532,182.2 C251.1712,182.2 250.3872,181.29 250.3872,179.736 L250.3872,175.004 L249.3372,175.004 L249.3372,173.632 L250.4432,173.632 L250.7652,171.658 L252.1652,171.518 L252.1652,173.632 L254.1392,173.632 L254.1392,175.004 Z M257.32744,182.06 L255.54944,182.06 L255.54944,173.688 L256.97744,173.604 L257.13144,175.186 L257.17344,175.186 C257.69144,174.094 258.55944,173.506 259.59544,173.506 C259.94544,173.506 260.25344,173.548 260.47744,173.618 L260.36544,175.424 C260.09944,175.34 259.79144,175.284 259.48344,175.284 C258.26544,175.284 257.32744,176.236 257.32744,177.818 L257.32744,182.06 Z M266.42368,182.06 L266.26968,181.164 L266.22768,181.15 C265.70968,181.808 264.85568,182.2 263.84768,182.2 C262.27968,182.2 261.24368,181.332 261.24368,179.456 C261.24368,177.874 262.30768,176.852 264.26768,176.852 C264.92568,176.852 265.54168,176.964 266.01768,177.118 L266.01768,176.488 C266.01768,175.438 265.51368,175.018 264.25368,175.018 C263.34368,175.018 262.68568,175.158 261.91568,175.494 L261.76168,174.024 C262.58768,173.66 263.52568,173.478 264.57568,173.478 C266.92768,173.478 267.78168,174.486 267.78168,176.754 L267.78168,182.06 L266.42368,182.06 Z M266.01768,179.582 L266.01768,178.35 C265.80768,178.252 265.28968,178.112 264.58968,178.112 C263.44168,178.112 262.92368,178.574 262.92368,179.428 C262.92368,180.408 263.51168,180.758 264.33768,180.758 C265.21968,180.758 266.01768,180.198 266.01768,179.582 Z M271.69792,182.06 L269.90592,182.06 L269.90592,171.098 L271.69792,171 L271.69792,182.06 Z M276.04816,182.06 L274.24216,182.06 L274.24216,173.688 L276.04816,173.59 L276.04816,182.06 Z M276.21616,171.686 C276.21616,172.246 275.88016,172.512 275.15216,172.512 C274.43816,172.512 274.08816,172.302 274.08816,171.686 C274.08816,171.14 274.43816,170.832 275.15216,170.832 C275.88016,170.832 276.21616,171.14 276.21616,171.686 Z M284.1924,174.906 L280.8184,179.638 L280.1464,180.506 L280.1604,180.548 L284.2904,180.548 L284.2344,182.06 L278.0744,182.06 L278.0744,180.786 L281.4624,176.068 L282.1344,175.186 L282.1204,175.158 L278.2004,175.158 L278.2704,173.632 L284.1924,173.632 L284.1924,174.906 Z M289.45264,182.214 C286.61064,182.214 285.37864,180.716 285.37864,177.692 C285.37864,175.018 286.55464,173.492 288.99064,173.492 C291.06264,173.492 292.39264,174.71 292.39264,177.398 C292.39264,177.664 292.37864,178 292.35064,178.252 L287.22664,178.252 C287.31064,180.016 288.05264,180.632 289.66264,180.632 C290.48864,180.632 291.21664,180.478 291.93064,180.17 L292.14064,181.64 C291.42664,181.99 290.50264,182.214 289.45264,182.214 Z M287.18464,177.048 L290.75464,177.048 C290.72664,175.564 290.05464,175.004 289.00464,175.004 C287.78664,175.004 287.26864,175.62 287.18464,177.048 Z M300.74688,182.06 L299.36088,182.06 L299.16488,181.262 L299.12288,181.248 C298.60488,181.878 297.84888,182.228 296.77088,182.228 C294.55888,182.228 293.53688,180.828 293.53688,177.818 C293.53688,175.018 294.57288,173.478 296.75688,173.478 C297.61088,173.478 298.39488,173.772 298.96888,174.332 L298.99688,174.304 L298.96888,173.184 L298.96888,171.098 L300.74688,171 L300.74688,182.06 Z M298.96888,179.904 L298.96888,175.886 C298.66088,175.424 298.04488,175.116 297.27488,175.116 C295.88888,175.116 295.38488,175.844 295.38488,177.888 C295.38488,180.03 295.83288,180.744 297.26088,180.744 C298.22688,180.744 298.74488,180.296 298.96888,179.904 Z M216.54,200.06 L214.188,200.06 L211.234,195.454 L209.932,195.454 L209.932,200.06 L208,200.06 L208,189.56 L209.932,189.56 L209.932,193.844 L211.276,193.844 L214.104,189.56 L216.358,189.56 L212.998,194.544 L216.54,200.06 Z M217.02624,189.56 L219.21024,189.56 L221.22624,193.844 L221.68824,194.866 L221.73024,194.866 L222.16424,193.83 L224.13824,189.56 L226.25224,189.56 L222.65424,196.616 L222.65424,200.06 L220.68024,200.06 L220.68024,196.616 L217.02624,189.56 Z M233.86448,189.84 L233.65448,191.534 C233.10848,191.324 232.33848,191.156 231.52648,191.156 C229.48248,191.156 228.71248,192.024 228.71248,194.74 C228.71248,197.624 229.51048,198.506 231.56848,198.506 C232.38048,198.506 233.08048,198.324 233.68248,198.058 L233.90648,199.668 C233.22048,200.004 232.22648,200.256 231.31648,200.256 C228.16648,200.256 226.68248,198.506 226.68248,194.726 C226.68248,191.17 228.15248,189.378 231.42848,189.378 C232.28248,189.378 233.27648,189.588 233.86448,189.84 Z M239.18072,189.028 L240.72072,189.028 L235.91872,201.782 L234.42072,201.782 L239.18072,189.028 Z M248.52896,200.06 L247.84296,197.806 L243.64296,197.806 L242.94296,200.06 L240.88496,200.06 L244.62296,189.56 L246.93296,189.56 L250.69896,200.06 L248.52896,200.06 Z M245.74296,190.974 L245.42096,192.066 L244.14696,196.168 L247.33896,196.168 L246.07896,192.066 L245.78496,190.974 L245.74296,190.974 Z M252.0252,189.56 L254.1812,189.56 L256.8692,196.252 L257.2752,197.302 L257.3172,197.302 L257.7092,196.252 L260.4252,189.56 L262.5672,189.56 L262.5672,200.06 L260.8032,200.06 L260.8032,193.998 L260.8312,192.864 L260.7892,192.85 L260.3832,193.914 L257.9192,200.06 L256.6032,200.06 L254.1532,193.914 L253.7472,192.85 L253.7192,192.864 L253.7332,193.998 L253.7332,200.06 L252.0252,200.06 L252.0252,189.56 Z M266.84744,198.282 L271.42544,198.282 L271.38344,200.06 L264.90144,200.06 L264.90144,189.56 L266.84744,189.56 L266.84744,198.282 Z M283.24792,196.98 C283.24792,199.01 281.87592,200.256 279.49592,200.256 C278.29192,200.256 277.19992,199.962 276.33192,199.472 L276.59792,197.75 C277.47992,198.254 278.41792,198.534 279.48192,198.534 C280.78392,198.534 281.38592,198.016 281.38592,197.106 C281.38592,195.132 276.38792,195.986 276.38792,192.472 C276.38792,190.764 277.49392,189.378 280.02792,189.378 C281.06392,189.378 282.11392,189.588 282.89792,189.938 L282.64592,191.604 C281.79192,191.296 280.96592,191.128 280.12592,191.128 C278.69792,191.128 278.24992,191.702 278.24992,192.374 C278.24992,194.292 283.24792,193.41 283.24792,196.98 Z M291.82616,195.874 C291.82616,198.996 290.70616,200.256 288.08816,200.256 C285.48416,200.256 284.30816,198.996 284.30816,195.874 C284.30816,192.766 285.48416,191.478 288.08816,191.478 C290.70616,191.478 291.82616,192.766 291.82616,195.874 Z M286.15616,195.874 C286.15616,198.086 286.70216,198.758 288.08816,198.758 C289.47416,198.758 289.99216,198.086 289.99216,195.874 C289.99216,193.662 289.47416,192.99 288.08816,192.99 C286.68816,192.99 286.15616,193.662 286.15616,195.874 Z M295.4344,200.06 L293.6424,200.06 L293.6424,189.098 L295.4344,189 L295.4344,200.06 Z M304.41864,191.632 L304.41864,197.176 C304.41864,199.15 303.29864,200.214 300.98864,200.214 C298.67864,200.214 297.57264,199.108 297.57264,197.176 L297.57264,191.632 L299.35064,191.632 L299.35064,197.134 C299.35064,198.1 299.88264,198.604 301.00264,198.604 C302.09464,198.604 302.64064,198.114 302.64064,197.134 L302.64064,191.632 L304.41864,191.632 Z M310.37888,193.004 L308.40488,193.004 L308.40488,197.694 C308.40488,198.436 308.79688,198.744 309.51088,198.744 C309.73488,198.744 310.04288,198.702 310.19688,198.646 L310.30888,199.976 C310.02888,200.102 309.51088,200.2 308.99288,200.2 C307.41088,200.2 306.62688,199.29 306.62688,197.736 L306.62688,193.004 L305.57688,193.004 L305.57688,191.632 L306.68288,191.632 L307.00488,189.658 L308.40488,189.518 L308.40488,191.632 L310.37888,191.632 L310.37888,193.004 Z M313.88912,200.06 L312.08312,200.06 L312.08312,191.688 L313.88912,191.59 L313.88912,200.06 Z M314.05712,189.686 C314.05712,190.246 313.72112,190.512 312.99312,190.512 C312.27912,190.512 311.92912,190.302 311.92912,189.686 C311.92912,189.14 312.27912,188.832 312.99312,188.832 C313.72112,188.832 314.05712,189.14 314.05712,189.686 Z M323.30736,195.874 C323.30736,198.996 322.18736,200.256 319.56936,200.256 C316.96536,200.256 315.78936,198.996 315.78936,195.874 C315.78936,192.766 316.96536,191.478 319.56936,191.478 C322.18736,191.478 323.30736,192.766 323.30736,195.874 Z M317.63736,195.874 C317.63736,198.086 318.18336,198.758 319.56936,198.758 C320.95536,198.758 321.47336,198.086 321.47336,195.874 C321.47336,193.662 320.95536,192.99 319.56936,192.99 C318.16936,192.99 317.63736,193.662 317.63736,195.874 Z M331.7596,200.06 L329.9816,200.06 L329.9816,194.614 C329.9816,193.55 329.4076,193.102 328.3716,193.102 C327.7416,193.102 327.0416,193.382 326.6916,193.872 L326.6916,200.06 L324.9136,200.06 L324.9136,191.674 L326.1876,191.576 L326.4676,192.388 C327.0976,191.8 327.9516,191.478 328.8616,191.478 C330.6396,191.478 331.7596,192.556 331.7596,194.6 L331.7596,200.06 Z" id="Integrated-Decentral" fill="#5B6C72"></path>
                <path d="M389.958,37.632 L385.352,37.632 L385.352,39.9 L389.188,39.9 L389.16,41.916 L385.352,41.916 L385.352,46.004 L383,46.004 L383,35.504 L389.916,35.504 L389.958,37.632 Z M394.72696,46.158 C391.80096,46.158 390.49896,44.618 390.49896,41.65 C390.49896,38.948 391.68896,37.366 394.23696,37.366 C396.40696,37.366 397.73696,38.626 397.73696,41.314 C397.73696,41.636 397.72296,42.042 397.68096,42.336 L392.73896,42.336 C392.85096,43.75 393.53696,44.282 394.99296,44.282 C395.79096,44.282 396.53296,44.142 397.26096,43.862 L397.49896,45.612 C396.78496,45.934 395.80496,46.158 394.72696,46.158 Z M392.69696,40.894 L395.74896,40.894 C395.72096,39.648 395.16096,39.172 394.25096,39.172 C393.20096,39.172 392.79496,39.662 392.69696,40.894 Z M406.62192,41.734 C406.62192,44.842 405.33392,46.172 403.16392,46.172 C402.21192,46.172 401.42792,45.822 400.90992,45.304 L400.62992,46.004 L399.15992,46.004 L399.15992,35.098 L401.32992,35 L401.32992,36.974 L401.30192,38.094 L401.34392,38.122 C401.91792,37.604 402.65992,37.366 403.42992,37.366 C405.38992,37.366 406.62192,38.626 406.62192,41.734 Z M404.38192,41.776 C404.38192,39.662 403.83592,39.27 402.79992,39.27 C402.16992,39.27 401.63792,39.536 401.32992,39.984 L401.32992,43.694 C401.59592,44.1 402.08592,44.422 402.81392,44.422 C403.79392,44.422 404.38192,43.974 404.38192,41.776 Z M410.04688,44.954 C410.04688,45.71 409.68288,46.172 408.80088,46.172 C407.91888,46.172 407.54088,45.836 407.54088,44.954 C407.54088,44.184 407.91888,43.75 408.80088,43.75 C409.68288,43.75 410.04688,44.184 410.04688,44.954 Z M422.4968,38.458 C422.4968,40.362 420.8308,41.944 418.4508,43.932 L418.4508,43.974 L422.4828,43.974 L422.4408,46.004 L415.4688,46.004 L415.4688,44.492 C417.9888,42 420.1168,40.236 420.1168,38.682 C420.1168,37.954 419.6408,37.436 418.4648,37.436 C417.5408,37.436 416.7008,37.814 415.9308,38.36 L415.3848,36.484 C416.2528,35.826 417.4568,35.378 418.8848,35.378 C421.2928,35.378 422.4968,36.624 422.4968,38.458 Z M431.78776,40.796 C431.78776,44.562 430.59776,46.144 427.86776,46.144 C425.12376,46.144 423.98976,44.562 423.98976,40.796 C423.98976,36.848 425.12376,35.378 427.89576,35.378 C430.61176,35.378 431.78776,36.848 431.78776,40.796 Z M429.53376,40.768 C429.53376,37.898 429.01576,37.394 427.89576,37.394 C426.74776,37.394 426.22976,37.94 426.22976,40.768 C426.22976,43.708 426.74776,44.184 427.89576,44.184 C429.01576,44.184 429.53376,43.652 429.53376,40.768 Z M434.66672,46.004 L434.66672,44.352 L436.22072,44.352 L436.22072,38.29 L434.30272,39.396 L434.06472,37.492 L437.18672,35.504 L438.57272,35.504 L438.57272,44.352 L440.09872,44.352 L440.09872,46.004 L434.66672,46.004 Z M449.65568,40.334 C449.65568,44.436 448.17168,46.13 445.21768,46.13 C444.06968,46.13 443.32768,45.976 442.55768,45.64 L442.87968,43.764 C443.56568,44.044 444.19568,44.184 444.99368,44.184 C446.61768,44.184 447.28968,43.386 447.44368,41.594 L447.41568,41.566 C446.84168,41.944 446.14168,42.112 445.31568,42.112 C443.06168,42.112 441.98368,40.824 441.98368,38.892 C441.98368,36.736 443.15968,35.378 445.70768,35.378 C448.21368,35.378 449.65568,37.002 449.65568,40.334 Z M447.38768,39.606 C447.37368,37.87 446.71568,37.31 445.66568,37.31 C444.68568,37.31 444.16768,37.772 444.16768,38.808 C444.16768,39.788 444.62968,40.306 445.74968,40.306 C446.47768,40.306 447.06568,40.068 447.38768,39.606 Z" id="Feb.-2019" fill="#2A5C96"></path>
                <path d="M213.258,35.126 L213.258,41.776 C213.258,44.716 211.676,45.822 209.086,45.822 C208.218,45.822 207.532,45.654 207,45.374 L207.126,43.386 C207.504,43.61 208.05,43.75 208.722,43.75 C210.122,43.75 210.85,43.148 210.85,41.734 L210.85,35.126 L213.258,35.126 Z M219.94496,45.626 L219.77696,44.814 L219.73496,44.8 C219.21696,45.416 218.40496,45.766 217.43896,45.766 C215.82896,45.766 214.80696,44.856 214.80696,42.952 C214.80696,41.384 215.89896,40.306 217.83096,40.306 C218.46096,40.306 219.00696,40.404 219.45496,40.544 L219.45496,40.054 C219.45496,39.2 219.00696,38.808 217.84496,38.808 C216.90696,38.808 216.29096,38.948 215.50696,39.27 L215.32496,37.534 C216.17896,37.17 217.14496,36.974 218.23696,36.974 C220.74296,36.974 221.61096,38.052 221.61096,40.376 L221.61096,45.626 L219.94496,45.626 Z M219.45496,43.05 L219.45496,41.986 C219.24496,41.902 218.82496,41.804 218.25096,41.804 C217.28496,41.804 216.83696,42.182 216.83696,42.924 C216.83696,43.75 217.32696,44.044 218.04096,44.044 C218.78296,44.044 219.45496,43.596 219.45496,43.05 Z M230.42592,45.626 L228.25592,45.626 L228.25592,40.222 C228.25592,39.284 227.77992,38.906 226.88392,38.906 C226.33792,38.906 225.74992,39.144 225.45592,39.55 L225.45592,45.626 L223.27192,45.626 L223.27192,37.184 L224.83992,37.086 L225.16192,37.814 C225.79192,37.268 226.61792,36.974 227.49992,36.974 C229.29192,36.974 230.42592,38.108 230.42592,40.222 L230.42592,45.626 Z M234.35488,44.576 C234.35488,45.332 233.99088,45.794 233.10888,45.794 C232.22688,45.794 231.84888,45.458 231.84888,44.576 C231.84888,43.806 232.22688,43.372 233.10888,43.372 C233.99088,43.372 234.35488,43.806 234.35488,44.576 Z M246.8048,38.08 C246.8048,39.984 245.1388,41.566 242.7588,43.554 L242.7588,43.596 L246.7908,43.596 L246.7488,45.626 L239.7768,45.626 L239.7768,44.114 C242.2968,41.622 244.4248,39.858 244.4248,38.304 C244.4248,37.576 243.9488,37.058 242.7728,37.058 C241.8488,37.058 241.0088,37.436 240.2388,37.982 L239.6928,36.106 C240.5608,35.448 241.7648,35 243.1928,35 C245.6008,35 246.8048,36.246 246.8048,38.08 Z M256.09576,40.418 C256.09576,44.184 254.90576,45.766 252.17576,45.766 C249.43176,45.766 248.29776,44.184 248.29776,40.418 C248.29776,36.47 249.43176,35 252.20376,35 C254.91976,35 256.09576,36.47 256.09576,40.418 Z M253.84176,40.39 C253.84176,37.52 253.32376,37.016 252.20376,37.016 C251.05576,37.016 250.53776,37.562 250.53776,40.39 C250.53776,43.33 251.05576,43.806 252.20376,43.806 C253.32376,43.806 253.84176,43.274 253.84176,40.39 Z M258.97472,45.626 L258.97472,43.974 L260.52872,43.974 L260.52872,37.912 L258.61072,39.018 L258.37272,37.114 L261.49472,35.126 L262.88072,35.126 L262.88072,43.974 L264.40672,43.974 L264.40672,45.626 L258.97472,45.626 Z M273.96368,39.956 C273.96368,44.058 272.47968,45.752 269.52568,45.752 C268.37768,45.752 267.63568,45.598 266.86568,45.262 L267.18768,43.386 C267.87368,43.666 268.50368,43.806 269.30168,43.806 C270.92568,43.806 271.59768,43.008 271.75168,41.216 L271.72368,41.188 C271.14968,41.566 270.44968,41.734 269.62368,41.734 C267.36968,41.734 266.29168,40.446 266.29168,38.514 C266.29168,36.358 267.46768,35 270.01568,35 C272.52168,35 273.96368,36.624 273.96368,39.956 Z M271.69568,39.228 C271.68168,37.492 271.02368,36.932 269.97368,36.932 C268.99368,36.932 268.47568,37.394 268.47568,38.43 C268.47568,39.41 268.93768,39.928 270.05768,39.928 C270.78568,39.928 271.37368,39.69 271.69568,39.228 Z" id="Jan.-2019" fill="#2A5C96"></path>
                <path d="M570,35.126 L572.604,35.126 L575.04,41.258 L575.432,42.308 L575.474,42.308 L575.866,41.258 L578.316,35.126 L580.92,35.126 L580.92,45.626 L578.764,45.626 L578.764,40.278 L578.792,39.144 L578.75,39.13 L578.358,40.194 L576.202,45.626 L574.634,45.626 L572.492,40.208 L572.1,39.144 L572.072,39.158 L572.086,40.292 L572.086,45.626 L570,45.626 L570,35.126 Z M587.60696,45.626 L587.43896,44.814 L587.39696,44.8 C586.87896,45.416 586.06696,45.766 585.10096,45.766 C583.49096,45.766 582.46896,44.856 582.46896,42.952 C582.46896,41.384 583.56096,40.306 585.49296,40.306 C586.12296,40.306 586.66896,40.404 587.11696,40.544 L587.11696,40.054 C587.11696,39.2 586.66896,38.808 585.50696,38.808 C584.56896,38.808 583.95296,38.948 583.16896,39.27 L582.98696,37.534 C583.84096,37.17 584.80696,36.974 585.89896,36.974 C588.40496,36.974 589.27296,38.052 589.27296,40.376 L589.27296,45.626 L587.60696,45.626 Z M587.11696,43.05 L587.11696,41.986 C586.90696,41.902 586.48696,41.804 585.91296,41.804 C584.94696,41.804 584.49896,42.182 584.49896,42.924 C584.49896,43.75 584.98896,44.044 585.70296,44.044 C586.44496,44.044 587.11696,43.596 587.11696,43.05 Z M593.11792,45.626 L590.93392,45.626 L590.93392,37.198 L592.66992,37.114 L592.86592,38.528 L592.90792,38.528 C593.43992,37.506 594.26592,37.002 595.23192,37.002 C595.60992,37.002 595.93192,37.058 596.15592,37.128 L596.01592,39.27 C595.74992,39.186 595.42792,39.13 595.09192,39.13 C593.95792,39.13 593.11792,39.956 593.11792,41.37 L593.11792,45.626 Z M598.08288,44.576 C598.08288,45.332 597.71888,45.794 596.83688,45.794 C595.95488,45.794 595.57688,45.458 595.57688,44.576 C595.57688,43.806 595.95488,43.372 596.83688,43.372 C597.71888,43.372 598.08288,43.806 598.08288,44.576 Z M610.5328,38.08 C610.5328,39.984 608.8668,41.566 606.4868,43.554 L606.4868,43.596 L610.5188,43.596 L610.4768,45.626 L603.5048,45.626 L603.5048,44.114 C606.0248,41.622 608.1528,39.858 608.1528,38.304 C608.1528,37.576 607.6768,37.058 606.5008,37.058 C605.5768,37.058 604.7368,37.436 603.9668,37.982 L603.4208,36.106 C604.2888,35.448 605.4928,35 606.9208,35 C609.3288,35 610.5328,36.246 610.5328,38.08 Z M619.82376,40.418 C619.82376,44.184 618.63376,45.766 615.90376,45.766 C613.15976,45.766 612.02576,44.184 612.02576,40.418 C612.02576,36.47 613.15976,35 615.93176,35 C618.64776,35 619.82376,36.47 619.82376,40.418 Z M617.56976,40.39 C617.56976,37.52 617.05176,37.016 615.93176,37.016 C614.78376,37.016 614.26576,37.562 614.26576,40.39 C614.26576,43.33 614.78376,43.806 615.93176,43.806 C617.05176,43.806 617.56976,43.274 617.56976,40.39 Z M622.70272,45.626 L622.70272,43.974 L624.25672,43.974 L624.25672,37.912 L622.33872,39.018 L622.10072,37.114 L625.22272,35.126 L626.60872,35.126 L626.60872,43.974 L628.13472,43.974 L628.13472,45.626 L622.70272,45.626 Z M637.69168,39.956 C637.69168,44.058 636.20768,45.752 633.25368,45.752 C632.10568,45.752 631.36368,45.598 630.59368,45.262 L630.91568,43.386 C631.60168,43.666 632.23168,43.806 633.02968,43.806 C634.65368,43.806 635.32568,43.008 635.47968,41.216 L635.45168,41.188 C634.87768,41.566 634.17768,41.734 633.35168,41.734 C631.09768,41.734 630.01968,40.446 630.01968,38.514 C630.01968,36.358 631.19568,35 633.74368,35 C636.24968,35 637.69168,36.624 637.69168,39.956 Z M635.42368,39.228 C635.40968,37.492 634.75168,36.932 633.70168,36.932 C632.72168,36.932 632.20368,37.394 632.20368,38.43 C632.20368,39.41 632.66568,39.928 633.78568,39.928 C634.51368,39.928 635.10168,39.69 635.42368,39.228 Z" id="Mar.-2019" fill="#2A5C96"></path>
                <path d="M778,35.126 L780.604,35.126 L783.04,41.258 L783.432,42.308 L783.474,42.308 L783.866,41.258 L786.316,35.126 L788.92,35.126 L788.92,45.626 L786.764,45.626 L786.764,40.278 L786.792,39.144 L786.75,39.13 L786.358,40.194 L784.202,45.626 L782.634,45.626 L780.492,40.208 L780.1,39.144 L780.072,39.158 L780.086,40.292 L780.086,45.626 L778,45.626 L778,35.126 Z M795.60696,45.626 L795.43896,44.814 L795.39696,44.8 C794.87896,45.416 794.06696,45.766 793.10096,45.766 C791.49096,45.766 790.46896,44.856 790.46896,42.952 C790.46896,41.384 791.56096,40.306 793.49296,40.306 C794.12296,40.306 794.66896,40.404 795.11696,40.544 L795.11696,40.054 C795.11696,39.2 794.66896,38.808 793.50696,38.808 C792.56896,38.808 791.95296,38.948 791.16896,39.27 L790.98696,37.534 C791.84096,37.17 792.80696,36.974 793.89896,36.974 C796.40496,36.974 797.27296,38.052 797.27296,40.376 L797.27296,45.626 L795.60696,45.626 Z M795.11696,43.05 L795.11696,41.986 C794.90696,41.902 794.48696,41.804 793.91296,41.804 C792.94696,41.804 792.49896,42.182 792.49896,42.924 C792.49896,43.75 792.98896,44.044 793.70296,44.044 C794.44496,44.044 795.11696,43.596 795.11696,43.05 Z M800.59992,46.354 C801.18792,46.354 801.62192,46.186 801.90192,45.542 L801.94392,45.43 L798.28992,37.142 L800.76792,37.142 L802.61592,42.322 L802.97992,43.386 L803.02192,43.386 L803.28792,42.294 L804.67392,37.142 L806.98392,37.142 L804.07192,45.556 C803.44192,47.278 802.44792,47.978 800.99192,47.978 C800.47392,47.978 799.96992,47.894 799.54992,47.712 L799.71792,46.172 C800.02592,46.298 800.30592,46.354 800.59992,46.354 Z M819.02784,38.08 C819.02784,39.984 817.36184,41.566 814.98184,43.554 L814.98184,43.596 L819.01384,43.596 L818.97184,45.626 L811.99984,45.626 L811.99984,44.114 C814.51984,41.622 816.64784,39.858 816.64784,38.304 C816.64784,37.576 816.17184,37.058 814.99584,37.058 C814.07184,37.058 813.23184,37.436 812.46184,37.982 L811.91584,36.106 C812.78384,35.448 813.98784,35 815.41584,35 C817.82384,35 819.02784,36.246 819.02784,38.08 Z M828.3188,40.418 C828.3188,44.184 827.1288,45.766 824.3988,45.766 C821.6548,45.766 820.5208,44.184 820.5208,40.418 C820.5208,36.47 821.6548,35 824.4268,35 C827.1428,35 828.3188,36.47 828.3188,40.418 Z M826.0648,40.39 C826.0648,37.52 825.5468,37.016 824.4268,37.016 C823.2788,37.016 822.7608,37.562 822.7608,40.39 C822.7608,43.33 823.2788,43.806 824.4268,43.806 C825.5468,43.806 826.0648,43.274 826.0648,40.39 Z M831.19776,45.626 L831.19776,43.974 L832.75176,43.974 L832.75176,37.912 L830.83376,39.018 L830.59576,37.114 L833.71776,35.126 L835.10376,35.126 L835.10376,43.974 L836.62976,43.974 L836.62976,45.626 L831.19776,45.626 Z M846.18672,39.956 C846.18672,44.058 844.70272,45.752 841.74872,45.752 C840.60072,45.752 839.85872,45.598 839.08872,45.262 L839.41072,43.386 C840.09672,43.666 840.72672,43.806 841.52472,43.806 C843.14872,43.806 843.82072,43.008 843.97472,41.216 L843.94672,41.188 C843.37272,41.566 842.67272,41.734 841.84672,41.734 C839.59272,41.734 838.51472,40.446 838.51472,38.514 C838.51472,36.358 839.69072,35 842.23872,35 C844.74472,35 846.18672,36.624 846.18672,39.956 Z M843.91872,39.228 C843.90472,37.492 843.24672,36.932 842.19672,36.932 C841.21672,36.932 840.69872,37.394 840.69872,38.43 C840.69872,39.41 841.16072,39.928 842.28072,39.928 C843.00872,39.928 843.59672,39.69 843.91872,39.228 Z" id="May-2019" fill="#2A5C96"></path>
                <path d="M951.258,35.504 L951.258,42.154 C951.258,45.094 949.676,46.2 947.086,46.2 C946.218,46.2 945.532,46.032 945,45.752 L945.126,43.764 C945.504,43.988 946.05,44.128 946.722,44.128 C948.122,44.128 948.85,43.526 948.85,42.112 L948.85,35.504 L951.258,35.504 Z M960.18496,37.52 L960.18496,43.008 C960.18496,45.066 959.02296,46.158 956.61496,46.158 C954.20696,46.158 953.04496,45.024 953.04496,43.008 L953.04496,37.52 L955.21496,37.52 L955.21496,42.966 C955.21496,43.806 955.66296,44.24 956.61496,44.24 C957.56696,44.24 958.01496,43.834 958.01496,42.966 L958.01496,37.52 L960.18496,37.52 Z M964.21192,46.004 L962.01392,46.004 L962.01392,35.098 L964.21192,35 L964.21192,46.004 Z M968.39288,44.954 C968.39288,45.71 968.02888,46.172 967.14688,46.172 C966.26488,46.172 965.88688,45.836 965.88688,44.954 C965.88688,44.184 966.26488,43.75 967.14688,43.75 C968.02888,43.75 968.39288,44.184 968.39288,44.954 Z M980.8428,38.458 C980.8428,40.362 979.1768,41.944 976.7968,43.932 L976.7968,43.974 L980.8288,43.974 L980.7868,46.004 L973.8148,46.004 L973.8148,44.492 C976.3348,42 978.4628,40.236 978.4628,38.682 C978.4628,37.954 977.9868,37.436 976.8108,37.436 C975.8868,37.436 975.0468,37.814 974.2768,38.36 L973.7308,36.484 C974.5988,35.826 975.8028,35.378 977.2308,35.378 C979.6388,35.378 980.8428,36.624 980.8428,38.458 Z M990.13376,40.796 C990.13376,44.562 988.94376,46.144 986.21376,46.144 C983.46976,46.144 982.33576,44.562 982.33576,40.796 C982.33576,36.848 983.46976,35.378 986.24176,35.378 C988.95776,35.378 990.13376,36.848 990.13376,40.796 Z M987.87976,40.768 C987.87976,37.898 987.36176,37.394 986.24176,37.394 C985.09376,37.394 984.57576,37.94 984.57576,40.768 C984.57576,43.708 985.09376,44.184 986.24176,44.184 C987.36176,44.184 987.87976,43.652 987.87976,40.768 Z M993.01272,46.004 L993.01272,44.352 L994.56672,44.352 L994.56672,38.29 L992.64872,39.396 L992.41072,37.492 L995.53272,35.504 L996.91872,35.504 L996.91872,44.352 L998.44472,44.352 L998.44472,46.004 L993.01272,46.004 Z M1008.00168,40.334 C1008.00168,44.436 1006.51768,46.13 1003.56368,46.13 C1002.41568,46.13 1001.67368,45.976 1000.90368,45.64 L1001.22568,43.764 C1001.91168,44.044 1002.54168,44.184 1003.33968,44.184 C1004.96368,44.184 1005.63568,43.386 1005.78968,41.594 L1005.76168,41.566 C1005.18768,41.944 1004.48768,42.112 1003.66168,42.112 C1001.40768,42.112 1000.32968,40.824 1000.32968,38.892 C1000.32968,36.736 1001.50568,35.378 1004.05368,35.378 C1006.55968,35.378 1008.00168,37.002 1008.00168,40.334 Z M1005.73368,39.606 C1005.71968,37.87 1005.06168,37.31 1004.01168,37.31 C1003.03168,37.31 1002.51368,37.772 1002.51368,38.808 C1002.51368,39.788 1002.97568,40.306 1004.09568,40.306 C1004.82368,40.306 1005.41168,40.068 1005.73368,39.606 Z" id="Jul.-2019" fill="#2A5C96"></path>
                <path d="M383.168,164.06 L383.168,153.56 L385.128,153.56 L385.128,164.06 L383.168,164.06 Z M394.32224,164.06 L392.54424,164.06 L392.54424,158.614 C392.54424,157.55 391.97024,157.102 390.93424,157.102 C390.30424,157.102 389.60424,157.382 389.25424,157.872 L389.25424,164.06 L387.47624,164.06 L387.47624,155.674 L388.75024,155.576 L389.03024,156.388 C389.66024,155.8 390.51424,155.478 391.42424,155.478 C393.20224,155.478 394.32224,156.556 394.32224,158.6 L394.32224,164.06 Z M400.40848,157.004 L398.43448,157.004 L398.43448,161.694 C398.43448,162.436 398.82648,162.744 399.54048,162.744 C399.76448,162.744 400.07248,162.702 400.22648,162.646 L400.33848,163.976 C400.05848,164.102 399.54048,164.2 399.02248,164.2 C397.44048,164.2 396.65648,163.29 396.65648,161.736 L396.65648,157.004 L395.60648,157.004 L395.60648,155.632 L396.71248,155.632 L397.03448,153.658 L398.43448,153.518 L398.43448,155.632 L400.40848,155.632 L400.40848,157.004 Z M405.31872,164.214 C402.47672,164.214 401.24472,162.716 401.24472,159.692 C401.24472,157.018 402.42072,155.492 404.85672,155.492 C406.92872,155.492 408.25872,156.71 408.25872,159.398 C408.25872,159.664 408.24472,160 408.21672,160.252 L403.09272,160.252 C403.17672,162.016 403.91872,162.632 405.52872,162.632 C406.35472,162.632 407.08272,162.478 407.79672,162.17 L408.00672,163.64 C407.29272,163.99 406.36872,164.214 405.31872,164.214 Z M403.05072,159.048 L406.62072,159.048 C406.59272,157.564 405.92072,157.004 404.87072,157.004 C403.65272,157.004 403.13472,157.62 403.05072,159.048 Z M412.80496,160.588 C412.42696,160.588 412.04896,160.56 411.69896,160.49 C411.41896,160.602 411.25096,160.784 411.25096,160.994 C411.25096,161.232 411.44696,161.428 411.88096,161.456 L413.91096,161.596 C415.91296,161.736 416.62696,162.436 416.62696,163.682 C416.62696,165.306 415.57696,166.328 412.88896,166.328 C410.53696,166.328 409.54296,165.404 409.54296,164.102 C409.54296,163.556 409.79496,163.038 410.27096,162.646 C409.89296,162.408 409.61296,162.002 409.61296,161.442 C409.61296,160.882 409.94896,160.364 410.64896,160.07 L410.66296,160.042 C410.07496,159.664 409.69696,159.048 409.69696,158.068 C409.69696,156.514 410.55096,155.492 412.80496,155.492 C413.53296,155.492 414.30296,155.604 414.89096,155.982 L416.29096,155.478 L416.66896,156.36 L415.73096,157.06 C415.84296,157.34 415.89896,157.676 415.89896,158.068 C415.89896,159.678 415.04496,160.588 412.80496,160.588 Z M413.60296,163.136 L411.57296,162.982 C411.25096,163.248 411.06896,163.584 411.06896,163.878 C411.06896,164.578 411.58696,164.956 412.84696,164.956 C414.58296,164.956 415.01696,164.55 415.01696,163.948 C415.01696,163.472 414.75096,163.22 413.60296,163.136 Z M412.81896,156.864 C411.81096,156.864 411.44696,157.256 411.44696,158.096 C411.44696,159.076 411.99296,159.328 412.77696,159.328 C413.86896,159.328 414.19096,158.95 414.19096,158.096 C414.19096,157.186 413.78496,156.864 412.81896,156.864 Z M419.7452,164.06 L417.9672,164.06 L417.9672,155.688 L419.3952,155.604 L419.5492,157.186 L419.5912,157.186 C420.1092,156.094 420.9772,155.506 422.0132,155.506 C422.3632,155.506 422.6712,155.548 422.8952,155.618 L422.7832,157.424 C422.5172,157.34 422.2092,157.284 421.9012,157.284 C420.6832,157.284 419.7452,158.236 419.7452,159.818 L419.7452,164.06 Z M428.84144,164.06 L428.68744,163.164 L428.64544,163.15 C428.12744,163.808 427.27344,164.2 426.26544,164.2 C424.69744,164.2 423.66144,163.332 423.66144,161.456 C423.66144,159.874 424.72544,158.852 426.68544,158.852 C427.34344,158.852 427.95944,158.964 428.43544,159.118 L428.43544,158.488 C428.43544,157.438 427.93144,157.018 426.67144,157.018 C425.76144,157.018 425.10344,157.158 424.33344,157.494 L424.17944,156.024 C425.00544,155.66 425.94344,155.478 426.99344,155.478 C429.34544,155.478 430.19944,156.486 430.19944,158.754 L430.19944,164.06 L428.84144,164.06 Z M428.43544,161.582 L428.43544,160.35 C428.22544,160.252 427.70744,160.112 427.00744,160.112 C425.85944,160.112 425.34144,160.574 425.34144,161.428 C425.34144,162.408 425.92944,162.758 426.75544,162.758 C427.63744,162.758 428.43544,162.198 428.43544,161.582 Z M436.28568,157.004 L434.31168,157.004 L434.31168,161.694 C434.31168,162.436 434.70368,162.744 435.41768,162.744 C435.64168,162.744 435.94968,162.702 436.10368,162.646 L436.21568,163.976 C435.93568,164.102 435.41768,164.2 434.89968,164.2 C433.31768,164.2 432.53368,163.29 432.53368,161.736 L432.53368,157.004 L431.48368,157.004 L431.48368,155.632 L432.58968,155.632 L432.91168,153.658 L434.31168,153.518 L434.31168,155.632 L436.28568,155.632 L436.28568,157.004 Z M441.19592,164.214 C438.35392,164.214 437.12192,162.716 437.12192,159.692 C437.12192,157.018 438.29792,155.492 440.73392,155.492 C442.80592,155.492 444.13592,156.71 444.13592,159.398 C444.13592,159.664 444.12192,160 444.09392,160.252 L438.96992,160.252 C439.05392,162.016 439.79592,162.632 441.40592,162.632 C442.23192,162.632 442.95992,162.478 443.67392,162.17 L443.88392,163.64 C443.16992,163.99 442.24592,164.214 441.19592,164.214 Z M438.92792,159.048 L442.49792,159.048 C442.46992,157.564 441.79792,157.004 440.74792,157.004 C439.52992,157.004 439.01192,157.62 438.92792,159.048 Z M452.49016,164.06 L451.10416,164.06 L450.90816,163.262 L450.86616,163.248 C450.34816,163.878 449.59216,164.228 448.51416,164.228 C446.30216,164.228 445.28016,162.828 445.28016,159.818 C445.28016,157.018 446.31616,155.478 448.50016,155.478 C449.35416,155.478 450.13816,155.772 450.71216,156.332 L450.74016,156.304 L450.71216,155.184 L450.71216,153.098 L452.49016,153 L452.49016,164.06 Z M450.71216,161.904 L450.71216,157.886 C450.40416,157.424 449.78816,157.116 449.01816,157.116 C447.63216,157.116 447.12816,157.844 447.12816,159.888 C447.12816,162.03 447.57616,162.744 449.00416,162.744 C449.97016,162.744 450.48816,162.296 450.71216,161.904 Z M391.4,176.768 C391.4,180.576 389.874,182.06 386.808,182.06 L383,182.06 L383,171.56 L386.78,171.56 C390.042,171.56 391.4,173.114 391.4,176.768 Z M389.384,176.754 C389.384,174.038 388.656,173.338 386.766,173.338 L384.932,173.338 L384.932,180.296 L386.766,180.296 C388.586,180.296 389.384,179.666 389.384,176.754 Z M396.78624,182.214 C393.94424,182.214 392.71224,180.716 392.71224,177.692 C392.71224,175.018 393.88824,173.492 396.32424,173.492 C398.39624,173.492 399.72624,174.71 399.72624,177.398 C399.72624,177.664 399.71224,178 399.68424,178.252 L394.56024,178.252 C394.64424,180.016 395.38624,180.632 396.99624,180.632 C397.82224,180.632 398.55024,180.478 399.26424,180.17 L399.47424,181.64 C398.76024,181.99 397.83624,182.214 396.78624,182.214 Z M394.51824,177.048 L398.08824,177.048 C398.06024,175.564 397.38824,175.004 396.33824,175.004 C395.12024,175.004 394.60224,175.62 394.51824,177.048 Z M406.66648,173.884 L406.55448,175.452 C406.09248,175.256 405.53248,175.13 405.00048,175.13 C403.30648,175.13 402.71848,175.886 402.71848,177.832 C402.71848,179.89 403.51648,180.674 404.95848,180.674 C405.56048,180.674 406.14848,180.534 406.61048,180.282 L406.73648,181.71 C406.24648,182.032 405.47648,182.242 404.58048,182.242 C402.14448,182.242 400.87048,180.842 400.87048,177.832 C400.87048,175.018 402.00448,173.506 404.62248,173.506 C405.35048,173.506 406.12048,173.66 406.66648,173.884 Z M411.68872,182.214 C408.84672,182.214 407.61472,180.716 407.61472,177.692 C407.61472,175.018 408.79072,173.492 411.22672,173.492 C413.29872,173.492 414.62872,174.71 414.62872,177.398 C414.62872,177.664 414.61472,178 414.58672,178.252 L409.46272,178.252 C409.54672,180.016 410.28872,180.632 411.89872,180.632 C412.72472,180.632 413.45272,180.478 414.16672,180.17 L414.37672,181.64 C413.66272,181.99 412.73872,182.214 411.68872,182.214 Z M409.42072,177.048 L412.99072,177.048 C412.96272,175.564 412.29072,175.004 411.24072,175.004 C410.02272,175.004 409.50472,175.62 409.42072,177.048 Z M423.05296,182.06 L421.27496,182.06 L421.27496,176.614 C421.27496,175.55 420.70096,175.102 419.66496,175.102 C419.03496,175.102 418.33496,175.382 417.98496,175.872 L417.98496,182.06 L416.20696,182.06 L416.20696,173.674 L417.48096,173.576 L417.76096,174.388 C418.39096,173.8 419.24496,173.478 420.15496,173.478 C421.93296,173.478 423.05296,174.556 423.05296,176.6 L423.05296,182.06 Z M429.1392,175.004 L427.1652,175.004 L427.1652,179.694 C427.1652,180.436 427.5572,180.744 428.2712,180.744 C428.4952,180.744 428.8032,180.702 428.9572,180.646 L429.0692,181.976 C428.7892,182.102 428.2712,182.2 427.7532,182.2 C426.1712,182.2 425.3872,181.29 425.3872,179.736 L425.3872,175.004 L424.3372,175.004 L424.3372,173.632 L425.4432,173.632 L425.7652,171.658 L427.1652,171.518 L427.1652,173.632 L429.1392,173.632 L429.1392,175.004 Z M432.32744,182.06 L430.54944,182.06 L430.54944,173.688 L431.97744,173.604 L432.13144,175.186 L432.17344,175.186 C432.69144,174.094 433.55944,173.506 434.59544,173.506 C434.94544,173.506 435.25344,173.548 435.47744,173.618 L435.36544,175.424 C435.09944,175.34 434.79144,175.284 434.48344,175.284 C433.26544,175.284 432.32744,176.236 432.32744,177.818 L432.32744,182.06 Z M441.42368,182.06 L441.26968,181.164 L441.22768,181.15 C440.70968,181.808 439.85568,182.2 438.84768,182.2 C437.27968,182.2 436.24368,181.332 436.24368,179.456 C436.24368,177.874 437.30768,176.852 439.26768,176.852 C439.92568,176.852 440.54168,176.964 441.01768,177.118 L441.01768,176.488 C441.01768,175.438 440.51368,175.018 439.25368,175.018 C438.34368,175.018 437.68568,175.158 436.91568,175.494 L436.76168,174.024 C437.58768,173.66 438.52568,173.478 439.57568,173.478 C441.92768,173.478 442.78168,174.486 442.78168,176.754 L442.78168,182.06 L441.42368,182.06 Z M441.01768,179.582 L441.01768,178.35 C440.80768,178.252 440.28968,178.112 439.58968,178.112 C438.44168,178.112 437.92368,178.574 437.92368,179.428 C437.92368,180.408 438.51168,180.758 439.33768,180.758 C440.21968,180.758 441.01768,180.198 441.01768,179.582 Z M446.69792,182.06 L444.90592,182.06 L444.90592,171.098 L446.69792,171 L446.69792,182.06 Z M451.04816,182.06 L449.24216,182.06 L449.24216,173.688 L451.04816,173.59 L451.04816,182.06 Z M451.21616,171.686 C451.21616,172.246 450.88016,172.512 450.15216,172.512 C449.43816,172.512 449.08816,172.302 449.08816,171.686 C449.08816,171.14 449.43816,170.832 450.15216,170.832 C450.88016,170.832 451.21616,171.14 451.21616,171.686 Z M459.1924,174.906 L455.8184,179.638 L455.1464,180.506 L455.1604,180.548 L459.2904,180.548 L459.2344,182.06 L453.0744,182.06 L453.0744,180.786 L456.4624,176.068 L457.1344,175.186 L457.1204,175.158 L453.2004,175.158 L453.2704,173.632 L459.1924,173.632 L459.1924,174.906 Z M464.45264,182.214 C461.61064,182.214 460.37864,180.716 460.37864,177.692 C460.37864,175.018 461.55464,173.492 463.99064,173.492 C466.06264,173.492 467.39264,174.71 467.39264,177.398 C467.39264,177.664 467.37864,178 467.35064,178.252 L462.22664,178.252 C462.31064,180.016 463.05264,180.632 464.66264,180.632 C465.48864,180.632 466.21664,180.478 466.93064,180.17 L467.14064,181.64 C466.42664,181.99 465.50264,182.214 464.45264,182.214 Z M462.18464,177.048 L465.75464,177.048 C465.72664,175.564 465.05464,175.004 464.00464,175.004 C462.78664,175.004 462.26864,175.62 462.18464,177.048 Z M475.74688,182.06 L474.36088,182.06 L474.16488,181.262 L474.12288,181.248 C473.60488,181.878 472.84888,182.228 471.77088,182.228 C469.55888,182.228 468.53688,180.828 468.53688,177.818 C468.53688,175.018 469.57288,173.478 471.75688,173.478 C472.61088,173.478 473.39488,173.772 473.96888,174.332 L473.99688,174.304 L473.96888,173.184 L473.96888,171.098 L475.74688,171 L475.74688,182.06 Z M473.96888,179.904 L473.96888,175.886 C473.66088,175.424 473.04488,175.116 472.27488,175.116 C470.88888,175.116 470.38488,175.844 470.38488,177.888 C470.38488,180.03 470.83288,180.744 472.26088,180.744 C473.22688,180.744 473.74488,180.296 473.96888,179.904 Z M391.54,200.06 L389.188,200.06 L386.234,195.454 L384.932,195.454 L384.932,200.06 L383,200.06 L383,189.56 L384.932,189.56 L384.932,193.844 L386.276,193.844 L389.104,189.56 L391.358,189.56 L387.998,194.544 L391.54,200.06 Z M392.02624,189.56 L394.21024,189.56 L396.22624,193.844 L396.68824,194.866 L396.73024,194.866 L397.16424,193.83 L399.13824,189.56 L401.25224,189.56 L397.65424,196.616 L397.65424,200.06 L395.68024,200.06 L395.68024,196.616 L392.02624,189.56 Z M408.86448,189.84 L408.65448,191.534 C408.10848,191.324 407.33848,191.156 406.52648,191.156 C404.48248,191.156 403.71248,192.024 403.71248,194.74 C403.71248,197.624 404.51048,198.506 406.56848,198.506 C407.38048,198.506 408.08048,198.324 408.68248,198.058 L408.90648,199.668 C408.22048,200.004 407.22648,200.256 406.31648,200.256 C403.16648,200.256 401.68248,198.506 401.68248,194.726 C401.68248,191.17 403.15248,189.378 406.42848,189.378 C407.28248,189.378 408.27648,189.588 408.86448,189.84 Z M414.18072,189.028 L415.72072,189.028 L410.91872,201.782 L409.42072,201.782 L414.18072,189.028 Z M423.52896,200.06 L422.84296,197.806 L418.64296,197.806 L417.94296,200.06 L415.88496,200.06 L419.62296,189.56 L421.93296,189.56 L425.69896,200.06 L423.52896,200.06 Z M420.74296,190.974 L420.42096,192.066 L419.14696,196.168 L422.33896,196.168 L421.07896,192.066 L420.78496,190.974 L420.74296,190.974 Z M427.0252,189.56 L429.1812,189.56 L431.8692,196.252 L432.2752,197.302 L432.3172,197.302 L432.7092,196.252 L435.4252,189.56 L437.5672,189.56 L437.5672,200.06 L435.8032,200.06 L435.8032,193.998 L435.8312,192.864 L435.7892,192.85 L435.3832,193.914 L432.9192,200.06 L431.6032,200.06 L429.1532,193.914 L428.7472,192.85 L428.7192,192.864 L428.7332,193.998 L428.7332,200.06 L427.0252,200.06 L427.0252,189.56 Z M441.84744,198.282 L446.42544,198.282 L446.38344,200.06 L439.90144,200.06 L439.90144,189.56 L441.84744,189.56 L441.84744,198.282 Z M458.24792,196.98 C458.24792,199.01 456.87592,200.256 454.49592,200.256 C453.29192,200.256 452.19992,199.962 451.33192,199.472 L451.59792,197.75 C452.47992,198.254 453.41792,198.534 454.48192,198.534 C455.78392,198.534 456.38592,198.016 456.38592,197.106 C456.38592,195.132 451.38792,195.986 451.38792,192.472 C451.38792,190.764 452.49392,189.378 455.02792,189.378 C456.06392,189.378 457.11392,189.588 457.89792,189.938 L457.64592,191.604 C456.79192,191.296 455.96592,191.128 455.12592,191.128 C453.69792,191.128 453.24992,191.702 453.24992,192.374 C453.24992,194.292 458.24792,193.41 458.24792,196.98 Z M466.82616,195.874 C466.82616,198.996 465.70616,200.256 463.08816,200.256 C460.48416,200.256 459.30816,198.996 459.30816,195.874 C459.30816,192.766 460.48416,191.478 463.08816,191.478 C465.70616,191.478 466.82616,192.766 466.82616,195.874 Z M461.15616,195.874 C461.15616,198.086 461.70216,198.758 463.08816,198.758 C464.47416,198.758 464.99216,198.086 464.99216,195.874 C464.99216,193.662 464.47416,192.99 463.08816,192.99 C461.68816,192.99 461.15616,193.662 461.15616,195.874 Z M470.4344,200.06 L468.6424,200.06 L468.6424,189.098 L470.4344,189 L470.4344,200.06 Z M479.41864,191.632 L479.41864,197.176 C479.41864,199.15 478.29864,200.214 475.98864,200.214 C473.67864,200.214 472.57264,199.108 472.57264,197.176 L472.57264,191.632 L474.35064,191.632 L474.35064,197.134 C474.35064,198.1 474.88264,198.604 476.00264,198.604 C477.09464,198.604 477.64064,198.114 477.64064,197.134 L477.64064,191.632 L479.41864,191.632 Z M485.37888,193.004 L483.40488,193.004 L483.40488,197.694 C483.40488,198.436 483.79688,198.744 484.51088,198.744 C484.73488,198.744 485.04288,198.702 485.19688,198.646 L485.30888,199.976 C485.02888,200.102 484.51088,200.2 483.99288,200.2 C482.41088,200.2 481.62688,199.29 481.62688,197.736 L481.62688,193.004 L480.57688,193.004 L480.57688,191.632 L481.68288,191.632 L482.00488,189.658 L483.40488,189.518 L483.40488,191.632 L485.37888,191.632 L485.37888,193.004 Z M488.88912,200.06 L487.08312,200.06 L487.08312,191.688 L488.88912,191.59 L488.88912,200.06 Z M489.05712,189.686 C489.05712,190.246 488.72112,190.512 487.99312,190.512 C487.27912,190.512 486.92912,190.302 486.92912,189.686 C486.92912,189.14 487.27912,188.832 487.99312,188.832 C488.72112,188.832 489.05712,189.14 489.05712,189.686 Z M498.30736,195.874 C498.30736,198.996 497.18736,200.256 494.56936,200.256 C491.96536,200.256 490.78936,198.996 490.78936,195.874 C490.78936,192.766 491.96536,191.478 494.56936,191.478 C497.18736,191.478 498.30736,192.766 498.30736,195.874 Z M492.63736,195.874 C492.63736,198.086 493.18336,198.758 494.56936,198.758 C495.95536,198.758 496.47336,198.086 496.47336,195.874 C496.47336,193.662 495.95536,192.99 494.56936,192.99 C493.16936,192.99 492.63736,193.662 492.63736,195.874 Z M506.7596,200.06 L504.9816,200.06 L504.9816,194.614 C504.9816,193.55 504.4076,193.102 503.3716,193.102 C502.7416,193.102 502.0416,193.382 501.6916,193.872 L501.6916,200.06 L499.9136,200.06 L499.9136,191.674 L501.1876,191.576 L501.4676,192.388 C502.0976,191.8 502.9516,191.478 503.8616,191.478 C505.6396,191.478 506.7596,192.556 506.7596,194.6 L506.7596,200.06 Z" id="Integrated-Decentral-Copy" fill="#5B6C72"></path>
                <path d="M578.4,158.936 C578.4,162.744 576.874,164.228 573.808,164.228 L570,164.228 L570,153.728 L573.78,153.728 C577.042,153.728 578.4,155.282 578.4,158.936 Z M576.384,158.922 C576.384,156.206 575.656,155.506 573.766,155.506 L571.932,155.506 L571.932,162.464 L573.766,162.464 C575.586,162.464 576.384,161.834 576.384,158.922 Z M583.78624,164.382 C580.94424,164.382 579.71224,162.884 579.71224,159.86 C579.71224,157.186 580.88824,155.66 583.32424,155.66 C585.39624,155.66 586.72624,156.878 586.72624,159.566 C586.72624,159.832 586.71224,160.168 586.68424,160.42 L581.56024,160.42 C581.64424,162.184 582.38624,162.8 583.99624,162.8 C584.82224,162.8 585.55024,162.646 586.26424,162.338 L586.47424,163.808 C585.76024,164.158 584.83624,164.382 583.78624,164.382 Z M581.51824,159.216 L585.08824,159.216 C585.06024,157.732 584.38824,157.172 583.33824,157.172 C582.12024,157.172 581.60224,157.788 581.51824,159.216 Z M595.57048,160 C595.57048,163.122 594.31048,164.396 592.18248,164.396 C591.18848,164.396 590.36248,164.018 589.83048,163.458 L589.57848,164.228 L588.37448,164.228 L588.37448,153.266 L590.15248,153.168 L590.15248,155.352 L590.12448,156.472 L590.16648,156.5 C590.75448,155.926 591.55248,155.66 592.39248,155.66 C594.33848,155.66 595.57048,156.864 595.57048,160 Z M593.75048,160.028 C593.75048,157.732 593.07848,157.256 591.88848,157.256 C591.13248,157.256 590.51648,157.564 590.15248,158.082 L590.15248,162.072 C590.44648,162.534 591.03448,162.926 591.90248,162.926 C593.03648,162.926 593.75048,162.394 593.75048,160.028 Z M599.27672,164.228 L597.47072,164.228 L597.47072,155.856 L599.27672,155.758 L599.27672,164.228 Z M599.44472,153.854 C599.44472,154.414 599.10872,154.68 598.38072,154.68 C597.66672,154.68 597.31672,154.47 597.31672,153.854 C597.31672,153.308 597.66672,153 598.38072,153 C599.10872,153 599.44472,153.308 599.44472,153.854 Z M605.78296,157.172 L603.80896,157.172 L603.80896,161.862 C603.80896,162.604 604.20096,162.912 604.91496,162.912 C605.13896,162.912 605.44696,162.87 605.60096,162.814 L605.71296,164.144 C605.43296,164.27 604.91496,164.368 604.39696,164.368 C602.81496,164.368 602.03096,163.458 602.03096,161.904 L602.03096,157.172 L600.98096,157.172 L600.98096,155.8 L602.08696,155.8 L602.40896,153.826 L603.80896,153.686 L603.80896,155.8 L605.78296,155.8 L605.78296,157.172 Z M616.51344,156.052 L616.40144,157.62 C615.93944,157.424 615.37944,157.298 614.84744,157.298 C613.15344,157.298 612.56544,158.054 612.56544,160 C612.56544,162.058 613.36344,162.842 614.80544,162.842 C615.40744,162.842 615.99544,162.702 616.45744,162.45 L616.58344,163.878 C616.09344,164.2 615.32344,164.41 614.42744,164.41 C611.99144,164.41 610.71744,163.01 610.71744,160 C610.71744,157.186 611.85144,155.674 614.46944,155.674 C615.19744,155.674 615.96744,155.828 616.51344,156.052 Z M622.83768,164.228 L622.68368,163.332 L622.64168,163.318 C622.12368,163.976 621.26968,164.368 620.26168,164.368 C618.69368,164.368 617.65768,163.5 617.65768,161.624 C617.65768,160.042 618.72168,159.02 620.68168,159.02 C621.33968,159.02 621.95568,159.132 622.43168,159.286 L622.43168,158.656 C622.43168,157.606 621.92768,157.186 620.66768,157.186 C619.75768,157.186 619.09968,157.326 618.32968,157.662 L618.17568,156.192 C619.00168,155.828 619.93968,155.646 620.98968,155.646 C623.34168,155.646 624.19568,156.654 624.19568,158.922 L624.19568,164.228 L622.83768,164.228 Z M622.43168,161.75 L622.43168,160.518 C622.22168,160.42 621.70368,160.28 621.00368,160.28 C619.85568,160.28 619.33768,160.742 619.33768,161.596 C619.33768,162.576 619.92568,162.926 620.75168,162.926 C621.63368,162.926 622.43168,162.366 622.43168,161.75 Z M627.88792,164.228 L626.10992,164.228 L626.10992,155.856 L627.53792,155.772 L627.69192,157.354 L627.73392,157.354 C628.25192,156.262 629.11992,155.674 630.15592,155.674 C630.50592,155.674 630.81392,155.716 631.03792,155.786 L630.92592,157.592 C630.65992,157.508 630.35192,157.452 630.04392,157.452 C628.82592,157.452 627.88792,158.404 627.88792,159.986 L627.88792,164.228 Z M639.00016,164.228 L637.61416,164.228 L637.41816,163.43 L637.37616,163.416 C636.85816,164.046 636.10216,164.396 635.02416,164.396 C632.81216,164.396 631.79016,162.996 631.79016,159.986 C631.79016,157.186 632.82616,155.646 635.01016,155.646 C635.86416,155.646 636.64816,155.94 637.22216,156.5 L637.25016,156.472 L637.22216,155.352 L637.22216,153.266 L639.00016,153.168 L639.00016,164.228 Z M637.22216,162.072 L637.22216,158.054 C636.91416,157.592 636.29816,157.284 635.52816,157.284 C634.14216,157.284 633.63816,158.012 633.63816,160.056 C633.63816,162.198 634.08616,162.912 635.51416,162.912 C636.48016,162.912 636.99816,162.464 637.22216,162.072 Z M647.02864,164.228 L645.23664,164.228 L645.23664,153.266 L647.02864,153.168 L647.02864,164.228 Z M654.09488,164.228 L653.94088,163.332 L653.89888,163.318 C653.38088,163.976 652.52688,164.368 651.51888,164.368 C649.95088,164.368 648.91488,163.5 648.91488,161.624 C648.91488,160.042 649.97888,159.02 651.93888,159.02 C652.59688,159.02 653.21288,159.132 653.68888,159.286 L653.68888,158.656 C653.68888,157.606 653.18488,157.186 651.92488,157.186 C651.01488,157.186 650.35688,157.326 649.58688,157.662 L649.43288,156.192 C650.25888,155.828 651.19688,155.646 652.24688,155.646 C654.59888,155.646 655.45288,156.654 655.45288,158.922 L655.45288,164.228 L654.09488,164.228 Z M653.68888,161.75 L653.68888,160.518 C653.47888,160.42 652.96088,160.28 652.26088,160.28 C651.11288,160.28 650.59488,160.742 650.59488,161.596 C650.59488,162.576 651.18288,162.926 652.00888,162.926 C652.89088,162.926 653.68888,162.366 653.68888,161.75 Z M664.10112,155.8 L664.10112,161.344 C664.10112,163.318 662.98112,164.382 660.67112,164.382 C658.36112,164.382 657.25512,163.276 657.25512,161.344 L657.25512,155.8 L659.03312,155.8 L659.03312,161.302 C659.03312,162.268 659.56512,162.772 660.68512,162.772 C661.77712,162.772 662.32312,162.282 662.32312,161.302 L662.32312,155.8 L664.10112,155.8 Z M672.86136,164.228 L671.08336,164.228 L671.08336,158.782 C671.08336,157.718 670.50936,157.27 669.47336,157.27 C668.84336,157.27 668.14336,157.55 667.79336,158.04 L667.79336,164.228 L666.01536,164.228 L666.01536,155.842 L667.28936,155.744 L667.56936,156.556 C668.19936,155.968 669.05336,155.646 669.96336,155.646 C671.74136,155.646 672.86136,156.724 672.86136,158.768 L672.86136,164.228 Z M680.1376,156.052 L680.0256,157.62 C679.5636,157.424 679.0036,157.298 678.4716,157.298 C676.7776,157.298 676.1896,158.054 676.1896,160 C676.1896,162.058 676.9876,162.842 678.4296,162.842 C679.0316,162.842 679.6196,162.702 680.0816,162.45 L680.2076,163.878 C679.7176,164.2 678.9476,164.41 678.0516,164.41 C675.6156,164.41 674.3416,163.01 674.3416,160 C674.3416,157.186 675.4756,155.674 678.0936,155.674 C678.8216,155.674 679.5916,155.828 680.1376,156.052 Z M688.64584,164.228 L686.85384,164.228 L686.85384,158.768 C686.85384,157.788 686.34984,157.27 685.25784,157.27 C684.51584,157.27 683.87184,157.606 683.57784,158.054 L683.57784,164.228 L681.79984,164.228 L681.79984,153.266 L683.57784,153.168 L683.57784,155.324 L683.54984,156.444 L683.59184,156.472 C684.22184,155.884 685.01984,155.646 685.81784,155.646 C687.60984,155.646 688.64584,156.78 688.64584,158.768 L688.64584,164.228 Z" id="Debit-card-launch" fill="#5B6C72"></path>
                <path d="M764.916,160.98 C764.916,163.01 763.544,164.256 761.164,164.256 C759.96,164.256 758.868,163.962 758,163.472 L758.266,161.75 C759.148,162.254 760.086,162.534 761.15,162.534 C762.452,162.534 763.054,162.016 763.054,161.106 C763.054,159.132 758.056,159.986 758.056,156.472 C758.056,154.764 759.162,153.378 761.696,153.378 C762.732,153.378 763.782,153.588 764.566,153.938 L764.314,155.604 C763.46,155.296 762.634,155.128 761.794,155.128 C760.366,155.128 759.918,155.702 759.918,156.374 C759.918,158.292 764.916,157.41 764.916,160.98 Z M771.77224,155.884 L771.66024,157.452 C771.19824,157.256 770.63824,157.13 770.10624,157.13 C768.41224,157.13 767.82424,157.886 767.82424,159.832 C767.82424,161.89 768.62224,162.674 770.06424,162.674 C770.66624,162.674 771.25424,162.534 771.71624,162.282 L771.84224,163.71 C771.35224,164.032 770.58224,164.242 769.68624,164.242 C767.25024,164.242 765.97624,162.842 765.97624,159.832 C765.97624,157.018 767.11024,155.506 769.72824,155.506 C770.45624,155.506 771.22624,155.66 771.77224,155.884 Z M778.09648,164.06 L777.94248,163.164 L777.90048,163.15 C777.38248,163.808 776.52848,164.2 775.52048,164.2 C773.95248,164.2 772.91648,163.332 772.91648,161.456 C772.91648,159.874 773.98048,158.852 775.94048,158.852 C776.59848,158.852 777.21448,158.964 777.69048,159.118 L777.69048,158.488 C777.69048,157.438 777.18648,157.018 775.92648,157.018 C775.01648,157.018 774.35848,157.158 773.58848,157.494 L773.43448,156.024 C774.26048,155.66 775.19848,155.478 776.24848,155.478 C778.60048,155.478 779.45448,156.486 779.45448,158.754 L779.45448,164.06 L778.09648,164.06 Z M777.69048,161.582 L777.69048,160.35 C777.48048,160.252 776.96248,160.112 776.26248,160.112 C775.11448,160.112 774.59648,160.574 774.59648,161.428 C774.59648,162.408 775.18448,162.758 776.01048,162.758 C776.89248,162.758 777.69048,162.198 777.69048,161.582 Z M783.37072,164.06 L781.57872,164.06 L781.57872,153.098 L783.37072,153 L783.37072,164.06 Z M789.26096,164.214 C786.41896,164.214 785.18696,162.716 785.18696,159.692 C785.18696,157.018 786.36296,155.492 788.79896,155.492 C790.87096,155.492 792.20096,156.71 792.20096,159.398 C792.20096,159.664 792.18696,160 792.15896,160.252 L787.03496,160.252 C787.11896,162.016 787.86096,162.632 789.47096,162.632 C790.29696,162.632 791.02496,162.478 791.73896,162.17 L791.94896,163.64 C791.23496,163.99 790.31096,164.214 789.26096,164.214 Z M786.99296,159.048 L790.56296,159.048 C790.53496,157.564 789.86296,157.004 788.81296,157.004 C787.59496,157.004 787.07696,157.62 786.99296,159.048 Z M804.47144,155.632 L804.47144,161.176 C804.47144,163.15 803.35144,164.214 801.04144,164.214 C798.73144,164.214 797.62544,163.108 797.62544,161.176 L797.62544,155.632 L799.40344,155.632 L799.40344,161.134 C799.40344,162.1 799.93544,162.604 801.05544,162.604 C802.14744,162.604 802.69344,162.114 802.69344,161.134 L802.69344,155.632 L804.47144,155.632 Z M813.58168,159.832 C813.58168,162.87 812.30768,164.214 810.30568,164.214 C809.50768,164.214 808.76568,164.018 808.20568,163.43 L808.16368,163.444 L808.19168,164.578 L808.19168,166.174 L806.38568,166.174 L806.38568,155.688 L807.64568,155.604 L807.99568,156.402 C808.59768,155.828 809.43768,155.492 810.37568,155.492 C812.44768,155.492 813.58168,156.598 813.58168,159.832 Z M811.74768,159.818 C811.74768,157.676 811.14568,157.102 809.91368,157.102 C809.15768,157.102 808.55568,157.41 808.19168,157.928 L808.19168,161.834 C808.48568,162.31 809.03168,162.688 809.85768,162.688 C810.97768,162.688 811.74768,162.156 811.74768,159.818 Z M823.31816,157.004 L821.34416,157.004 L821.34416,161.694 C821.34416,162.436 821.73616,162.744 822.45016,162.744 C822.67416,162.744 822.98216,162.702 823.13616,162.646 L823.24816,163.976 C822.96816,164.102 822.45016,164.2 821.93216,164.2 C820.35016,164.2 819.56616,163.29 819.56616,161.736 L819.56616,157.004 L818.51616,157.004 L818.51616,155.632 L819.62216,155.632 L819.94416,153.658 L821.34416,153.518 L821.34416,155.632 L823.31816,155.632 L823.31816,157.004 Z M828.2284,164.214 C825.3864,164.214 824.1544,162.716 824.1544,159.692 C824.1544,157.018 825.3304,155.492 827.7664,155.492 C829.8384,155.492 831.1684,156.71 831.1684,159.398 C831.1684,159.664 831.1544,160 831.1264,160.252 L826.0024,160.252 C826.0864,162.016 826.8284,162.632 828.4384,162.632 C829.2644,162.632 829.9924,162.478 830.7064,162.17 L830.9164,163.64 C830.2024,163.99 829.2784,164.214 828.2284,164.214 Z M825.9604,159.048 L829.5304,159.048 C829.5024,157.564 828.8304,157.004 827.7804,157.004 C826.5624,157.004 826.0444,157.62 825.9604,159.048 Z M838.09464,161.498 C838.09464,163.136 837.17064,164.228 834.98664,164.228 C833.97864,164.228 833.06864,164.018 832.36864,163.598 L832.57864,162.086 C833.23664,162.52 834.21664,162.744 834.98664,162.744 C836.00864,162.744 836.44264,162.282 836.44264,161.666 C836.44264,160.07 832.34064,160.896 832.34064,157.984 C832.34064,156.514 833.36264,155.492 835.42064,155.492 C836.26064,155.492 837.05864,155.66 837.75864,155.968 L837.60464,157.452 C836.90464,157.158 836.03664,157.018 835.39264,157.018 C834.55264,157.018 834.04864,157.354 834.04864,157.914 C834.04864,159.398 838.09464,158.572 838.09464,161.498 Z M843.59288,157.004 L841.61888,157.004 L841.61888,161.694 C841.61888,162.436 842.01088,162.744 842.72488,162.744 C842.94888,162.744 843.25688,162.702 843.41088,162.646 L843.52288,163.976 C843.24288,164.102 842.72488,164.2 842.20688,164.2 C840.62488,164.2 839.84088,163.29 839.84088,161.736 L839.84088,157.004 L838.79088,157.004 L838.79088,155.632 L839.89688,155.632 L840.21888,153.658 L841.61888,153.518 L841.61888,155.632 L843.59288,155.632 L843.59288,157.004 Z M850.37912,161.498 C850.37912,163.136 849.45512,164.228 847.27112,164.228 C846.26312,164.228 845.35312,164.018 844.65312,163.598 L844.86312,162.086 C845.52112,162.52 846.50112,162.744 847.27112,162.744 C848.29312,162.744 848.72712,162.282 848.72712,161.666 C848.72712,160.07 844.62512,160.896 844.62512,157.984 C844.62512,156.514 845.64712,155.492 847.70512,155.492 C848.54512,155.492 849.34312,155.66 850.04312,155.968 L849.88912,157.452 C849.18912,157.158 848.32112,157.018 847.67712,157.018 C846.83712,157.018 846.33312,157.354 846.33312,157.914 C846.33312,159.398 850.37912,158.572 850.37912,161.498 Z" id="Scale-up-tests" fill="#5B6C72"></path>
                <path d="M946,153.728 L948.156,153.728 L950.844,160.42 L951.25,161.47 L951.292,161.47 L951.684,160.42 L954.4,153.728 L956.542,153.728 L956.542,164.228 L954.778,164.228 L954.778,158.166 L954.806,157.032 L954.764,157.018 L954.358,158.082 L951.894,164.228 L950.578,164.228 L948.128,158.082 L947.722,157.018 L947.694,157.032 L947.708,158.166 L947.708,164.228 L946,164.228 L946,153.728 Z M963.53824,164.228 L963.38424,163.332 L963.34224,163.318 C962.82424,163.976 961.97024,164.368 960.96224,164.368 C959.39424,164.368 958.35824,163.5 958.35824,161.624 C958.35824,160.042 959.42224,159.02 961.38224,159.02 C962.04024,159.02 962.65624,159.132 963.13224,159.286 L963.13224,158.656 C963.13224,157.606 962.62824,157.186 961.36824,157.186 C960.45824,157.186 959.80024,157.326 959.03024,157.662 L958.87624,156.192 C959.70224,155.828 960.64024,155.646 961.69024,155.646 C964.04224,155.646 964.89624,156.654 964.89624,158.922 L964.89624,164.228 L963.53824,164.228 Z M963.13224,161.75 L963.13224,160.518 C962.92224,160.42 962.40424,160.28 961.70424,160.28 C960.55624,160.28 960.03824,160.742 960.03824,161.596 C960.03824,162.576 960.62624,162.926 961.45224,162.926 C962.33424,162.926 963.13224,162.366 963.13224,161.75 Z M968.91048,164.228 L967.10448,164.228 L967.10448,155.856 L968.91048,155.758 L968.91048,164.228 Z M969.07848,153.854 C969.07848,154.414 968.74248,154.68 968.01448,154.68 C967.30048,154.68 966.95048,154.47 966.95048,153.854 C966.95048,153.308 967.30048,153 968.01448,153 C968.74248,153 969.07848,153.308 969.07848,153.854 Z M978.09072,164.228 L976.31272,164.228 L976.31272,158.782 C976.31272,157.718 975.73872,157.27 974.70272,157.27 C974.07272,157.27 973.37272,157.55 973.02272,158.04 L973.02272,164.228 L971.24472,164.228 L971.24472,155.842 L972.51872,155.744 L972.79872,156.556 C973.42872,155.968 974.28272,155.646 975.19272,155.646 C976.97072,155.646 978.09072,156.724 978.09072,158.768 L978.09072,164.228 Z M992.3212,164.228 L990.9632,164.228 L986.4832,157.83 L985.8532,156.878 L985.8252,156.892 L985.8392,158.026 L985.8392,164.228 L984.1172,164.228 L984.1172,153.728 L985.7972,153.728 L989.9832,159.86 L990.6132,160.798 L990.6412,160.784 L990.6132,159.664 L990.6132,153.728 L992.3212,153.728 L992.3212,164.228 Z M998.14144,164.382 C995.29944,164.382 994.06744,162.884 994.06744,159.86 C994.06744,157.186 995.24344,155.66 997.67944,155.66 C999.75144,155.66 1001.08144,156.878 1001.08144,159.566 C1001.08144,159.832 1001.06744,160.168 1001.03944,160.42 L995.91544,160.42 C995.99944,162.184 996.74144,162.8 998.35144,162.8 C999.17744,162.8 999.90544,162.646 1000.61944,162.338 L1000.82944,163.808 C1000.11544,164.158 999.19144,164.382 998.14144,164.382 Z M995.87344,159.216 L999.44344,159.216 C999.41544,157.732 998.74344,157.172 997.69344,157.172 C996.47544,157.172 995.95744,157.788 995.87344,159.216 Z M1006.71968,157.172 L1004.74568,157.172 L1004.74568,161.862 C1004.74568,162.604 1005.13768,162.912 1005.85168,162.912 C1006.07568,162.912 1006.38368,162.87 1006.53768,162.814 L1006.64968,164.144 C1006.36968,164.27 1005.85168,164.368 1005.33368,164.368 C1003.75168,164.368 1002.96768,163.458 1002.96768,161.904 L1002.96768,157.172 L1001.91768,157.172 L1001.91768,155.8 L1003.02368,155.8 L1003.34568,153.826 L1004.74568,153.686 L1004.74568,155.8 L1006.71968,155.8 L1006.71968,157.172 Z M1014.09016,164.228 L1012.29816,164.228 L1012.29816,153.266 L1014.09016,153.168 L1014.09016,164.228 Z M1021.1564,164.228 L1021.0024,163.332 L1020.9604,163.318 C1020.4424,163.976 1019.5884,164.368 1018.5804,164.368 C1017.0124,164.368 1015.9764,163.5 1015.9764,161.624 C1015.9764,160.042 1017.0404,159.02 1019.0004,159.02 C1019.6584,159.02 1020.2744,159.132 1020.7504,159.286 L1020.7504,158.656 C1020.7504,157.606 1020.2464,157.186 1018.9864,157.186 C1018.0764,157.186 1017.4184,157.326 1016.6484,157.662 L1016.4944,156.192 C1017.3204,155.828 1018.2584,155.646 1019.3084,155.646 C1021.6604,155.646 1022.5144,156.654 1022.5144,158.922 L1022.5144,164.228 L1021.1564,164.228 Z M1020.7504,161.75 L1020.7504,160.518 C1020.5404,160.42 1020.0224,160.28 1019.3224,160.28 C1018.1744,160.28 1017.6564,160.742 1017.6564,161.596 C1017.6564,162.576 1018.2444,162.926 1019.0704,162.926 C1019.9524,162.926 1020.7504,162.366 1020.7504,161.75 Z M1031.16264,155.8 L1031.16264,161.344 C1031.16264,163.318 1030.04264,164.382 1027.73264,164.382 C1025.42264,164.382 1024.31664,163.276 1024.31664,161.344 L1024.31664,155.8 L1026.09464,155.8 L1026.09464,161.302 C1026.09464,162.268 1026.62664,162.772 1027.74664,162.772 C1028.83864,162.772 1029.38464,162.282 1029.38464,161.302 L1029.38464,155.8 L1031.16264,155.8 Z M1039.92288,164.228 L1038.14488,164.228 L1038.14488,158.782 C1038.14488,157.718 1037.57088,157.27 1036.53488,157.27 C1035.90488,157.27 1035.20488,157.55 1034.85488,158.04 L1034.85488,164.228 L1033.07688,164.228 L1033.07688,155.842 L1034.35088,155.744 L1034.63088,156.556 C1035.26088,155.968 1036.11488,155.646 1037.02488,155.646 C1038.80288,155.646 1039.92288,156.724 1039.92288,158.768 L1039.92288,164.228 Z M1047.19912,156.052 L1047.08712,157.62 C1046.62512,157.424 1046.06512,157.298 1045.53312,157.298 C1043.83912,157.298 1043.25112,158.054 1043.25112,160 C1043.25112,162.058 1044.04912,162.842 1045.49112,162.842 C1046.09312,162.842 1046.68112,162.702 1047.14312,162.45 L1047.26912,163.878 C1046.77912,164.2 1046.00912,164.41 1045.11312,164.41 C1042.67712,164.41 1041.40312,163.01 1041.40312,160 C1041.40312,157.186 1042.53712,155.674 1045.15512,155.674 C1045.88312,155.674 1046.65312,155.828 1047.19912,156.052 Z M1055.70736,164.228 L1053.91536,164.228 L1053.91536,158.768 C1053.91536,157.788 1053.41136,157.27 1052.31936,157.27 C1051.57736,157.27 1050.93336,157.606 1050.63936,158.054 L1050.63936,164.228 L1048.86136,164.228 L1048.86136,153.266 L1050.63936,153.168 L1050.63936,155.324 L1050.61136,156.444 L1050.65336,156.472 C1051.28336,155.884 1052.08136,155.646 1052.87936,155.646 C1054.67136,155.646 1055.70736,156.78 1055.70736,158.768 L1055.70736,164.228 Z M948.254,171.14 L949.64,171.252 C948.394,173.058 947.736,175.256 947.736,177.622 C947.736,180.03 948.422,182.214 949.626,183.992 L948.254,184.104 C946.84,182.522 946.028,180.184 946.028,177.622 C946.028,175.004 946.812,172.834 948.254,171.14 Z M957.60224,173.52 L952.78624,173.52 L952.78624,176.208 L956.80424,176.208 L956.79024,177.902 L952.78624,177.902 L952.78624,182.228 L950.85424,182.228 L950.85424,171.728 L957.56024,171.728 L957.60224,173.52 Z M965.62048,173.8 L965.62048,179.344 C965.62048,181.318 964.50048,182.382 962.19048,182.382 C959.88048,182.382 958.77448,181.276 958.77448,179.344 L958.77448,173.8 L960.55248,173.8 L960.55248,179.302 C960.55248,180.268 961.08448,180.772 962.20448,180.772 C963.29648,180.772 963.84248,180.282 963.84248,179.302 L963.84248,173.8 L965.62048,173.8 Z M969.53672,182.228 L967.74472,182.228 L967.74472,171.266 L969.53672,171.168 L969.53672,182.228 Z M973.78896,182.228 L971.99696,182.228 L971.99696,171.266 L973.78896,171.168 L973.78896,182.228 Z M985.40144,179.666 C985.40144,181.304 984.47744,182.396 982.29344,182.396 C981.28544,182.396 980.37544,182.186 979.67544,181.766 L979.88544,180.254 C980.54344,180.688 981.52344,180.912 982.29344,180.912 C983.31544,180.912 983.74944,180.45 983.74944,179.834 C983.74944,178.238 979.64744,179.064 979.64744,176.152 C979.64744,174.682 980.66944,173.66 982.72744,173.66 C983.56744,173.66 984.36544,173.828 985.06544,174.136 L984.91144,175.62 C984.21144,175.326 983.34344,175.186 982.69944,175.186 C981.85944,175.186 981.35544,175.522 981.35544,176.082 C981.35544,177.566 985.40144,176.74 985.40144,179.666 Z M992.29968,174.052 L992.18768,175.62 C991.72568,175.424 991.16568,175.298 990.63368,175.298 C988.93968,175.298 988.35168,176.054 988.35168,178 C988.35168,180.058 989.14968,180.842 990.59168,180.842 C991.19368,180.842 991.78168,180.702 992.24368,180.45 L992.36968,181.878 C991.87968,182.2 991.10968,182.41 990.21368,182.41 C987.77768,182.41 986.50368,181.01 986.50368,178 C986.50368,175.186 987.63768,173.674 990.25568,173.674 C990.98368,173.674 991.75368,173.828 992.29968,174.052 Z M998.62392,182.228 L998.46992,181.332 L998.42792,181.318 C997.90992,181.976 997.05592,182.368 996.04792,182.368 C994.47992,182.368 993.44392,181.5 993.44392,179.624 C993.44392,178.042 994.50792,177.02 996.46792,177.02 C997.12592,177.02 997.74192,177.132 998.21792,177.286 L998.21792,176.656 C998.21792,175.606 997.71392,175.186 996.45392,175.186 C995.54392,175.186 994.88592,175.326 994.11592,175.662 L993.96192,174.192 C994.78792,173.828 995.72592,173.646 996.77592,173.646 C999.12792,173.646 999.98192,174.654 999.98192,176.922 L999.98192,182.228 L998.62392,182.228 Z M998.21792,179.75 L998.21792,178.518 C998.00792,178.42 997.48992,178.28 996.78992,178.28 C995.64192,178.28 995.12392,178.742 995.12392,179.596 C995.12392,180.576 995.71192,180.926 996.53792,180.926 C997.41992,180.926 998.21792,180.366 998.21792,179.75 Z M1003.89816,182.228 L1002.10616,182.228 L1002.10616,171.266 L1003.89816,171.168 L1003.89816,182.228 Z M1009.7884,182.382 C1006.9464,182.382 1005.7144,180.884 1005.7144,177.86 C1005.7144,175.186 1006.8904,173.66 1009.3264,173.66 C1011.3984,173.66 1012.7284,174.878 1012.7284,177.566 C1012.7284,177.832 1012.7144,178.168 1012.6864,178.42 L1007.5624,178.42 C1007.6464,180.184 1008.3884,180.8 1009.9984,180.8 C1010.8244,180.8 1011.5524,180.646 1012.2664,180.338 L1012.4764,181.808 C1011.7624,182.158 1010.8384,182.382 1009.7884,182.382 Z M1007.5204,177.216 L1011.0904,177.216 C1011.0624,175.732 1010.3904,175.172 1009.3404,175.172 C1008.1224,175.172 1007.6044,175.788 1007.5204,177.216 Z M1013.34064,171.252 L1014.71264,171.14 C1016.16864,172.834 1016.93864,175.004 1016.93864,177.622 C1016.93864,180.184 1016.14064,182.522 1014.71264,184.104 L1013.34064,183.992 C1014.55864,182.214 1015.23064,180.03 1015.23064,177.622 C1015.23064,175.256 1014.57264,173.058 1013.34064,171.252 Z" id="Main-Net-launch-(Ful" fill="#5B6C72"></path>
                <path d="M375,133 C371.686292,133 369,130.313708 369,127 C369,123.686292 371.686292,121 375,121 C378.313708,121 381,123.686292 381,127 C381,130.313708 378.313708,133 375,133 Z" id="Oval-8-Copy-32-Copy" fill="#4EE1C4" fill-rule="nonzero"></path>
                <path d="M562,132 C558.686292,132 556,129.313708 556,126 C556,122.686292 558.686292,120 562,120 C565.313708,120 568,122.686292 568,126 C568,129.313708 565.313708,132 562,132 Z" id="Oval-8-Copy-32-Copy-2" fill="#A4A4E9" fill-rule="nonzero"></path>
                <path d="M750,132 C746.686292,132 744,129.313708 744,126 C744,122.686292 746.686292,120 750,120 C753.313708,120 756,122.686292 756,126 C756,129.313708 753.313708,132 750,132 Z" id="Oval-8-Copy-32-Copy-3" fill="#3EB8E1" fill-rule="nonzero"></path>
                <path d="M374,1 C374,0.44771525 374.447715,0 375,0 C375.552285,0 376,0.44771525 376,1 L376,121 C376,121.552285 375.552285,122 375,122 C374.447715,122 374,121.552285 374,121 L374,1 Z" id="Stroke-222-Copy-7-Copy-6" fill="url(#linearGradient-5)" fill-rule="nonzero"></path>
                <path d="M561,1 C561,0.44771525 561.447715,0 562,0 C562.552285,0 563,0.44771525 563,1 L563,121 C563,121.552285 562.552285,122 562,122 C561.447715,122 561,121.552285 561,121 L561,1 Z" id="Stroke-222-Copy-7-Copy-7" fill="url(#linearGradient-6)" fill-rule="nonzero"></path>
                <path d="M749,1 C749,0.44771525 749.447715,0 750,0 C750.552285,0 751,0.44771525 751,1 L751,121 C751,121.552285 750.552285,122 750,122 C749.447715,122 749,121.552285 749,121 L749,1 Z" id="Stroke-222-Copy-7-Copy-8" fill="url(#linearGradient-7)" fill-rule="nonzero"></path>
                <path d="M616,127 C615.447715,127 615,126.552285 615,126 C615,125.447715 615.447715,125 616,125 L811.5,125 C812.052285,125 812.5,125.447715 812.5,126 C812.5,126.552285 812.052285,127 811.5,127 L616,127 Z" id="Stroke-49-Copy-13_1_" fill="url(#linearGradient-8)" fill-rule="nonzero"></path>
                <path d="M812,127 C811.447715,127 811,126.552285 811,126 C811,125.447715 811.447715,125 812,125 L1087.5,125 C1088.05228,125 1088.5,125.447715 1088.5,126 C1088.5,126.552285 1088.05228,127 1087.5,127 L812,127 Z" id="Stroke-49-Copy-14_1_" fill="url(#linearGradient-9)" fill-rule="nonzero"></path>
                <path d="M938,132 C934.686292,132 932,129.313708 932,126 C932,122.686292 934.686292,120 938,120 C941.313708,120 944,122.686292 944,126 C944,129.313708 941.313708,132 938,132 Z" id="Oval-8-Copy-32-Copy-4" fill="#40E1D8" fill-rule="nonzero"></path>
                <path d="M937,1 C937,0.44771525 937.447715,0 938,0 C938.552285,0 939,0.44771525 939,1 L939,121 C939,121.552285 938.552285,122 938,122 C937.447715,122 937,121.552285 937,121 L937,1 Z" id="Stroke-222-Copy-7-Copy-9" fill="url(#linearGradient-10)" fill-rule="nonzero"></path>
                <path d="M1093,131 C1095.76142,131 1098,128.761424 1098,126 C1098,123.238576 1095.76142,121 1093,121 C1090.23858,121 1088,123.238576 1088,126 C1088,128.761424 1090.23858,131 1093,131 Z M1093,132 C1089.68629,132 1087,129.313708 1087,126 C1087,122.686292 1089.68629,120 1093,120 C1096.31371,120 1099,122.686292 1099,126 C1099,129.313708 1096.31371,132 1093,132 Z M1093,131 C1090.23858,131 1088,128.761424 1088,126 C1088,123.238576 1090.23858,121 1093,121 C1095.76142,121 1098,123.238576 1098,126 C1098,128.761424 1095.76142,131 1093,131 Z M1093,130 C1095.20914,130 1097,128.209139 1097,126 C1097,123.790861 1095.20914,122 1093,122 C1090.79086,122 1089,123.790861 1089,126 C1089,128.209139 1090.79086,130 1093,130 Z" id="Oval-8-Copy-36_1_" fill="#44E9D7" fill-rule="nonzero"></path>
                <path d="M199,1 C199,0.44771525 199.447715,0 200,0 C200.552285,0 201,0.44771525 201,1 L201,121 C201,121.552285 200.552285,122 200,122 C199.447715,122 199,121.552285 199,121 L199,1 Z" id="Stroke-222-Copy-7" fill="url(#linearGradient-11)" fill-rule="nonzero"></path>
                <path d="M199,1 C199,0.44771525 199.447715,0 200,0 C200.552285,0 201,0.44771525 201,1 L201,121 C201,121.552285 200.552285,122 200,122 C199.447715,122 199,121.552285 199,121 L199,1 Z" id="Stroke-222-Copy-7" fill="url(#linearGradient-12)" fill-rule="nonzero"></path>
            </g>
        </g>
    </g>
</svg>