<svg xmlns="http://www.w3.org/2000/svg" width="27" height="30" viewBox="0 0 27 30">
    <path fill="none" fill-rule="nonzero" stroke="#25CAF0" d="M25.196 19.226c.951.529 1.268 1.744.634 2.695-.528.95-1.743 1.268-2.694.74-.634-.37-.951-1.004-1.004-1.638h-4.86l-2.325 4.015c0 .053-.053.105-.105.158.528.317.898.951.898 1.638 0 1.057-.898 1.955-1.955 1.955a1.95 1.95 0 0 1-1.955-1.955c0-.687.37-1.268.898-1.638 0-.053-.053-.105-.105-.158l-2.325-4.015h-4.86c-.053.686-.423 1.268-1.004 1.637-.951.529-2.166.212-2.694-.74-.529-.95-.212-2.165.74-2.694.633-.37 1.32-.37 1.901-.052.053-.053.053-.159.106-.212l2.377-4.015-2.324-4.015a.4.4 0 0 1-.106-.211c-.581.264-1.32.317-1.902-.053-.95-.528-1.268-1.743-.74-2.694.529-.951 1.744-1.268 2.695-.74.634.37.95 1.004 1.004 1.638h4.913l2.324-4.015c0-.053.053-.106.106-.159-.528-.317-.898-.95-.898-1.638 0-1.056.898-1.954 1.955-1.954a1.95 1.95 0 0 1 1.954 1.954c0 .687-.37 1.268-.898 1.638 0 .053.053.106.106.159l2.324 4.015h4.86c.054-.687.423-1.268 1.005-1.638.95-.528 2.166-.211 2.694.74.528.95.211 2.166-.74 2.694-.634.37-1.32.37-1.902.053-.052.053-.052.158-.105.211l-2.325 4.015 2.325 4.015a.4.4 0 0 1 .105.212c.581-.265 1.321-.317 1.902.052zm-8.58-5.668a2.451 2.451 0 0 0-2.453-2.452h-3.097a.578.578 0 0 0-.58.58v6.97c0 .322.257.58.58.58h3.097a2.451 2.451 0 0 0 2.453-2.452c0-.58-.194-1.161-.581-1.548.322-.517.58-1.033.58-1.678z"/>
</svg>
