<svg xmlns="http://www.w3.org/2000/svg" width="35" height="30" viewBox="0 0 35 30">
    <path fill="none" fill-rule="nonzero" stroke="#25CAF0" d="M23.202 17.35c-1.288 0-2.332 1.446-2.332 3.23s1.044 3.23 2.332 3.23c1.287 0 2.33-1.446 2.33-3.23.001-1.784-1.043-3.23-2.33-3.23zm8.117-8.405c.266-.656.28-4.38-1.137-7.945 0 0-3.248.356-8.164 3.732-1.03-.285-2.774-.427-4.518-.427-1.744 0-3.488.142-4.519.427C8.066 1.356 4.818 1 4.818 1 3.402 4.565 3.415 8.29 3.681 8.945 2.017 10.753 1 12.925 1 15.89 1 28.79 11.692 28.997 14.392 28.997L17.5 29l3.108-.003c2.7 0 13.392-.207 13.392-13.106 0-2.967-1.017-5.138-2.68-6.946zM17.551 27.41h-.101c-6.765 0-12.033-.808-12.033-7.388 0-1.575.556-3.038 1.876-4.252 2.203-2.023 5.928-.952 10.157-.952l.05-.001.05.001c4.23 0 7.956-1.071 10.158.952 1.32 1.214 1.875 2.677 1.875 4.252 0 6.58-5.268 7.388-12.032 7.388zm-5.753-10.06c-1.287 0-2.33 1.445-2.33 3.229s1.043 3.23 2.33 3.23c1.289 0 2.332-1.446 2.332-3.23s-1.044-3.23-2.332-3.23z"/>
</svg>
