<?xml version="1.0" encoding="UTF-8"?>
<svg width="15px" height="15px" viewBox="0 0 15 15" version="1.1" xmlns="http://www.w3.org/2000/svg" xmlns:xlink="http://www.w3.org/1999/xlink">
    <!-- Generator: Sketch 47 (45396) - http://www.bohemiancoding.com/sketch -->
    <title>invalid</title>
    <desc>Created with Sketch.</desc>
    <defs></defs>
    <g id="Page-1" stroke="none" stroke-width="1" fill="none" fill-rule="evenodd">
        <g id="COTI---homepage---elements" transform="translate(-91.000000, -130.000000)" fill="#FFB945">
            <g id="invalid" transform="translate(91.000000, 130.000000)">
                <path d="M7.5,15 C3.35786438,15 0,11.6421356 0,7.5 C0,3.35786438 3.35786438,0 7.5,0 C11.6421356,0 15,3.35786438 15,7.5 C15,11.6421356 11.6421356,15 7.5,15 Z M7.5,14 C11.0898509,14 14,11.0898509 14,7.5 C14,3.91014913 11.0898509,1 7.5,1 C3.91014913,1 1,3.91014913 1,7.5 C1,11.0898509 3.91014913,14 7.5,14 Z" id="Oval-13" fill-rule="nonzero"></path>
                <g id="Group-3" transform="translate(4.000000, 4.000000)">
                    <rect id="Rectangle" transform="translate(3.500000, 4.000000) rotate(-315.000000) translate(-3.500000, -4.000000) " x="3" y="0" width="1" height="8" rx="0.5"></rect>
                    <rect id="Rectangle" transform="translate(3.500000, 4.000000) rotate(-225.000000) translate(-3.500000, -4.000000) " x="3" y="0" width="1" height="8" rx="0.5"></rect>
                </g>
            </g>
        </g>
    </g>
</svg>