<?xml version="1.0" encoding="UTF-8"?>
<svg width="747px" height="988px" viewBox="0 0 747 988" version="1.1" xmlns="http://www.w3.org/2000/svg" xmlns:xlink="http://www.w3.org/1999/xlink">
    <!-- Generator: Sketch 47.1 (45422) - http://www.bohemiancoding.com/sketch -->
    <title>Group</title>
    <desc>Created with Sketch.</desc>
    <defs>
        <rect id="path-1" x="0" y="0" width="1000" height="1000"></rect>
        <linearGradient x1="60.2362575%" y1="11.0405975%" x2="70.8372553%" y2="61.8940158%" id="linearGradient-3">
            <stop stop-color="#57D8F1" stop-opacity="0" offset="0%"></stop>
            <stop stop-color="#ABA4FB" stop-opacity="0.15" offset="69.2149229%"></stop>
            <stop stop-color="#1797BE" offset="100%"></stop>
        </linearGradient>
        <linearGradient x1="100%" y1="50%" x2="4.53825233%" y2="29.6953318%" id="linearGradient-4">
            <stop stop-color="#57D8F1" stop-opacity="0" offset="0%"></stop>
            <stop stop-color="#ABA4FB" stop-opacity="0.15" offset="69.2149229%"></stop>
            <stop stop-color="#1C5B8F" offset="100%"></stop>
        </linearGradient>
        <linearGradient x1="37.5235316%" y1="88.8253757%" x2="4.53825233%" y2="29.6953318%" id="linearGradient-5">
            <stop stop-color="#57D8F1" stop-opacity="0" offset="0%"></stop>
            <stop stop-color="#ABA4FB" stop-opacity="0.15" offset="69.2149229%"></stop>
            <stop stop-color="#304772" offset="100%"></stop>
        </linearGradient>
        <linearGradient x1="25.8836126%" y1="94.2975623%" x2="4.53825233%" y2="29.6953318%" id="linearGradient-6">
            <stop stop-color="#57D8F1" stop-opacity="0" offset="0%"></stop>
            <stop stop-color="#ABA4FB" stop-opacity="0.15" offset="69.2149229%"></stop>
            <stop stop-color="#304772" offset="100%"></stop>
        </linearGradient>
        <linearGradient x1="4.54009064%" y1="86.9356037%" x2="85.3350904%" y2="-22.5208714%" id="linearGradient-7">
            <stop stop-color="#57D8F1" stop-opacity="0" offset="0%"></stop>
            <stop stop-color="#ABA4FB" stop-opacity="0.15" offset="69.2149229%"></stop>
            <stop stop-color="#2B75A5" offset="100%"></stop>
        </linearGradient>
        <linearGradient x1="76.8699799%" y1="58.5891679%" x2="24.4164157%" y2="129.978464%" id="linearGradient-8">
            <stop stop-color="#57D8F1" stop-opacity="0" offset="0%"></stop>
            <stop stop-color="#ABA4FB" stop-opacity="0.15" offset="69.2149229%"></stop>
            <stop stop-color="#1797BE" offset="100%"></stop>
        </linearGradient>
        <linearGradient x1="65.4932229%" y1="17.5953079%" x2="-32.6571913%" y2="58.3634989%" id="linearGradient-9">
            <stop stop-color="#57D8F1" stop-opacity="0" offset="0%"></stop>
            <stop stop-color="#ABA4FB" stop-opacity="0.15" offset="69.2149229%"></stop>
            <stop stop-color="#1797BE" offset="100%"></stop>
        </linearGradient>
        <linearGradient x1="53.1120576%" y1="79.0803702%" x2="23.4575019%" y2="4.0872434%" id="linearGradient-10">
            <stop stop-color="#57D8F1" stop-opacity="0" offset="0%"></stop>
            <stop stop-color="#ABA4FB" stop-opacity="0.15" offset="69.2149229%"></stop>
            <stop stop-color="#25A8CE" offset="100%"></stop>
        </linearGradient>
        <linearGradient x1="76.471511%" y1="41.6743035%" x2="50%" y2="51.6094666%" id="linearGradient-11">
            <stop stop-color="#57D8F1" stop-opacity="0.75" offset="0%"></stop>
            <stop stop-color="#ABA4FB" stop-opacity="0.15" offset="69.2149229%"></stop>
            <stop stop-color="#5495C2" offset="100%"></stop>
        </linearGradient>
        <linearGradient x1="22.6939006%" y1="57.8113545%" x2="-44.8218656%" y2="29.3220766%" id="linearGradient-12">
            <stop stop-color="#57D8F1" stop-opacity="0" offset="0%"></stop>
            <stop stop-color="#ABA4FB" stop-opacity="0.15" offset="69.2149229%"></stop>
            <stop stop-color="#1C82AB" offset="100%"></stop>
        </linearGradient>
        <linearGradient x1="72.9762801%" y1="25.7354289%" x2="100%" y2="99.6040344%" id="linearGradient-13">
            <stop stop-color="#57D8F1" stop-opacity="0" offset="0%"></stop>
            <stop stop-color="#ABA4FB" stop-opacity="0.15" offset="69.2149229%"></stop>
            <stop stop-color="#1797BE" offset="100%"></stop>
        </linearGradient>
        <linearGradient x1="39.8308076%" y1="31.3152951%" x2="96.9432417%" y2="28.9177053%" id="linearGradient-14">
            <stop stop-color="#57D8F1" stop-opacity="0" offset="0%"></stop>
            <stop stop-color="#ABA4FB" stop-opacity="0.15" offset="69.2149229%"></stop>
            <stop stop-color="#1797BE" offset="100%"></stop>
        </linearGradient>
        <linearGradient x1="15.0202372%" y1="16.8885172%" x2="108.020755%" y2="-6.99917522%" id="linearGradient-15">
            <stop stop-color="#57D8F1" stop-opacity="0" offset="0%"></stop>
            <stop stop-color="#ABA4FB" stop-opacity="0.15" offset="69.2149229%"></stop>
            <stop stop-color="#1797BE" offset="100%"></stop>
        </linearGradient>
        <linearGradient x1="31.8688818%" y1="34.663673%" x2="97.4727033%" y2="24.9541789%" id="linearGradient-16">
            <stop stop-color="#57D8F1" stop-opacity="0" offset="0%"></stop>
            <stop stop-color="#ABA4FB" stop-opacity="0.15" offset="69.2149229%"></stop>
            <stop stop-color="#1797BE" offset="100%"></stop>
        </linearGradient>
        <linearGradient x1="0%" y1="-10.9798845%" x2="11.4695854%" y2="115.054527%" id="linearGradient-17">
            <stop stop-color="#57D8F1" stop-opacity="0" offset="0%"></stop>
            <stop stop-color="#ABA4FB" stop-opacity="0.15" offset="69.2149229%"></stop>
            <stop stop-color="#1797BE" offset="100%"></stop>
        </linearGradient>
        <linearGradient x1="36.9317112%" y1="55.3816899%" x2="46.5973268%" y2="115.528776%" id="linearGradient-18">
            <stop stop-color="#57D8F1" stop-opacity="0" offset="0%"></stop>
            <stop stop-color="#ABA4FB" stop-opacity="0.15" offset="69.2149229%"></stop>
            <stop stop-color="#1797BE" offset="100%"></stop>
        </linearGradient>
        <linearGradient x1="73.9822572%" y1="89.0418805%" x2="92.3851657%" y2="23.932368%" id="linearGradient-19">
            <stop stop-color="#57D8F1" stop-opacity="0" offset="0%"></stop>
            <stop stop-color="#C991FF" stop-opacity="0.5" offset="100%"></stop>
        </linearGradient>
        <linearGradient x1="35.0995272%" y1="40.5312883%" x2="35.0995282%" y2="88.9268293%" id="linearGradient-20">
            <stop stop-color="#57D8F1" stop-opacity="0" offset="0%"></stop>
            <stop stop-color="#C991FF" offset="100%"></stop>
        </linearGradient>
        <linearGradient x1="-448.632812%" y1="-6.42482517%" x2="-2783.39844%" y2="100%" id="linearGradient-21">
            <stop stop-color="#57D8F1" stop-opacity="0.2" offset="0%"></stop>
            <stop stop-color="#C991FF" stop-opacity="0.5" offset="100%"></stop>
        </linearGradient>
        <linearGradient x1="-1809.375%" y1="13.434222%" x2="-1809.375%" y2="100%" id="linearGradient-22">
            <stop stop-color="#4CF0D2" offset="0%"></stop>
            <stop stop-color="#C991FF" stop-opacity="0.2" offset="100%"></stop>
        </linearGradient>
        <linearGradient x1="73.2032071%" y1="131.500146%" x2="50%" y2="0%" id="linearGradient-23">
            <stop stop-color="#57D8F1" stop-opacity="0" offset="0%"></stop>
            <stop stop-color="#ABA4FB" stop-opacity="0.15" offset="42.829769%"></stop>
            <stop stop-color="#4DFFDA" offset="100%"></stop>
        </linearGradient>
        <linearGradient x1="19.830886%" y1="6.26260081%" x2="-21.8530371%" y2="72.0537023%" id="linearGradient-24">
            <stop stop-color="#57D8F1" stop-opacity="0" offset="0%"></stop>
            <stop stop-color="#ABA4FB" stop-opacity="0.15" offset="69.2149229%"></stop>
            <stop stop-color="#2698C4" stop-opacity="0.911365589" offset="89.4592965%"></stop>
            <stop stop-color="#1797BE" offset="100%"></stop>
        </linearGradient>
        <linearGradient x1="40.2331984%" y1="94.5129216%" x2="-8.38902485%" y2="43.4945473%" id="linearGradient-25">
            <stop stop-color="#57D8F1" stop-opacity="0" offset="0%"></stop>
            <stop stop-color="#ABA4FB" stop-opacity="0.15" offset="69.2149229%"></stop>
            <stop stop-color="#19A9CC" offset="100%"></stop>
        </linearGradient>
        <linearGradient x1="72.1271876%" y1="94.2255014%" x2="58.6596956%" y2="80.5128402%" id="linearGradient-26">
            <stop stop-color="#57D8F1" offset="0%"></stop>
            <stop stop-color="#ABA4FB" stop-opacity="0.15" offset="69.2149229%"></stop>
            <stop stop-color="#304772" stop-opacity="0" offset="100%"></stop>
        </linearGradient>
        <linearGradient x1="35.7045369%" y1="46.2987995%" x2="4.53825233%" y2="29.6953318%" id="linearGradient-27">
            <stop stop-color="#57D8F1" stop-opacity="0" offset="0%"></stop>
            <stop stop-color="#ABA4FB" stop-opacity="0.15" offset="69.2149229%"></stop>
            <stop stop-color="#2297BD" offset="100%"></stop>
        </linearGradient>
        <linearGradient x1="67.3772259%" y1="3.67820782%" x2="4.53825233%" y2="29.6953318%" id="linearGradient-28">
            <stop stop-color="#57D8F1" stop-opacity="0.25" offset="0%"></stop>
            <stop stop-color="#ABA4FB" stop-opacity="0.15" offset="69.2149229%"></stop>
            <stop stop-color="#304772" stop-opacity="0" offset="100%"></stop>
        </linearGradient>
        <linearGradient x1="37.1446724%" y1="44.3009989%" x2="47.4244635%" y2="0%" id="linearGradient-29">
            <stop stop-color="#57D8F1" stop-opacity="0" offset="0%"></stop>
            <stop stop-color="#ABA4FB" stop-opacity="0.15" offset="69.2149229%"></stop>
            <stop stop-color="#19A9CC" offset="100%"></stop>
        </linearGradient>
        <linearGradient x1="19.292404%" y1="57.7781342%" x2="-24.4011201%" y2="44.525522%" id="linearGradient-30">
            <stop stop-color="#57D8F1" stop-opacity="0" offset="0%"></stop>
            <stop stop-color="#ABA4FB" stop-opacity="0.15" offset="69.2149229%"></stop>
            <stop stop-color="#1797BE" offset="100%"></stop>
        </linearGradient>
    </defs>
    <g id="Page-1" stroke="none" stroke-width="1" fill="none" fill-rule="evenodd" opacity="0.230298913">
        <g id="Artboard">
            <g id="Group" transform="translate(-127.000000, 0.000000)">
                <mask id="mask-2" fill="white">
                    <use xlink:href="#path-1"></use>
                </mask>
                <g id="Mask"></g>
                <g mask="url(#mask-2)">
                    <g transform="translate(-351.000000, -163.000000)">
                        <path d="M1112,668 L1029,497.501562 M1112,327 L1278,327 L1361,497.501562 L1278,668" id="Stroke-47" stroke="url(#linearGradient-3)" stroke-width="1" fill="none" opacity="0.858016304" stroke-linecap="round" transform="translate(1195.000000, 497.500000) rotate(-270.000000) translate(-1195.000000, -497.500000) "></path>
                        <polygon id="Stroke-48" stroke="url(#linearGradient-4)" stroke-width="1" fill="none" opacity="0.764492754" stroke-linecap="round" transform="translate(853.000000, 497.500000) rotate(-270.000000) translate(-853.000000, -497.500000) " points="770 668 687 497.501562 770 327 936 327 1019 497.501562 936 668"></polygon>
                        <polyline id="Stroke-49" stroke="url(#linearGradient-5)" stroke-width="1" fill="none" opacity="0.51805933" stroke-linecap="round" transform="translate(512.500000, 456.500000) rotate(-270.000000) translate(-512.500000, -456.500000) " points="637 627 471 627 388 456.501562 471 286"></polyline>
                        <polyline id="Stroke-49-Copy-2" stroke="url(#linearGradient-6)" stroke-width="1" fill="none" opacity="0.51805933" stroke-linecap="round" transform="translate(512.500000, 331.000000) rotate(-270.000000) translate(-512.500000, -331.000000) " points="429.5 501.5 346.5 331.001562 429.5 160.5 595.5 160.5 678.5 331.001562"></polyline>
                        <path d="M385.249219,707.750781 L468.249219,537.249219" id="Stroke-49-Copy" stroke="url(#linearGradient-7)" stroke-width="1" fill="none" opacity="0.892549819" stroke-linecap="round" transform="translate(426.749219, 622.500000) rotate(-270.000000) translate(-426.749219, -622.500000) "></path>
                        <polyline id="Stroke-71-Copy" stroke="url(#linearGradient-8)" stroke-width="1" fill="none" stroke-linecap="round" transform="translate(1366.500000, 788.500000) rotate(-270.000000) translate(-1366.500000, -788.500000) " points="1408 618 1491 788.501562 1408 959 1242 959"></polyline>
                        <polyline id="Stroke-72" stroke="url(#linearGradient-9)" stroke-width="1" fill="none" stroke-linecap="round" transform="translate(1195.000000, 872.000000) rotate(-270.000000) translate(-1195.000000, -872.000000) " points="1236.5 1042.5 1153.5 872.001562 1236.5 701.5"></polyline>
                        <polygon id="Stroke-74" stroke="url(#linearGradient-10)" stroke-width="1" fill="none" opacity="0.614187047" stroke-linecap="round" transform="translate(513.000000, 995.500000) rotate(-270.000000) translate(-513.000000, -995.500000) " points="430 1166 347 995.501562 430 825 596 825 679 995.501562 596 1166"></polygon>
                        <polyline id="Stroke-74-Copy" stroke="url(#linearGradient-11)" stroke-width="1" fill="none" stroke-linecap="round" transform="translate(853.500000, 872.500000) rotate(-270.000000) translate(-853.500000, -872.500000) " points="895 702 978 872.501562 895 1043 729 1043"></polyline>
                        <polyline id="Stroke-107" stroke="url(#linearGradient-12)" stroke-width="1" fill="none" stroke-linecap="round" transform="translate(682.000000, 1245.500000) rotate(-270.000000) translate(-682.000000, -1245.500000) " points="848 1245.50156 765 1416 599 1416 599 1416 516 1245.50156 599 1075 765 1075"></polyline>
                        <polyline id="Stroke-183" stroke="url(#linearGradient-13)" stroke-width="1" fill="none" opacity="0.184669384" stroke-linecap="round" transform="translate(1194.500000, 208.500000) rotate(-270.000000) translate(-1194.500000, -208.500000) " points="1070 38 1236 38 1319 208.501562 1236 379 1070 379 1070 379"></polyline>
                        <polyline id="Stroke-184" stroke="url(#linearGradient-14)" stroke-width="1" fill="none" stroke-linecap="round" transform="translate(853.000000, 166.500000) rotate(-270.000000) translate(-853.000000, -166.500000) " points="687 166.501562 770 -4 936 -4 1019 166.501562 936 337"></polyline>
                        <polyline id="Stroke-184-Copy" stroke="url(#linearGradient-15)" stroke-width="1" fill="none" stroke-linecap="round" transform="translate(682.000000, 248.500000) rotate(-270.000000) translate(-682.000000, -248.500000) " points="516 248.501562 599 78 765 78 848 248.501562 765 419"></polyline>
                        <polyline id="Stroke-185" stroke="url(#linearGradient-16)" stroke-width="1" fill="none" stroke-linecap="round" transform="translate(512.000000, 166.500000) rotate(-270.000000) translate(-512.000000, -166.500000) " points="429 -4 595 -4 678 166.501562 595 337 429 337 346 166.501562"></polyline>
                        <polyline id="Stroke-220" stroke="url(#linearGradient-17)" stroke-width="1" fill="none" opacity="0.765341938" stroke-linecap="round" transform="translate(1194.500000, 539.500000) rotate(-270.000000) translate(-1194.500000, -539.500000) " points="1236 710 1153 539.501562 1236 369"></polyline>
                        <polyline id="Stroke-10" stroke="url(#linearGradient-18)" stroke-width="1" fill="none" opacity="0.237375453" stroke-linecap="round" transform="translate(1366.000000, 415.500000) rotate(-270.000000) translate(-1366.000000, -415.500000) " points="1449 245 1532 415.501562 1449 586 1283 586 1283 586 1200 415.501562"></polyline>
                        <polygon id="Stroke-222" stroke="url(#linearGradient-19)" stroke-width="1" fill="none" opacity="0.740942029" stroke-linecap="round" stroke-linejoin="round" transform="translate(512.000000, 663.500000) rotate(-270.000000) translate(-512.000000, -663.500000) " points="429 834 346 663.501562 429 493 595 493 678 663.501562 595 834"></polygon>
                        <path d="M854.417132,668.098941 L1025,746.391081 L854.439691,829.889341 L854.439691,829.889341 C854.162292,830.025142 853.837708,830.025142 853.560309,829.889341 L683,746.391081 L853.582868,668.098941 L853.582868,668.098941 C853.847676,667.977402 854.152324,667.977402 854.417132,668.098941 Z" id="Polygon-Copy-3" stroke="url(#linearGradient-20)" stroke-width="1" fill="none" opacity="0.16627038" stroke-linecap="round" stroke-linejoin="round"></path>
                        <polyline id="Line-2" stroke="url(#linearGradient-21)" stroke-width="1" fill="none" opacity="0.16627038" stroke-linecap="square" points="1024 582 1024 664.5 1024 747"></polyline>
                        <path d="M682.5,582 L682.5,746.541667" id="Line-2-Copy" stroke="url(#linearGradient-22)" stroke-width="1" fill="none" opacity="0.156419837" stroke-linecap="square"></path>
                        <path d="M683,581 L854,497 L1025,581" id="Polygon-Copy-5" stroke="url(#linearGradient-23)" stroke-width="1" fill="none" opacity="0.16627038" stroke-linecap="round"></path>
                        <polyline id="Stroke-245" stroke="url(#linearGradient-24)" stroke-width="1" fill="none" stroke-linecap="round" transform="translate(1194.500000, 1121.500000) rotate(-270.000000) translate(-1194.500000, -1121.500000) " points="1153 1292 1070 1121.50156 1153 951 1319 951"></polyline>
                        <path d="M936,1333 L770,1333 L687,1162.50156 L770,992 M936,992 L1019,1162.50156" id="Stroke-246" stroke="url(#linearGradient-25)" stroke-width="1" fill="none" stroke-linecap="round" transform="translate(853.000000, 1162.500000) rotate(-270.000000) translate(-853.000000, -1162.500000) "></path>
                        <polyline id="Stroke-254" stroke="url(#linearGradient-26)" stroke-width="1" fill="none" opacity="0.281193388" stroke-linecap="round" transform="translate(1024.000000, 913.500000) rotate(-270.000000) translate(-1024.000000, -913.500000) " points="858 913.501562 941 743 1107 743 1190 913.501562 1107 1084 941 1084"></polyline>
                        <polygon id="Stroke-247" stroke="url(#linearGradient-27)" stroke-width="1" fill="none" stroke-linecap="round" transform="translate(512.000000, 1162.500000) rotate(-270.000000) translate(-512.000000, -1162.500000) " points="429 1333 346 1162.50156 429 992 595 992 678 1162.50156 595 1333"></polygon>
                        <polyline id="Stroke-254-Copy" stroke="url(#linearGradient-28)" stroke-width="1" fill="none" stroke-linecap="round" transform="translate(1024.000000, 747.500000) rotate(-270.000000) translate(-1024.000000, -747.500000) " points="1190 747.501562 1107 918 941 918 941 918 858 747.501562 941 577"></polyline>
                        <polygon id="Stroke-256" stroke="url(#linearGradient-29)" stroke-width="1" fill="none" opacity="0.46948596" stroke-linecap="round" transform="translate(342.000000, 912.500000) rotate(-270.000000) translate(-342.000000, -912.500000) " points="259 1083 176 912.501562 259 742 425 742 508 912.501562 425 1083"></polygon>
                        <circle id="Oval-8-Copy-5" stroke="none" fill="#2CBEDF" fill-rule="evenodd" cx="853.5" cy="997.5" r="5.5"></circle>
                        <circle id="Oval-8-Copy-14" stroke="none" fill="#2CBEDF" fill-rule="evenodd" cx="1196.5" cy="830.5" r="5.5"></circle>
                        <circle id="Oval-8-Copy-12" stroke="none" fill="#5495C2" fill-rule="evenodd" cx="682.5" cy="414.5" r="5.5"></circle>
                        <circle id="Oval-8-Copy-7" stroke="none" fill="#4F578F" fill-rule="evenodd" cx="683" cy="250" r="3"></circle>
                        <circle id="Oval-8-Copy-8" stroke="none" fill="#4F578F" fill-rule="evenodd" cx="514" cy="332" r="3"></circle>
                        <circle id="Oval-8-Copy-13" stroke="none" fill="#1E5D8F" fill-rule="evenodd" cx="1194.5" cy="498.5" r="3.5"></circle>
                        <circle id="Oval-8-Copy-19" stroke="none" fill="#0A4474" fill-rule="evenodd" cx="1023.5" cy="250.5" r="3.5"></circle>
                        <circle id="Oval-8-Copy-20" stroke="none" fill="#1D7BA2" fill-rule="evenodd" cx="1023.5" cy="580.5" r="3.5"></circle>
                        <circle id="Oval-8-Copy-25" stroke="none" fill="#2B74A5" fill-rule="evenodd" cx="513.5" cy="663.5" r="3.5"></circle>
                        <circle id="Oval-8-Copy-23" stroke="none" fill="#1D7BA2" fill-rule="evenodd" cx="1194.5" cy="332.5" r="3.5"></circle>
                        <circle id="Oval-8-Copy-18" stroke="none" fill="#19A9CC" fill-rule="evenodd" cx="1023.5" cy="912.5" r="3.5"></circle>
                        <circle id="Oval-8-Copy-21" stroke="none" fill="#27B2DF" fill-rule="evenodd" cx="682.5" cy="1079.5" r="3.5"></circle>
                        <circle id="Oval-8-Copy-16" stroke="none" fill="#1B84B0" fill-rule="evenodd" cx="512.5" cy="662.5" r="5.5"></circle>
                        <circle id="Oval-8-Copy-24" stroke="none" fill="#2CBEDF" fill-rule="evenodd" cx="511.5" cy="829.5" r="5.5"></circle>
                    </g>
                </g>
                <polyline id="Stroke-106" stroke="url(#linearGradient-30)" stroke-linecap="round" mask="url(#mask-2)" transform="translate(676.000000, 1117.500000) rotate(-270.000000) translate(-676.000000, -1117.500000) " points="759 1288 593 1288 593 1288 510 1117.50156 593 947 759 947 842 1117.50156"></polyline>
            </g>
        </g>
    </g>
</svg>