<svg xmlns="http://www.w3.org/2000/svg" width="36" height="29" viewBox="0 0 36 29">
    <path fill="none" fill-rule="nonzero" stroke="#25CAF0" stroke-linecap="round" stroke-linejoin="round" d="M5.032 6.508a1.317 1.317 0 0 0-.429-1.111L1.43 1.57V1h9.857l7.619 16.714L25.603 1H35v.571l-2.714 2.604a.794.794 0 0 0-.302.762v19.126a.794.794 0 0 0 .302.762l2.65 2.604V28H21.604v-.571l2.746-2.667c.27-.27.27-.35.27-.762V8.54l-7.635 19.397h-1.032L7.063 8.54v13a1.794 1.794 0 0 0 .493 1.492l3.571 4.333v.572H1v-.572l3.571-4.333a1.73 1.73 0 0 0 .46-1.492V6.508z"/>
</svg>
