<svg xmlns="http://www.w3.org/2000/svg" width="228" height="291" viewBox="0 0 228 291">
    <defs>
        <linearGradient id="a" x1="-258.984%" x2="-258.984%" y1="2.306%" y2="95.13%">
            <stop offset="0%" stop-color="#48F0D5"/>
            <stop offset="100%" stop-color="#2CBEDF"/>
        </linearGradient>
        <linearGradient id="b" x1="50%" x2="50%" y1="3.987%" y2="100%">
            <stop offset="0%" stop-color="#2CBEDF"/>
            <stop offset="100%" stop-color="#CF9EFD"/>
        </linearGradient>
        <linearGradient id="c" x1="-901.563%" x2="-901.563%" y1="89.014%" y2="7.647%">
            <stop offset="0%" stop-color="#4DFFD9"/>
            <stop offset="100%" stop-color="#CF9EFD"/>
        </linearGradient>
        <linearGradient id="d" x1="0%" x2="0%" y1="6.123%" y2="92.561%">
            <stop offset="0%" stop-color="#50E3C2"/>
            <stop offset="4.446%" stop-color="#4EE1C3"/>
            <stop offset="100%" stop-color="#2CBEDF"/>
        </linearGradient>
    </defs>
    <g fill="none" fill-rule="evenodd">
        <path fill="#E2F8FF" d="M5.87 1.584c-1.717 0-2.576.656-2.576 1.968 0 .768.195 1.285.584 1.552.39.267 1.152.512 2.288.736 1.136.224 1.947.533 2.432.928.486.395.728 1.056.728 1.984 0 1.195-.296 2.056-.888 2.584-.592.528-1.458.792-2.6.792-.832 0-1.797-.075-2.896-.224l-.576-.08.112-.848c1.462.181 2.592.272 3.392.272.8 0 1.408-.195 1.824-.584.416-.39.624-.96.624-1.712s-.184-1.264-.552-1.536c-.368-.272-.954-.483-1.76-.632-.805-.15-1.394-.285-1.768-.408a3.95 3.95 0 0 1-1.048-.528 1.9 1.9 0 0 1-.696-.88c-.138-.357-.208-.808-.208-1.352 0-1.941 1.174-2.912 3.52-2.912.704 0 1.622.075 2.752.224l.528.08-.08.848c-1.472-.181-2.517-.272-3.136-.272zm9.355 3.264h-2.672V8.8c0 1.035.074 1.712.224 2.032.149.32.501.48 1.056.48l1.472-.112.064.816c-.704.107-1.243.16-1.616.16-.811 0-1.374-.2-1.688-.6-.315-.4-.472-1.165-.472-2.296V4.848h-1.184V4h1.184V1.488h.96V4h2.672v.848zm7.018 1.536v4.288c.043.395.39.63 1.04.704l-.048.768c-.821 0-1.424-.213-1.808-.64-1.003.437-2.005.656-3.008.656-.715 0-1.259-.205-1.632-.616-.373-.41-.56-.997-.56-1.76s.19-1.328.568-1.696c.379-.368.973-.595 1.784-.68l2.72-.272v-.752c0-.597-.13-1.027-.392-1.288-.261-.261-.61-.392-1.048-.392-.683 0-1.568.064-2.656.192l-.496.048-.048-.768c1.173-.224 2.2-.336 3.08-.336.88 0 1.517.208 1.912.624.395.416.592 1.056.592 1.92zm-5.024 3.344c0 1.077.443 1.616 1.328 1.616.384 0 .805-.045 1.264-.136.459-.09.821-.184 1.088-.28l.4-.144V7.888l-2.608.272c-.523.043-.899.192-1.128.448-.23.256-.344.63-.344 1.12zM24.733 12V4h.944v1.152a8.772 8.772 0 0 1 1.448-.8 6.814 6.814 0 0 1 1.576-.512v.96a8.955 8.955 0 0 0-1.44.44c-.501.197-.89.37-1.168.52l-.416.24v6h-.944zm9.482-7.152h-2.672V8.8c0 1.035.075 1.712.224 2.032.15.32.502.48 1.056.48l1.472-.112.064.816c-.704.107-1.242.16-1.616.16-.81 0-1.373-.2-1.688-.6-.314-.4-.472-1.165-.472-2.296V4.848H29.4V4h1.184V1.488h.96V4h2.672v.848zM.577 290v-11.12h6.56v.896H1.57v4.592h4.736v.88H1.57V290H.577zm8.219 0v-8h.944v8h-.944zm0-10v-1.2h.944v1.2h-.944zm4.298 10h-.944v-8h.944v.592c.896-.501 1.765-.752 2.608-.752 1.066 0 1.778.283 2.136.848.357.565.536 1.6.536 3.104V290h-.96v-4.16c0-1.227-.118-2.056-.352-2.488-.235-.432-.736-.648-1.504-.648a4.47 4.47 0 0 0-1.176.168c-.41.112-.728.227-.952.344l-.336.16V290zm7.594 0v-8h.944v8h-.944zm0-10v-1.2h.944v1.2h-.944zm5.77 2.72c-1.258 0-1.888.453-1.888 1.36 0 .416.139.71.416.88.278.17.904.339 1.88.504.976.165 1.664.392 2.064.68.4.288.6.84.6 1.656s-.261 1.413-.784 1.792c-.522.379-1.29.568-2.304.568-.586 0-1.344-.075-2.272-.224l-.464-.064.064-.848c1.195.181 2.112.272 2.752.272.64 0 1.139-.112 1.496-.336.358-.224.536-.603.536-1.136 0-.533-.146-.888-.44-1.064-.293-.176-.922-.339-1.888-.488-.965-.15-1.645-.363-2.04-.64-.394-.277-.592-.8-.592-1.568s.272-1.328.816-1.68c.544-.352 1.216-.528 2.016-.528.64 0 1.44.07 2.4.208l.432.064-.032.848c-1.141-.17-2.064-.256-2.768-.256zM32.42 290h-.944v-11.552h.944v4.016c.896-.416 1.76-.624 2.592-.624 1.067 0 1.78.283 2.136.848.358.565.536 1.6.536 3.104V290h-.96v-4.16c0-1.227-.114-2.056-.344-2.488-.229-.432-.728-.648-1.496-.648-.373 0-.765.045-1.176.136-.41.09-.728.184-.952.28l-.336.128V290zM29.28 49l2.366-9.59h3.094L37.12 49h-1.568l-.518-2.058h-3.682L30.834 49H29.28zm3.57-8.288l-1.19 4.858h3.066l-1.176-4.858h-.7zM41.819 49h-3.318v-9.59h3.318c1.475 0 2.483.373 3.024 1.12.541.747.812 1.918.812 3.514 0 .812-.054 1.5-.161 2.065a4.71 4.71 0 0 1-.567 1.533c-.532.905-1.568 1.358-3.108 1.358zm2.226-4.956c0-1.157-.145-1.993-.434-2.506-.29-.513-.887-.77-1.792-.77h-1.764v6.86h1.764c.924 0 1.54-.34 1.848-1.022.15-.345.25-.714.301-1.106.051-.392.077-.877.077-1.456zm8.59-4.634h1.625L51.908 49h-3.052l-2.352-9.59h1.624l1.904 8.218h.7l1.904-8.218zm3.02 9.59v-9.59h1.554V49h-1.554zm6.589-8.386c-1.185 0-1.778.415-1.778 1.246 0 .43.14.735.42.917.28.182.898.406 1.855.672s1.63.583 2.023.952c.392.369.588.95.588 1.743 0 1.008-.287 1.762-.861 2.261-.574.5-1.356.749-2.345.749-.793 0-1.67-.093-2.632-.28l-.504-.098.154-1.246c1.26.168 2.221.252 2.884.252 1.157 0 1.736-.513 1.736-1.54 0-.401-.13-.698-.392-.889-.261-.191-.85-.401-1.764-.63-.915-.229-1.596-.544-2.044-.945-.448-.401-.672-1.036-.672-1.904 0-.868.282-1.524.847-1.967.565-.443 1.346-.665 2.345-.665.719 0 1.568.084 2.548.252l.49.084-.126 1.26c-1.307-.15-2.23-.224-2.772-.224zm6.463 6.356c.317.55.924.826 1.82.826s1.5-.27 1.813-.812c.312-.541.469-1.449.469-2.723 0-1.274-.161-2.2-.483-2.779-.322-.579-.922-.868-1.8-.868-.877 0-1.479.29-1.805.868-.327.579-.49 1.5-.49 2.765 0 1.265.158 2.172.476 2.723zm4.844 1.008c-.57.784-1.578 1.176-3.024 1.176-1.447 0-2.46-.394-3.038-1.183-.579-.789-.868-2.028-.868-3.717 0-1.69.291-2.945.875-3.766.583-.821 1.593-1.232 3.03-1.232 1.438 0 2.446.408 3.025 1.225.578.817.868 2.074.868 3.773 0 1.699-.29 2.94-.868 3.724zm4.237-2.394V49h-1.554v-9.59h3.64c2.165 0 3.248 1.017 3.248 3.052 0 1.363-.523 2.287-1.568 2.772L83.136 49h-1.708l-1.386-3.416h-2.254zm3.738-3.108c0-1.148-.55-1.722-1.652-1.722h-2.086v3.486h2.114c.56 0 .97-.161 1.232-.483.261-.322.392-.749.392-1.281zm9.272-1.862c-1.186 0-1.778.415-1.778 1.246 0 .43.14.735.42.917.28.182.898.406 1.855.672.956.266 1.63.583 2.023.952.392.369.588.95.588 1.743 0 1.008-.287 1.762-.861 2.261-.574.5-1.356.749-2.345.749-.794 0-1.671-.093-2.632-.28l-.504-.098.154-1.246c1.26.168 2.221.252 2.884.252 1.157 0 1.736-.513 1.736-1.54 0-.401-.131-.698-.392-.889-.262-.191-.85-.401-1.764-.63-.915-.229-1.596-.544-2.044-.945-.448-.401-.672-1.036-.672-1.904 0-.868.282-1.524.847-1.967.564-.443 1.346-.665 2.345-.665.718 0 1.568.084 2.548.252l.49.084-.126 1.26c-1.307-.15-2.231-.224-2.772-.224zM94.643 49l2.366-9.59h3.094l2.38 9.59h-1.568l-.518-2.058h-3.682L96.197 49h-1.554zm3.57-8.288l-1.19 4.858h3.066l-1.176-4.858h-.7zM109.24 49h-5.376v-9.59h1.554v8.204h3.822V49zm1.283 0v-9.59h6.048v1.358h-4.494v2.716h3.654v1.344h-3.654v2.8h4.494V49h-6.048zM156.336 105.41h1.638l1.372 8.246h.294l1.82-8.218h1.82l1.82 8.218h.308l1.372-8.246h1.638l-1.89 9.59h-2.506l-1.652-7.686-1.638 7.686h-2.52l-1.876-9.59zm18.055 8.33l.392-.042.028 1.134c-1.064.215-2.007.322-2.828.322-1.036 0-1.78-.285-2.233-.854-.453-.57-.679-1.48-.679-2.73 0-2.483 1.013-3.724 3.038-3.724 1.96 0 2.94 1.069 2.94 3.206l-.098 1.092h-4.34c.01.579.135 1.003.378 1.274.243.27.695.406 1.358.406.663 0 1.344-.028 2.044-.084zm-.84-2.772c0-.69-.11-1.174-.329-1.449-.22-.275-.59-.413-1.113-.413s-.903.145-1.141.434c-.238.29-.362.765-.371 1.428h2.954zm11.246-.812v3.192c.01.205.063.357.16.455.099.098.25.161.456.189l-.042 1.162c-.803 0-1.423-.173-1.862-.518a5.326 5.326 0 0 1-2.254.518c-1.39 0-2.086-.742-2.086-2.226 0-.71.189-1.223.567-1.54.378-.317.959-.509 1.743-.574l1.806-.154v-.504c0-.373-.082-.635-.245-.784-.163-.15-.404-.224-.721-.224-.597 0-1.344.037-2.24.112l-.448.028-.056-1.078c1.017-.243 1.953-.364 2.807-.364.854 0 1.47.184 1.848.553.378.369.567.954.567 1.757zm-3.136 1.736c-.644.056-.966.406-.966 1.05s.285.966.854.966c.467 0 .961-.075 1.484-.224l.252-.084v-1.862l-1.624.154zm5.063 3.108v-7h1.512v.84c.793-.513 1.587-.845 2.38-.994v1.526c-.803.159-1.489.364-2.058.616l-.308.126V115h-1.526zm9.99-1.26l.393-.042.028 1.134c-1.064.215-2.007.322-2.828.322-1.036 0-1.78-.285-2.233-.854-.453-.57-.68-1.48-.68-2.73 0-2.483 1.013-3.724 3.039-3.724 1.96 0 2.94 1.069 2.94 3.206l-.098 1.092h-4.34c.01.579.135 1.003.378 1.274.242.27.695.406 1.358.406.662 0 1.344-.028 2.044-.084zm-.84-2.772c0-.69-.109-1.174-.328-1.449-.22-.275-.59-.413-1.113-.413s-.903.145-1.141.434c-.238.29-.362.765-.371 1.428h2.954zm7.593 4.032h-1.526v-9.912h1.526v3.276c.69-.345 1.33-.518 1.918-.518.933 0 1.57.264 1.91.791.341.527.512 1.398.512 2.611V115h-1.526v-3.71c0-.756-.08-1.293-.238-1.61-.159-.317-.495-.476-1.008-.476-.448 0-.896.075-1.344.224l-.224.084V115zm11.11-1.26l.393-.042.028 1.134c-1.064.215-2.007.322-2.828.322-1.036 0-1.78-.285-2.233-.854-.453-.57-.68-1.48-.68-2.73 0-2.483 1.013-3.724 3.039-3.724 1.96 0 2.94 1.069 2.94 3.206l-.098 1.092h-4.34c.009.579.135 1.003.378 1.274.242.27.695.406 1.358.406.662 0 1.344-.028 2.044-.084zm-.84-2.772c0-.69-.109-1.174-.328-1.449-.22-.275-.59-.413-1.113-.413s-.903.145-1.141.434c-.238.29-.362.765-.371 1.428h2.954zm2.978 4.032v-7h1.512v.84c.793-.513 1.586-.845 2.38-.994v1.526c-.803.159-1.489.364-2.058.616l-.308.126V115h-1.526zm9.99-1.26l.393-.042.028 1.134c-1.064.215-2.007.322-2.828.322-1.036 0-1.78-.285-2.233-.854-.453-.57-.68-1.48-.68-2.73 0-2.483 1.013-3.724 3.039-3.724 1.96 0 2.94 1.069 2.94 3.206l-.098 1.092h-4.34c.009.579.135 1.003.378 1.274.242.27.695.406 1.358.406.662 0 1.344-.028 2.044-.084zm-.84-2.772c0-.69-.11-1.174-.328-1.449-.22-.275-.59-.413-1.113-.413s-.903.145-1.141.434c-.238.29-.362.765-.371 1.428h2.954zM29 153.554v-1.386h7v1.386h-2.702v8.204H31.73v-8.204H29zm9.795 6.174c.317.55.924.826 1.82.826s1.5-.27 1.813-.812c.313-.541.469-1.449.469-2.723 0-1.274-.161-2.2-.483-2.779-.322-.579-.922-.868-1.799-.868-.877 0-1.48.29-1.806.868-.327.579-.49 1.5-.49 2.765 0 1.265.159 2.172.476 2.723zm4.844 1.008c-.57.784-1.577 1.176-3.024 1.176s-2.46-.394-3.038-1.183c-.579-.789-.868-2.028-.868-3.717 0-1.69.292-2.945.875-3.766.583-.821 1.594-1.232 3.031-1.232s2.445.408 3.024 1.225c.579.817.868 2.074.868 3.773 0 1.699-.29 2.94-.868 3.724zm4.237 1.022h-1.554v-9.59h1.554v4.326l1.428-.112 1.96-4.214h1.778l-2.366 4.816 2.464 4.774h-1.806l-2.03-4.004-1.428.098v3.906zm6.617 0v-9.59h6.048v1.358h-4.494v2.716H59.7v1.344h-3.654v2.8h4.494v1.372h-6.048zm7.75 0v-9.59h2.717l2.912 8.218h.21v-8.218h1.554v9.59h-2.66l-2.982-8.232h-.196v8.232h-1.554zm15.517-8.386c-1.186 0-1.778.415-1.778 1.246 0 .43.14.735.42.917.28.182.898.406 1.855.672.956.266 1.63.583 2.023.952.392.369.588.95.588 1.743 0 1.008-.287 1.762-.861 2.261-.574.5-1.356.749-2.345.749-.794 0-1.67-.093-2.632-.28l-.504-.098.154-1.246c1.26.168 2.221.252 2.884.252 1.157 0 1.736-.513 1.736-1.54 0-.401-.13-.698-.392-.889-.262-.191-.85-.401-1.764-.63-.915-.229-1.596-.544-2.044-.945-.448-.401-.672-1.036-.672-1.904 0-.868.282-1.524.847-1.967.564-.443 1.346-.665 2.345-.665.718 0 1.568.084 2.548.252l.49.084-.126 1.26c-1.307-.15-2.23-.224-2.772-.224zm3.845 8.386l2.366-9.59h3.094l2.38 9.59h-1.568l-.518-2.058h-3.682l-.518 2.058h-1.554zm3.57-8.288l-1.19 4.858h3.066l-1.176-4.858h-.7zm11.027 8.288h-5.376v-9.59h1.554v8.204h3.822v1.386zm1.283 0v-9.59h6.048v1.358h-4.494v2.716h3.654v1.344h-3.654v2.8h4.494v1.372h-6.048z"/>
        <path fill="url(#a)" fill-rule="nonzero" d="M19 257.728v-63.456c0-.15-.224-.272-.5-.272s-.5.122-.5.272v63.456c0 .15.224.272.5.272s.5-.122.5-.272z"/>
        <path fill="url(#b)" fill-rule="nonzero" d="M16 41v68.438a2 2 0 0 0 4 0V41a2 2 0 1 0-4 0z"/>
        <path fill="url(#c)" fill-rule="nonzero" d="M19 204v-58.5a.5.5 0 0 0-1 0V204a.5.5 0 0 0 1 0z"/>
        <path fill="#BA95F1" fill-rule="nonzero" d="M17.697 109.803v24.394a.5.5 0 0 0 1 0v-24.394a.5.5 0 0 0-1 0z"/>
        <circle cx="18" cy="140" r="5" stroke="#BA95F1"/>
        <path fill="#BA95F1" fill-rule="nonzero" d="M160.974 140c.581 0 1.053.224 1.053.5s-.472.5-1.053.5H24.054c-.582 0-1.054-.224-1.054-.5s.472-.5 1.053-.5h136.92z"/>
        <path stroke="#29B1D7" stroke-linecap="round" stroke-linejoin="round" stroke-width="4" d="M18 31l-6-10h12z"/>
        <g fill-rule="nonzero">
            <path fill="url(#d)" d="M7 1.983v109.019h2V1.983a1 1 0 1 0-2 0z" transform="rotate(90 22.632 124.583)"/>
            <path fill="#2CBEDF" d="M34.215 114.185v-8.468l-7.057 4.234 7.057 4.234zm-9.515-5.091l10-6a1 1 0 0 1 1.515.857v12a1 1 0 0 1-1.515.858l-10-6a1 1 0 0 1 0-1.715z"/>
        </g>
        <path fill="#2CBEDF" fill-rule="nonzero" d="M12 261.548v6.904l6.428 3.48 6.428-3.48v-6.904l-6.428-3.48-6.428 3.48zm6.666-4.488l6.928 3.75a.5.5 0 0 1 .262.44v7.5a.5.5 0 0 1-.262.44l-6.928 3.75a.5.5 0 0 1-.476 0l-6.928-3.75a.5.5 0 0 1-.262-.44v-7.5a.5.5 0 0 1 .262-.44l6.928-3.75a.5.5 0 0 1 .476 0z"/>
    </g>
</svg>
