<svg xmlns="http://www.w3.org/2000/svg" width="36" height="26" viewBox="0 0 36 26">
    <g fill="none" fill-rule="evenodd">
        <path stroke="#25CAF0" d="M34.205 4.867a4.265 4.265 0 0 0-3-3.015c-2.643-.71-13.25-.71-13.25-.71s-10.6 0-13.249.71a4.264 4.264 0 0 0-3 3.015C1 7.524 1 13.07 1 13.07s0 5.547.707 8.204a4.265 4.265 0 0 0 3 3.015c2.648.71 13.249.71 13.249.71s10.606 0 13.25-.71a4.265 4.265 0 0 0 2.999-3.015c.707-2.657.707-8.204.707-8.204s0-5.547-.707-8.204"/>
        <path stroke="#25CAF0" d="M15 18l9-5-9-5z"/>
    </g>
</svg>
